<svg width="334" height="160" viewBox="0 0 334 160" fill="none" xmlns="http://www.w3.org/2000/svg">
<rect width="333.333" height="160" rx="12" fill="#EEF0FF"/>
<path d="M221.782 27.5419C222.447 27.5419 222.987 27.0021 222.987 26.3364C222.987 25.6706 222.447 25.1309 221.782 25.1309C221.116 25.1309 220.576 25.6706 220.576 26.3364C220.576 27.0021 221.116 27.5419 221.782 27.5419Z" fill="#7770FA"/>
<path d="M222.987 20.5136C222.987 21.1794 222.447 21.7191 221.782 21.7191C221.116 21.7191 220.576 21.1794 220.576 20.5136C220.576 19.8478 221.116 19.3081 221.782 19.3081C222.447 19.3081 222.987 19.8478 222.987 20.5136Z" fill="#7770FA"/>
<path d="M227.605 27.5419C228.27 27.5419 228.81 27.0021 228.81 26.3364C228.81 25.6706 228.27 25.1309 227.605 25.1309C226.939 25.1309 226.399 25.6706 226.399 26.3364C226.399 27.0021 226.939 27.5419 227.605 27.5419Z" fill="#7770FA"/>
<path d="M233.427 27.5414C232.762 27.5414 232.222 27.0016 232.222 26.3359C232.222 25.6701 232.762 25.1304 233.427 25.1304C234.093 25.1304 234.633 25.6701 234.633 26.3359C234.633 27.0016 234.093 27.5414 233.427 27.5414Z" fill="#7770FA"/>
<path d="M239.25 27.5419C239.916 27.5419 240.456 27.0021 240.456 26.3364C240.456 25.6706 239.916 25.1309 239.25 25.1309C238.585 25.1309 238.045 25.6706 238.045 26.3364C238.045 27.0021 238.585 27.5419 239.25 27.5419Z" fill="#7770FA"/>
<path d="M228.81 20.5136C228.81 21.1794 228.27 21.7191 227.605 21.7191C226.939 21.7191 226.399 21.1794 226.399 20.5136C226.399 19.8478 226.939 19.3081 227.605 19.3081C228.27 19.3081 228.81 19.8478 228.81 20.5136Z" fill="#7770FA"/>
<path d="M233.427 21.7186C232.762 21.7186 232.222 21.1789 232.222 20.5131C232.222 19.8473 232.762 19.3076 233.427 19.3076C234.093 19.3076 234.633 19.8473 234.633 20.5131C234.633 21.1789 234.093 21.7186 233.427 21.7186Z" fill="#7770FA"/>
<path d="M239.25 21.7186C238.585 21.7186 238.045 21.1789 238.045 20.5131C238.045 19.8473 238.585 19.3076 239.25 19.3076C239.916 19.3076 240.456 19.8473 240.456 20.5131C240.456 21.1789 239.916 21.7186 239.25 21.7186Z" fill="#7770FA"/>
<path d="M165.893 99.1133V137.402C165.893 138.267 165.192 138.968 164.327 138.968H98.557C97.692 138.968 96.9913 138.267 96.9913 137.402V99.1133H165.893Z" fill="white"/>
<path d="M165.892 96.0643V99.1137H96.9906V96.0643C96.9906 95.199 97.6933 94.499 98.5559 94.499H164.327C165.192 94.499 165.892 95.199 165.892 96.0643Z" fill="#9CD9D3"/>
<path d="M160.522 95.2686C161.32 95.2686 161.969 95.9171 161.969 96.715C161.969 97.5152 161.32 98.1614 160.522 98.1614C159.722 98.1614 159.073 97.5152 159.073 96.715C159.073 95.9171 159.722 95.2686 160.522 95.2686Z" fill="white"/>
<path d="M154.677 95.2686C155.478 95.2686 156.126 95.9171 156.126 96.715C156.126 97.5152 155.478 98.1614 154.677 98.1614C153.879 98.1614 153.231 97.5152 153.231 96.715C153.231 95.9171 153.879 95.2686 154.677 95.2686Z" fill="#292953"/>
<path d="M148.834 95.2686C149.635 95.2686 150.283 95.9171 150.283 96.715C150.283 97.5152 149.635 98.1614 148.834 98.1614C148.037 98.1614 147.388 97.5152 147.388 96.715C147.388 95.9171 148.037 95.2686 148.834 95.2686Z" fill="#ABABFB"/>
<path d="M164.327 139.222H98.5573C97.5541 139.222 96.7375 138.406 96.7375 137.402V96.0639C96.7375 95.0603 97.5541 94.2441 98.5573 94.2441H164.327C165.331 94.2441 166.147 95.0603 166.147 96.0639V137.402C166.147 138.406 165.331 139.222 164.327 139.222ZM98.5573 94.7524C97.8343 94.7524 97.2458 95.3405 97.2458 96.0639V137.402C97.2458 138.126 97.8343 138.714 98.5573 138.714H164.327C165.05 138.714 165.639 138.126 165.639 137.402V96.0639C165.639 95.3405 165.05 94.7524 164.327 94.7524H98.5573Z" fill="#292953"/>
<path d="M217.904 24.2275V73.784C217.904 74.9034 216.997 75.8104 215.877 75.8104H156.121C155.002 75.8104 154.095 74.9034 154.095 73.784V24.2275H217.904Z" fill="white"/>
<path d="M217.904 20.2797V24.2262H154.095V20.2797C154.095 19.1599 155.001 18.2539 156.121 18.2539H215.878C216.998 18.2539 217.904 19.1599 217.904 20.2797Z" fill="#9CD9D3"/>
<path d="M210.953 19.2515C211.985 19.2515 212.825 20.091 212.825 21.1234C212.825 22.1592 211.985 22.9954 210.953 22.9954C209.917 22.9954 209.078 22.1592 209.078 21.1234C209.078 20.091 209.917 19.2515 210.953 19.2515Z" fill="white"/>
<path d="M203.388 19.2515C204.424 19.2515 205.263 20.091 205.263 21.1234C205.263 22.1592 204.424 22.9954 203.388 22.9954C202.355 22.9954 201.516 22.1592 201.516 21.1234C201.516 20.091 202.355 19.2515 203.388 19.2515Z" fill="#292953"/>
<path d="M195.826 19.2515C196.862 19.2515 197.701 20.091 197.701 21.1234C197.701 22.1592 196.862 22.9954 195.826 22.9954C194.793 22.9954 193.954 22.1592 193.954 21.1234C193.954 20.091 194.793 19.2515 195.826 19.2515Z" fill="#ABABFB"/>
<path d="M215.877 76.0644H156.121C154.864 76.0644 153.841 75.0412 153.841 73.7839V20.2806C153.841 19.0232 154.864 18 156.121 18H215.878C217.135 18 218.158 19.0229 218.158 20.2806V73.7839C218.158 75.0416 217.135 76.0644 215.877 76.0644ZM156.121 18.5086C155.144 18.5086 154.349 19.3034 154.349 20.2809V73.7842C154.349 74.7617 155.144 75.5566 156.121 75.5566H215.878C216.855 75.5566 217.65 74.7614 217.65 73.7842V20.2806C217.65 19.3034 216.855 18.5082 215.878 18.5082L156.121 18.5086Z" fill="#292953"/>
<path d="M210.131 80.1216L210.134 81.2187H196.289L196.286 80.1216H210.131Z" fill="white"/>
<path d="M175.682 30.4277H158.69V47.4203H175.682V30.4277Z" fill="#7770FA"/>
<path d="M196.503 30.4277H179.51V47.4203H196.503V30.4277Z" fill="#ABABFB"/>
<path d="M196.503 51.2271H179.51V68.2196H196.503V51.2271Z" fill="#7770FA"/>
<path d="M175.682 51.2271H158.69V68.2196H175.682V51.2271Z" fill="#ABABFB"/>
<path d="M246.735 69.3111C246.956 72.1633 244.47 86.7212 241.767 87.2938C241.767 87.2938 241.615 87.29 241.354 87.2646L241.361 87.1813C246.5 74.2724 245.529 68.166 245.496 67.981C246.192 68.2493 246.692 68.764 246.735 69.3111Z" fill="white"/>
<path d="M245.496 67.9817C245.529 68.1667 246.5 74.2732 241.361 87.1821L241.354 87.2654C239.991 87.1567 235.617 86.6057 233.831 84.087C236.639 81.4198 235.28 77.8863 235.28 77.8863C235.28 77.8863 235.378 77.0346 236.654 77.0129C236.654 77.0129 238.357 75.9222 240.169 72.8234L241.455 69.8225C242.503 67.7639 244.293 67.5105 245.496 67.978C245.496 67.978 245.496 67.978 245.496 67.9817Z" fill="#292953"/>
<path d="M243.684 119.921C244.003 120.599 244.01 121.317 243.662 121.741C241.854 123.959 230.01 132.783 227.658 131.334C227.658 131.334 227.553 131.225 227.376 131.026L227.441 130.971C240.263 125.078 243.684 119.921 243.684 119.921Z" fill="white"/>
<path d="M239.488 118.468C241.662 117.703 243.137 118.75 243.684 119.921C243.684 119.921 240.263 125.078 227.441 130.971L227.376 131.025C226.463 129.999 223.683 126.586 224.125 123.534C227.999 123.541 229.452 120.044 229.452 120.044C229.452 120.044 230.112 119.497 231.054 120.363C231.054 120.363 233.037 120.747 236.487 119.754L239.488 118.468Z" fill="#292953"/>
<path d="M235.28 77.8862C235.28 77.8862 236.639 81.4197 233.83 84.0868L230.529 83.9456C230.819 83.0396 231.609 80.2166 231.283 77.3315L235.28 77.8862Z" fill="white"/>
<path d="M231.282 77.3315C231.609 80.2161 230.819 83.0395 230.529 83.9455C230.467 84.1413 230.427 84.2463 230.427 84.2463C230.427 84.2463 205.86 87.6819 202.99 87.4536C200.12 87.2289 196.372 86.1959 196.372 86.1959C196.372 86.1959 195.887 86.9643 195.078 88.2108C192.962 91.476 188.628 98.0212 185.054 102.5C183.242 104.765 181.626 106.501 180.589 107.016C176.729 108.93 167.528 111.55 161.853 108.763C156.178 105.976 149.629 99.9965 149.158 99.1593C148.89 98.6772 148.926 98.0432 149.006 97.5902L149.495 97.9308C149.495 97.9308 159.316 91.7118 161.534 87.4028C163.748 83.0974 163.933 79.611 163.933 79.611L175.182 82.6698C175.182 82.6698 184.452 76.045 186.116 75.4653C187.776 74.8856 191.704 72.4427 195.082 72.9973C198.456 73.5516 231.029 75.9366 231.029 75.9366C231.145 76.3963 231.228 76.8639 231.282 77.3315Z" fill="white"/>
<path d="M225.622 115.221L229.452 120.044C229.452 120.044 227.999 123.542 224.125 123.535L220.153 119.407C223.411 118.729 225.1 116.17 225.622 115.221Z" fill="white"/>
<path d="M225.622 115.221C225.1 116.17 223.411 118.729 220.153 119.407C219.871 119.468 219.573 119.512 219.262 119.541C219.262 119.541 207.625 110.6 205.306 108.361C202.99 106.117 201.631 102.265 201.631 102.265L185.054 102.5C188.628 98.021 192.962 91.4761 195.078 88.2109C195.078 88.2109 205.208 91.2589 206.414 91.9874C207.625 92.7196 209.991 94.557 210.647 95.6151C211.299 96.6732 225.807 114.859 225.807 114.859C225.807 114.859 225.749 114.993 225.622 115.221Z" fill="#ABABFB"/>
<path d="M169.894 57.9862C170.297 59.3197 169.188 61.2588 167.88 62.2156C166.858 62.9657 157.964 65.2815 154.119 66.2563C155.192 64.5494 156.678 61.2263 155.029 57.6457L161.581 56.7759C161.581 56.7759 161.566 54.4926 161.581 52.1768C161.599 49.8573 160.642 40.3552 160.642 40.3552C160.642 40.3552 155.329 34.8647 155.072 34.4988C154.815 34.1329 154.177 29.8418 154.177 29.8418C154.177 29.8418 154.329 29.3488 155.022 29.5518C155.022 29.5518 154.757 28.7942 155.322 28.6675C155.891 28.5441 156.37 28.8958 156.37 28.8958C156.37 28.8958 157.069 28.3161 157.805 28.8958C157.805 28.8958 158.58 28.5299 159.265 29.0734C159.265 29.0734 159.94 28.7325 160.501 29.338C161.059 29.9397 161.585 31.8168 161.585 31.8168C161.585 31.8168 164.009 34.2268 164.371 35.2523C164.73 36.2742 164.991 38.6917 164.991 38.6917C164.991 38.6917 169.492 56.6526 169.894 57.9862Z" fill="white"/>
<path d="M163.904 79.5637C163.911 79.5783 163.922 79.5962 163.933 79.6108L160.272 78.8895L157.478 76.9904C159.229 75.7981 161.229 75.9828 163.266 78.6465C163.306 78.7007 163.346 78.7516 163.382 78.8095C163.436 78.882 163.491 78.9579 163.541 79.0341C163.614 79.1392 163.679 79.2334 163.733 79.3133C163.781 79.3784 163.824 79.4438 163.864 79.5091C163.875 79.52 163.882 79.5308 163.889 79.5454C163.893 79.5529 163.897 79.56 163.904 79.5637Z" fill="#292953"/>
<path d="M149.006 97.59L147.284 96.394C148.821 95.1438 151.068 92.5779 151.977 87.8738C152.804 83.601 154.869 78.7665 157.479 76.9907L160.273 78.8898L163.933 79.6111C163.933 79.6111 163.748 83.0975 161.534 87.4029C159.316 91.7119 149.495 97.9309 149.495 97.9309L149.006 97.59Z" fill="white"/>
<path d="M163.542 79.0347C163.611 79.1251 163.676 79.2197 163.734 79.3139C163.679 79.2339 163.614 79.1397 163.542 79.0347Z" fill="white"/>
<path d="M121.905 67.7238C124.21 66.5099 126.859 65.2739 126.859 65.2739C126.859 65.2739 128 63.4436 128.805 62.9543C129.613 62.4688 129.965 62.6501 129.965 62.6501L130.084 63.6286C130.084 63.6286 132.889 66.064 136.405 65.9806C139.924 65.8936 141.029 63.6286 141.029 63.6286C141.029 63.6286 140.569 62.8385 140.105 61.7729C139.706 60.8706 139.307 59.7797 139.184 58.8012C139.184 58.8012 143.196 56.3657 146.523 56.3983C149.846 56.4308 154.655 56.9275 154.655 56.9275C154.793 57.1667 154.92 57.4096 155.028 57.6451C156.677 61.2257 155.191 64.5488 154.119 66.2558C153.64 67.0167 153.245 67.4552 153.245 67.4552L151.096 67.9624C151.096 67.9624 153.876 69.8614 154.731 70.8545C155.586 71.851 155.514 74.6851 155.514 74.6851C155.514 74.6851 158.547 74.1813 159.895 74.859C160.823 75.3265 162.381 77.3957 163.266 78.6462C161.229 75.9825 159.228 75.7978 157.478 76.9901C154.869 78.7658 152.803 83.6004 151.977 87.8732C151.067 92.5773 148.82 95.1431 147.283 96.3934C146.384 97.1289 145.732 97.4118 145.732 97.4118C134.516 93.5487 126.96 84.6155 126.96 84.6155L124.441 86.8988C124.441 86.8988 124.02 87.0184 123.118 87.0112C122.027 87.0041 120.233 86.812 117.624 85.9928C115.896 85.4527 114.707 84.7351 113.888 84.0358C112.449 82.8143 112.17 81.662 112.17 81.662C112.17 81.662 117.356 70.4276 119.57 69.0357C120.187 68.6515 121.02 68.1877 121.905 67.7238Z" fill="#7770FA"/>
<path d="M140.105 61.7732C140.569 62.8388 141.029 63.6289 141.029 63.6289C141.029 63.6289 139.924 65.8939 136.405 65.9809C132.89 66.0643 130.085 63.6289 130.085 63.6289L129.965 62.6504L129.501 58.8052C129.693 58.9936 129.893 59.1677 130.092 59.3236C130.092 59.3236 135.517 66.1836 140.105 61.7732Z" fill="white"/>
<path d="M138.808 46.98C139.514 49.0274 140.507 52.0537 140.641 53.3185C140.797 54.7463 139.913 57.218 139.184 58.8019C138.891 59.4433 138.626 59.94 138.463 60.1646C137.89 60.9473 136.346 61.1286 135.205 61.1431C134.603 61.1502 132.146 60.9547 130.092 59.3237C129.892 59.1678 129.693 58.994 129.501 58.8053V58.8016C128.932 58.2435 128.417 57.5585 128.012 56.7104C127.269 56.8625 126.479 56.7792 125.79 56.4675C124.949 56.0941 124.253 55.4019 123.884 54.5613C123.63 53.985 123.525 53.3328 123.655 52.7131C123.786 52.0934 124.163 51.517 124.71 51.1982C124.953 51.0641 125.229 50.9773 125.504 50.9519C125.504 50.9519 127.682 49.7596 127.968 47.1721C128.254 44.5883 128.352 41.9825 129.95 41.2974C129.95 41.2974 134.285 39.5033 137.96 44.5734C138.003 44.6892 138.039 44.8088 138.075 44.9284H138.079C138.079 44.9284 138.394 45.7911 138.808 46.98Z" fill="white"/>
<path d="M139.184 58.8018C139.308 59.7803 139.706 60.8709 140.105 61.7735C135.517 66.1839 130.092 59.3235 130.092 59.3235C132.146 60.9543 134.604 61.1501 135.205 61.143C136.346 61.1284 137.89 60.9471 138.463 60.1645C138.626 59.9398 138.891 59.4431 139.184 58.8018Z" fill="#292953"/>
<path d="M126.341 39.7644C126.471 39.0035 127.178 38.398 127.939 38.1879C128.776 37.9559 129.664 38.09 130.523 38.2279C132.44 38.5359 134.36 38.8405 136.278 39.1485C136.981 39.261 137.756 39.4168 138.173 39.9928C138.481 40.417 138.517 40.975 138.543 41.4968C138.63 43.3271 138.716 45.1499 138.807 46.9799C138.394 45.7913 138.079 44.9287 138.079 44.9287H138.075C138.039 44.8091 138.003 44.6895 137.959 44.5736C134.284 39.5036 129.95 41.2976 129.95 41.2976C128.352 41.9827 128.254 44.5882 127.968 47.1723C127.681 49.7598 125.503 50.9521 125.503 50.9521C125.228 50.9775 124.952 51.0646 124.71 51.1984C124.163 51.5173 123.786 52.0936 123.655 52.7133C123.525 53.333 123.63 53.9852 123.883 54.5615C124.253 55.4025 124.949 56.0947 125.79 56.4677C126.478 56.7794 127.268 56.8628 128.011 56.7106C128.417 57.5587 128.932 58.2438 129.501 58.8018V58.8055L129.965 62.6507C129.965 62.6507 129.613 62.4695 128.805 62.955C128 63.4442 126.859 65.2745 126.859 65.2745C126.859 65.2745 124.209 66.5102 121.904 67.7245C120.524 67.5324 119.161 67.1302 117.817 66.728C116.588 66.3621 115.36 65.9925 114.135 65.6262C113.946 63.4409 114.381 61.205 115.378 59.2551C112.972 60.6287 111.286 63.2233 111.043 65.985C110.793 66.0104 110.54 66.0358 110.29 66.0646C109.971 64.6657 110.304 63.1471 110.982 61.8643C111.746 60.422 112.917 59.2368 114.113 58.1245C115.313 57.0118 116.566 55.9466 117.57 54.6527C118.788 53.0836 119.604 51.2062 119.919 49.2455C120.136 47.8936 120.118 46.5167 120.321 45.1648C120.52 43.813 120.977 42.4394 121.959 41.49C123.105 40.3808 124.761 40.0328 126.341 39.7644Z" fill="#292953"/>
<path d="M117.625 85.9931C120.234 86.812 122.028 87.0042 123.119 87.0116C121.68 89.1753 117.194 95.9197 116.708 96.5719C116.128 97.3512 101.041 112.463 101.041 112.463C100.526 115.892 97.9208 117.2 97.9208 117.2C97.9208 117.2 97.4786 120.36 97.417 121.683C97.3516 123.006 96.2064 123.016 96.2064 123.016L95.525 116.468L90.8175 117.831C90.8175 117.831 89.8461 119.378 88.6759 120.02C87.5053 120.665 86.3746 120.726 86.2588 120.375C86.1392 120.02 88.0199 117.907 88.0199 117.907C88.0199 116.961 88.7013 116.204 89.734 115.388C90.7667 114.569 97.3157 109.822 97.3157 109.822C97.3157 109.822 104.495 98.7136 105.575 96.9233C106.658 95.1367 110.663 91.6866 110.663 91.6866L113.889 84.0361C114.707 84.7358 115.896 85.4531 117.625 85.9931Z" fill="white"/>
<path d="M241.766 87.5481C241.764 87.5481 241.762 87.5481 241.761 87.5481C241.761 87.5481 241.601 87.5444 241.329 87.5179C241.191 87.5047 241.088 87.3821 241.101 87.2428L241.108 87.1595C241.11 87.1351 241.116 87.1103 241.125 87.0876C246.248 74.2198 245.257 68.0855 245.246 68.0252C245.23 67.9351 245.264 67.8433 245.335 67.785C245.406 67.7267 245.502 67.7111 245.588 67.744C246.388 68.0527 246.938 68.6598 246.989 69.2907C247.178 71.7197 244.874 86.8952 241.82 87.5416C241.802 87.5461 241.784 87.5481 241.766 87.5481ZM241.692 87.0365C241.713 87.0375 241.729 87.0382 241.742 87.0388C244.134 86.4263 246.713 72.3153 246.482 69.3317C246.455 68.9963 246.2 68.6608 245.803 68.4149C245.945 70.0791 246.024 76.0646 241.692 87.0365Z" fill="#292953"/>
<path d="M241.354 87.5191C241.347 87.5191 241.341 87.5187 241.334 87.5184C239.996 87.4117 235.485 86.8587 233.623 84.2336C233.55 84.1306 233.563 83.9893 233.655 83.9022C236.303 81.3875 235.095 78.1146 235.043 77.9767C235.028 77.9387 235.023 77.8974 235.027 77.8564C235.069 77.4939 235.446 76.8095 236.571 76.7607C236.873 76.5449 238.375 75.3871 239.95 72.6946L241.222 69.7221C242.303 67.5957 244.194 67.198 245.588 67.7407C245.679 67.7756 245.74 67.858 245.749 67.9528C245.819 68.3733 246.694 74.4591 241.611 87.2409L241.607 87.2873C241.595 87.4191 241.484 87.5191 241.354 87.5191ZM234.167 84.112C235.886 86.2932 239.709 86.8564 241.163 86.9932C245.822 75.2489 245.378 69.1414 245.264 68.1646C244.097 67.7848 242.576 68.1802 241.681 69.9373L240.402 72.9229C238.566 76.0665 236.862 77.1801 236.79 77.2262C236.751 77.2516 236.705 77.2652 236.658 77.2662C235.787 77.2808 235.586 77.7117 235.543 77.8683C235.717 78.3941 236.636 81.5976 234.167 84.112Z" fill="#292953"/>
<path d="M228.328 131.74C228.007 131.74 227.736 131.68 227.525 131.55C227.507 131.539 227.49 131.525 227.475 131.51C227.475 131.51 227.368 131.398 227.186 131.194C227.14 131.143 227.117 131.075 227.122 131.006C227.127 130.937 227.16 130.874 227.213 130.83L227.278 130.776C227.296 130.761 227.315 130.749 227.335 130.74C239.945 124.945 243.438 119.831 243.472 119.78C243.523 119.704 243.612 119.662 243.702 119.667C243.794 119.674 243.875 119.73 243.914 119.813C244.287 120.605 244.265 121.405 243.859 121.901C242.442 123.639 232.046 131.74 228.328 131.74ZM227.818 131.133C229.976 132.332 241.575 123.898 243.466 121.58C243.678 121.321 243.725 120.902 243.607 120.448C242.563 121.752 238.502 126.131 227.782 131.094C227.796 131.11 227.809 131.123 227.818 131.133Z" fill="#292953"/>
<path d="M227.376 131.279C227.306 131.279 227.236 131.251 227.186 131.194C226.293 130.191 223.414 126.671 223.873 123.498C223.892 123.373 223.999 123.28 224.125 123.28H224.125C224.129 123.28 224.133 123.28 224.137 123.28C227.781 123.28 229.161 120.082 229.218 119.946C229.234 119.908 229.258 119.875 229.29 119.849C229.571 119.616 230.317 119.382 231.168 120.124C231.535 120.175 233.418 120.373 236.416 119.51L239.387 118.234C239.393 118.232 239.398 118.23 239.403 118.228C241.641 117.443 243.28 118.458 243.914 119.814C243.951 119.894 243.945 119.988 243.895 120.062C243.754 120.275 240.294 125.338 227.577 131.188L227.538 131.221C227.491 131.26 227.433 131.279 227.376 131.279ZM224.351 123.785C224.094 126.541 226.471 129.594 227.426 130.698C238.91 125.404 242.792 120.69 243.388 119.897C242.808 118.818 241.437 118.056 239.58 118.705L236.587 119.988C233.088 120.996 231.089 120.629 231.006 120.613C230.959 120.604 230.916 120.582 230.882 120.55C230.239 119.959 229.795 120.131 229.654 120.213C229.417 120.716 227.873 123.669 224.351 123.785Z" fill="#292953"/>
<path d="M233.83 84.3408C233.826 84.3408 233.823 84.3408 233.819 84.3405L230.518 84.1992C230.439 84.1958 230.366 84.1558 230.32 84.0908C230.275 84.0261 230.263 83.9434 230.287 83.8682C230.543 83.0665 231.354 80.2283 231.03 77.3599C231.021 77.2823 231.049 77.2044 231.105 77.1495C231.161 77.0949 231.238 77.0685 231.317 77.0797L235.315 77.6343C235.406 77.6472 235.483 77.7085 235.517 77.7949C235.531 77.8318 236.904 81.5188 234.005 84.2714C233.958 84.3161 233.895 84.3408 233.83 84.3408ZM230.868 83.7055L233.732 83.8282C236.013 81.5856 235.301 78.7768 235.09 78.1161L231.567 77.6275C231.785 80.1788 231.18 82.6427 230.868 83.7055Z" fill="#292953"/>
<path d="M167.923 110.226C165.704 110.226 163.552 109.88 161.741 108.991C156.152 106.247 149.457 100.209 148.936 99.2835C148.63 98.734 148.669 98.035 148.755 97.5457C148.77 97.4604 148.828 97.3885 148.908 97.355C148.988 97.3211 149.079 97.3316 149.151 97.3811L149.5 97.6243C150.711 96.842 159.291 91.2052 161.308 87.2861C163.469 83.0851 163.677 79.6312 163.679 79.597C163.683 79.5201 163.722 79.4496 163.784 79.4049C163.846 79.3595 163.926 79.3453 163.999 79.3656L175.132 82.3926C176.185 81.6424 184.427 75.7843 186.032 75.2253C186.401 75.0965 186.898 74.8668 187.473 74.6012C189.452 73.6871 192.445 72.3071 195.123 72.7462C198.447 73.2923 230.722 75.659 231.047 75.6827C231.156 75.6905 231.248 75.7677 231.275 75.8741C231.39 76.3325 231.478 76.813 231.535 77.3015V77.3025C231.871 80.2712 231.035 83.1966 230.77 84.0226C230.706 84.2262 230.664 84.3363 230.664 84.3363C230.631 84.4231 230.554 84.4851 230.462 84.498C229.458 84.6382 205.838 87.9349 202.969 87.7069C200.468 87.511 197.275 86.6979 196.486 86.4895C196.304 86.7751 195.885 87.4331 195.291 88.3489C193.062 91.7876 188.794 98.2196 185.252 102.659C183.176 105.254 181.687 106.754 180.701 107.243C178.176 108.496 172.885 110.226 167.923 110.226ZM149.207 98.0397C149.186 98.3745 149.217 98.7431 149.38 99.0352C149.794 99.7711 156.229 105.718 161.965 108.535C167.655 111.329 176.894 108.564 180.476 106.788C181.381 106.339 182.855 104.843 184.856 102.342C188.383 97.9194 192.641 91.5036 194.865 88.0725C195.672 86.8283 196.157 86.0606 196.157 86.0602C196.217 85.9654 196.332 85.921 196.44 85.9511C196.477 85.9613 200.197 86.9801 203.01 87.2C205.698 87.4165 228.153 84.3062 230.239 84.0162C230.253 83.9755 230.269 83.9264 230.287 83.8691C230.543 83.0665 231.355 80.2282 231.03 77.3598C230.983 76.9563 230.915 76.5592 230.826 76.1763C227.923 75.9632 198.293 73.7826 195.041 73.2479C192.514 72.8322 189.609 74.1746 187.686 75.0623C187.099 75.3337 186.591 75.5678 186.2 75.7047C184.589 76.2658 175.422 82.81 175.33 82.8761C175.268 82.9204 175.189 82.9343 175.116 82.9143L164.161 79.9358C164.062 80.8906 163.62 83.9016 161.76 87.5185C159.536 91.8394 150.034 97.8893 149.631 98.1448C149.544 98.199 149.433 98.1973 149.35 98.1383L149.207 98.0397Z" fill="#292953"/>
<path d="M224.137 123.789C224.065 123.789 223.992 123.763 223.942 123.711L219.97 119.583C219.906 119.516 219.883 119.42 219.91 119.332C219.938 119.243 220.011 119.177 220.101 119.158C223.314 118.489 224.968 115.882 225.399 115.099C225.44 115.024 225.515 114.975 225.6 114.968C225.689 114.96 225.768 114.997 225.82 115.063L229.651 119.886C229.709 119.959 229.722 120.056 229.687 120.142C229.672 120.178 228.126 123.789 224.137 123.789ZM220.644 119.551L224.232 123.28C227.432 123.231 228.854 120.705 229.156 120.081L225.654 115.671C224.966 116.802 223.398 118.813 220.644 119.551Z" fill="#292953"/>
<path d="M219.261 119.795C219.205 119.795 219.151 119.777 219.106 119.743C218.631 119.378 207.432 110.768 205.129 108.544C203.048 106.529 201.75 103.308 201.454 102.522L185.057 102.755C184.957 102.76 184.869 102.702 184.825 102.613C184.782 102.525 184.793 102.42 184.855 102.343C188.383 97.9202 192.641 91.5044 194.865 88.0732C194.926 87.9786 195.043 87.936 195.151 87.9681C195.566 88.0928 205.325 91.0337 206.545 91.77C207.671 92.4517 210.147 94.3267 210.863 95.4814C211.5 96.5154 225.86 114.519 226.004 114.701C226.063 114.774 226.076 114.874 226.039 114.961C226.039 114.961 225.978 115.102 225.844 115.345C225.258 116.41 223.537 118.963 220.204 119.657C219.922 119.718 219.62 119.764 219.284 119.795C219.277 119.795 219.269 119.795 219.261 119.795ZM201.63 102.011C201.738 102.011 201.834 102.079 201.87 102.18C201.883 102.218 203.237 106.004 205.482 108.178C207.664 110.286 218.304 118.484 219.337 119.278C219.612 119.25 219.862 119.21 220.099 119.159C223.315 118.489 224.969 115.882 225.399 115.099L225.4 115.098C225.445 115.016 225.481 114.947 225.509 114.893C224.123 113.155 211.063 96.7736 210.431 95.7483C209.815 94.7539 207.526 92.9569 206.283 92.2047C205.366 91.6514 198.731 89.5782 195.188 88.5096C193.003 91.875 189.003 97.8924 185.585 102.239L201.627 102.011C201.628 102.011 201.629 102.011 201.63 102.011Z" fill="#292953"/>
<path d="M154.119 66.5104C154.005 66.5104 153.902 66.4338 153.873 66.3186C153.838 66.1828 153.92 66.0445 154.057 66.01C160.13 64.4704 166.911 62.6113 167.729 62.0106C168.936 61.128 170.022 59.2886 169.651 58.0597C169.251 56.7356 164.929 39.4872 164.745 38.7537C164.741 38.7425 164.739 38.731 164.738 38.7191C164.736 38.695 164.477 36.3193 164.132 35.3367C163.851 34.5408 162.069 32.656 161.406 31.997C161.374 31.9662 161.352 31.9276 161.34 31.8852C161.198 31.3793 160.738 29.9668 160.315 29.5108C159.902 29.0659 159.431 29.2756 159.378 29.3011C159.291 29.3434 159.184 29.3332 159.107 29.2723C158.559 28.8372 157.938 29.114 157.912 29.1262C157.825 29.1655 157.722 29.1543 157.647 29.0954C157.097 28.661 156.587 29.0469 156.531 29.0927C156.441 29.1652 156.312 29.1689 156.219 29.1008C156.216 29.0988 155.822 28.8199 155.376 28.9158C155.295 28.9341 155.266 28.9697 155.249 28.9985C155.179 29.1228 155.227 29.3692 155.261 29.4688C155.292 29.5586 155.27 29.6585 155.205 29.7269C155.139 29.7957 155.041 29.8225 154.95 29.7954C154.617 29.6975 154.488 29.8042 154.439 29.8794C154.741 31.8981 155.136 34.1061 155.282 34.3562C155.461 34.6096 158.695 37.9774 160.825 40.1784C160.864 40.2194 160.889 40.2726 160.895 40.3295C160.934 40.7181 161.853 49.8719 161.835 52.1789C161.821 54.4662 161.834 56.7512 161.835 56.7742C161.836 56.9023 161.741 57.0111 161.614 57.028L155.062 57.8977C154.924 57.9147 154.795 57.8181 154.777 57.6792C154.758 57.5399 154.856 57.4122 154.995 57.3939L161.326 56.5537C161.323 55.9218 161.315 54.0495 161.327 52.1758C161.344 50.0145 160.494 41.434 160.398 40.4687C159.627 39.6712 155.117 35.0057 154.864 34.6452C154.593 34.26 154.077 30.9003 153.925 29.8798C153.92 29.8421 153.923 29.8035 153.934 29.7676C153.997 29.5633 154.232 29.2499 154.707 29.2492C154.699 29.092 154.717 28.9111 154.805 28.7532C154.9 28.5821 155.06 28.4669 155.267 28.4205C155.734 28.3195 156.144 28.4801 156.36 28.5946C156.693 28.3964 157.272 28.2399 157.842 28.6112C158.114 28.5238 158.719 28.4022 159.301 28.7871C159.641 28.679 160.219 28.6617 160.687 29.1662C161.226 29.7469 161.709 31.338 161.81 31.685C162.163 32.0387 164.258 34.1702 164.611 35.169C164.963 36.1722 165.215 38.4084 165.242 38.6483C165.403 39.29 169.747 56.6194 170.137 57.914C170.576 59.3675 169.402 61.4184 168.029 62.4219C166.956 63.2097 157.987 65.539 154.181 66.504C154.161 66.508 154.14 66.5104 154.119 66.5104Z" fill="#292953"/>
<path d="M149.495 98.1847C149.444 98.1847 149.393 98.1694 149.35 98.1389L147.139 96.6027C147.024 96.5228 146.996 96.3642 147.076 96.249C147.156 96.1335 147.314 96.105 147.429 96.185L149.501 97.6246C150.712 96.8423 159.291 91.2054 161.308 87.2863C163.159 83.6891 163.577 80.6398 163.661 79.8158L160.224 79.1388C160.19 79.1321 160.158 79.1185 160.13 79.0995L157.336 77.2005C157.22 77.1219 157.19 76.9636 157.269 76.8474C157.348 76.7316 157.506 76.7014 157.622 76.7803L160.373 78.6503L163.982 79.3614C164.107 79.3858 164.194 79.498 164.187 79.6244C164.179 79.769 163.974 83.2148 161.76 87.5188C159.536 91.8397 150.034 97.8895 149.631 98.145C149.589 98.1714 149.542 98.1847 149.495 98.1847Z" fill="#292953"/>
<path d="M141.029 63.8831C140.942 63.8831 140.857 63.8381 140.81 63.7571C140.792 63.7279 140.426 63.0967 140.016 62.1985C138.918 63.1499 137.689 63.5853 136.356 63.4948C133.025 63.2678 130.195 59.8563 129.912 59.5053C129.886 59.4846 129.86 59.464 129.834 59.4429L130.337 63.5982C130.354 63.7374 130.255 63.8641 130.115 63.8811C129.976 63.8967 129.849 63.7988 129.832 63.6595L129.249 58.8355C129.236 58.7284 129.292 58.6247 129.389 58.5769C129.485 58.5295 129.602 58.5475 129.679 58.6237C129.86 58.8006 130.051 58.9686 130.248 59.1231C130.264 59.1356 130.279 59.1499 130.291 59.1658C130.32 59.2017 133.18 62.7698 136.392 62.9876C137.685 63.0767 138.874 62.6051 139.929 61.5904C139.989 61.5324 140.073 61.5084 140.155 61.5243C140.237 61.5405 140.305 61.5958 140.338 61.672C140.79 62.7098 141.245 63.4935 141.249 63.5009C141.32 63.6222 141.279 63.7777 141.157 63.8482C141.117 63.8719 141.073 63.8831 141.029 63.8831Z" fill="#292953"/>
<path d="M135.188 61.3969C134.907 61.3969 132.233 61.3474 129.933 59.5222C129.723 59.3576 129.517 59.1766 129.323 58.9866C129.314 58.9781 129.306 58.9686 129.298 58.9588C128.722 58.3886 128.242 57.7286 127.868 56.994C127.127 57.1072 126.359 57.0045 125.685 56.6989C124.786 56.2998 124.044 55.5578 123.651 54.6636C123.36 54.004 123.274 53.2924 123.406 52.6609C123.556 51.949 123.996 51.3202 124.582 50.9787C124.846 50.8326 125.134 50.7395 125.422 50.7049C125.713 50.5274 127.468 49.3717 127.715 47.144C127.744 46.8834 127.771 46.6229 127.797 46.3644C128.043 43.9855 128.276 41.7385 129.85 41.0636C129.898 41.0439 134.416 39.2513 138.165 44.4243C138.178 44.4426 138.189 44.4629 138.197 44.4839C138.238 44.5924 138.273 44.7042 138.307 44.816C138.311 44.8241 138.314 44.8326 138.318 44.8414C138.318 44.8414 138.633 45.7054 139.047 46.8963V46.8966C139.817 49.125 140.762 52.0436 140.894 53.2911C141.095 55.1387 139.697 58.2937 139.415 58.9073C139.118 59.5561 138.846 60.0687 138.668 60.3127C138.034 61.1801 136.437 61.3803 135.208 61.3962C135.205 61.3969 135.198 61.3969 135.188 61.3969ZM129.703 58.6471C129.876 58.8158 130.059 58.9757 130.248 59.1235C132.486 60.8992 135.179 60.888 135.202 60.889C136.775 60.869 137.861 60.5583 138.258 60.0145C138.414 59.8004 138.674 59.3074 138.954 58.6962C139.707 57.0594 140.534 54.6765 140.389 53.3463C140.289 52.3956 139.659 50.2235 138.568 47.0637C138.205 46.0198 137.918 45.228 137.854 45.0528C137.845 45.0372 137.838 45.0203 137.833 45.0027C137.801 44.8993 137.77 44.7956 137.734 44.6947C134.232 39.8913 130.217 41.4627 130.048 41.5325C128.751 42.0882 128.534 44.1909 128.304 46.4169C128.277 46.6771 128.25 46.9386 128.221 47.2002C127.923 49.8884 125.72 51.1237 125.626 51.1749C125.595 51.1915 125.562 51.202 125.527 51.205C125.289 51.227 125.049 51.3019 124.833 51.4212C124.374 51.6888 124.025 52.1923 123.904 52.7659C123.793 53.2945 123.869 53.8959 124.117 54.4593C124.459 55.2393 125.107 55.8864 125.893 56.2357C126.531 56.5244 127.265 56.604 127.961 56.4617C128.074 56.4394 128.19 56.4959 128.241 56.601C128.606 57.3623 129.089 58.0416 129.68 58.6203C129.687 58.6284 129.695 58.6376 129.703 58.6471Z" fill="#292953"/>
<path d="M136.698 63.5063C136.585 63.5063 136.471 63.5022 136.356 63.4944C132.918 63.2603 130.014 59.635 129.892 59.4808C129.812 59.3795 129.821 59.2345 129.912 59.1433C130.003 59.0519 130.149 59.0444 130.249 59.124C132.486 60.8987 135.179 60.8875 135.202 60.8882C136.775 60.8682 137.86 60.5575 138.258 60.0137C138.414 59.7996 138.674 59.3066 138.953 58.6954C139.001 58.5921 139.113 58.5338 139.223 58.5501C139.335 58.5673 139.422 58.6568 139.436 58.7693C139.537 59.5689 139.84 60.545 140.337 61.6702C140.381 61.7681 140.358 61.882 140.281 61.9562C139.21 62.9858 138.006 63.5063 136.698 63.5063ZM131.631 60.5603C132.773 61.5997 134.523 62.8608 136.392 62.9875C137.633 63.0726 138.777 62.6419 139.8 61.7105C139.469 60.9424 139.227 60.2394 139.077 59.6099C138.916 59.9223 138.775 60.1666 138.669 60.3133C138.034 61.1806 136.437 61.3809 135.208 61.3968C135.118 61.3978 133.467 61.4049 131.631 60.5603Z" fill="#292953"/>
<path d="M96.2067 123.27C96.0766 123.27 95.9675 123.172 95.9539 123.042L95.3041 116.796L90.9794 118.048C90.7548 118.387 89.8678 119.656 88.7981 120.242C87.8833 120.746 86.8493 120.968 86.34 120.767C86.132 120.685 86.05 120.551 86.0175 120.454C85.9772 120.334 85.8538 119.968 87.7681 117.807C87.8173 116.724 88.664 115.909 89.5767 115.188C90.5718 114.399 96.536 110.072 97.1282 109.644C97.6019 108.91 104.324 98.5047 105.358 96.7916C106.4 95.0731 109.984 91.9388 110.452 91.5329L113.655 83.9373C113.709 83.8079 113.858 83.7472 113.987 83.8018C114.116 83.8563 114.177 84.0058 114.123 84.1345L110.897 91.7849C110.882 91.8212 110.858 91.8534 110.829 91.8788C110.789 91.9127 106.842 95.3229 105.792 97.0545C104.723 98.8272 97.6009 109.848 97.5291 109.959C97.5121 109.985 97.4901 110.008 97.465 110.027C97.3996 110.074 90.909 114.78 89.8922 115.587C88.7426 116.494 88.274 117.166 88.274 117.906C88.274 117.969 88.2513 118.029 88.2096 118.075C87.4507 118.928 86.6158 119.99 86.5159 120.304C86.6829 120.393 87.5381 120.356 88.5532 119.796C89.6513 119.195 90.5932 117.71 90.6023 117.695C90.6355 117.642 90.687 117.603 90.747 117.586L95.4545 116.224C95.5267 116.203 95.6046 116.215 95.6669 116.257C95.7293 116.299 95.7699 116.367 95.7777 116.442L96.4316 122.726C96.7061 122.648 97.1265 122.408 97.1631 121.67C97.2248 120.352 97.6507 117.294 97.669 117.165C97.6805 117.083 97.732 117.011 97.8062 116.973C97.8313 116.961 100.302 115.674 100.79 112.426C100.798 112.372 100.823 112.323 100.861 112.284C106.075 107.061 116.054 97.0251 116.504 96.4206C116.828 95.9852 119.102 92.594 122.907 86.8711C122.985 86.7535 123.143 86.7234 123.259 86.7999C123.376 86.8775 123.408 87.0354 123.33 87.1523C120.635 91.2059 117.333 96.157 116.912 96.7235C116.34 97.4919 102.452 111.41 101.279 112.584C100.784 115.66 98.6885 117.053 98.1549 117.361C98.0725 117.962 97.7242 120.548 97.6707 121.695C97.6097 122.931 96.6881 123.267 96.209 123.271C96.2084 123.27 96.2077 123.27 96.2067 123.27Z" fill="#292953"/>
<path d="M166.856 89.0346C166.777 89.0346 166.7 88.9987 166.651 88.9306C166.568 88.8174 166.592 88.6585 166.705 88.5755L175.032 82.4646C175.146 82.3806 175.304 82.4064 175.387 82.5192C175.47 82.6323 175.446 82.7912 175.332 82.8743L167.006 88.9851C166.96 89.0187 166.908 89.0346 166.856 89.0346Z" fill="#292953"/>
<path d="M167.486 105.898C165.896 105.898 164.404 105.748 163.192 105.378C158.462 103.934 151.175 97.3762 150.867 97.098C150.763 97.0038 150.755 96.8429 150.849 96.7388C150.944 96.6342 151.104 96.6274 151.208 96.7206C151.283 96.788 158.718 103.481 163.34 104.892C168.034 106.325 177.448 104.259 179.262 103.302C180.78 102.501 189.721 89.5241 193.098 84.5046C193.104 84.1332 193.157 82.7732 193.625 82.2054C193.753 82.0499 193.92 81.9719 194.117 81.9797C194.554 81.997 195.025 82.4846 195.297 82.8186C196.063 81.8222 196.624 81.3621 196.973 81.4488C197.412 81.5586 197.742 82.4314 197.921 83.0311C198.818 83.2635 203.858 84.5307 206.918 84.5307C210.291 84.5307 230.647 82.4385 230.852 82.4175C230.996 82.4015 231.117 82.5049 231.131 82.6441C231.146 82.7837 231.044 82.9087 230.905 82.923C230.065 83.0094 210.317 85.0389 206.918 85.0389C203.499 85.0389 197.888 83.5491 197.651 83.4858C197.564 83.4627 197.496 83.395 197.472 83.3089C197.297 82.6817 197.012 82.0529 196.86 81.9496C196.649 82.018 196.03 82.675 195.503 83.3909C195.455 83.4566 195.38 83.501 195.296 83.4946C195.214 83.4935 195.137 83.4532 195.09 83.3861C194.842 83.0297 194.353 82.4981 194.096 82.4879C194.073 82.4876 194.05 82.4893 194.017 82.5289C193.68 82.9386 193.605 84.1512 193.605 84.5835C193.605 84.634 193.59 84.6835 193.562 84.7251C193.068 85.4597 181.448 102.723 179.5 103.752C178.057 104.512 172.324 105.898 167.486 105.898Z" fill="#292953"/>
<path d="M127.507 84.7619C127.44 84.7619 127.374 84.7361 127.324 84.6843C127.227 84.5833 127.229 84.4227 127.33 84.3248L132.963 78.8756C133.064 78.7784 133.225 78.7804 133.323 78.8817C133.42 78.9827 133.418 79.1436 133.317 79.2412L127.684 84.6904C127.634 84.7382 127.57 84.7619 127.507 84.7619Z" fill="#292953"/>
<path d="M128.779 84.565C128.691 84.565 128.606 84.5196 128.559 84.4383C128.488 84.317 128.53 84.1614 128.651 84.0913L131.581 82.3932C131.702 82.322 131.858 82.3637 131.929 82.4853C131.999 82.6066 131.957 82.7621 131.836 82.8323L128.906 84.5304C128.866 84.5541 128.822 84.565 128.779 84.565Z" fill="#292953"/>
<path d="M144.799 86.1241C144.749 86.1241 144.7 86.1098 144.656 86.08C144.54 86.0014 144.51 85.8432 144.589 85.727C147.006 82.1704 149.904 78.969 153.203 76.211C153.311 76.1209 153.471 76.1355 153.561 76.2429C153.651 76.3506 153.637 76.5109 153.529 76.601C150.266 79.3288 147.4 82.4954 145.009 86.0129C144.96 86.0851 144.88 86.1241 144.799 86.1241Z" fill="#292953"/>
<path d="M150.557 87.4583C150.556 87.4583 150.554 87.4583 150.552 87.4583C150.412 87.4552 150.3 87.3394 150.303 87.1991C150.4 82.3269 153.18 77.5893 157.385 75.1285C157.506 75.058 157.662 75.098 157.733 75.2196C157.804 75.3406 157.763 75.4964 157.642 75.5672C153.585 77.9406 150.904 82.5102 150.811 87.2089C150.808 87.3478 150.695 87.4583 150.557 87.4583Z" fill="#292953"/>
<path d="M151.007 68.2094C150.964 68.2094 150.921 68.1986 150.881 68.1755L145.89 65.3102C145.769 65.2404 145.727 65.0848 145.796 64.9632C145.866 64.8416 146.022 64.8002 146.143 64.8694L151.134 67.7347C151.255 67.8045 151.297 67.96 151.228 68.0817C151.181 68.1637 151.095 68.2094 151.007 68.2094Z" fill="#292953"/>
<path d="M150.348 66.9553C150.252 66.9553 150.16 66.9005 150.117 66.8076L148.908 64.1879C148.85 64.0605 148.905 63.9097 149.033 63.8508C149.16 63.7915 149.311 63.8477 149.37 63.9751L150.578 66.5945C150.637 66.7219 150.581 66.8727 150.454 66.9316C150.42 66.9479 150.384 66.9553 150.348 66.9553Z" fill="#292953"/>
<path d="M162.892 59.8521C162.851 59.8521 162.809 59.842 162.77 59.821C161.274 58.9997 161.324 56.8587 161.327 56.7679C161.331 56.6276 161.452 56.5155 161.589 56.5223C161.729 56.5263 161.839 56.6436 161.835 56.7838C161.835 56.8028 161.793 58.7053 163.015 59.3754C163.138 59.4432 163.183 59.5973 163.116 59.7203C163.069 59.8047 162.982 59.8521 162.892 59.8521Z" fill="#292953"/>
<path d="M161.482 36.3533C161.351 36.3533 161.241 36.2537 161.229 36.1213C161.225 36.0799 161.115 35.0719 159.985 34.3489C158.79 33.5839 156.566 33.3321 156.543 33.3298C156.43 33.3172 156.339 33.2315 156.32 33.1194C156.318 33.1061 156.094 31.7763 155.898 31.0699C155.721 30.4325 154.873 29.759 154.864 29.7522C154.754 29.6655 154.735 29.5055 154.822 29.3954C154.908 29.285 155.068 29.266 155.179 29.3527C155.219 29.3843 156.166 30.1357 156.387 30.9343C156.547 31.5117 156.719 32.4505 156.789 32.8486C157.377 32.9289 159.166 33.2213 160.259 33.921C161.608 34.7846 161.731 36.025 161.735 36.0775C161.747 36.2175 161.644 36.3405 161.504 36.3527C161.497 36.353 161.489 36.3533 161.482 36.3533Z" fill="#292953"/>
<path d="M159.952 32.189C159.857 32.189 159.75 32.1734 159.628 32.1344C158.98 31.9264 158.753 30.7304 158.686 30.2262C158.628 29.7919 158.969 29.0939 159.039 28.958C159.102 28.833 159.255 28.7836 159.38 28.8469C159.505 28.9106 159.555 29.0634 159.492 29.1884C159.35 29.4676 159.163 29.9531 159.19 30.1588C159.293 30.9337 159.548 31.575 159.784 31.6503C159.874 31.6797 159.998 31.7024 160.079 31.6459C160.151 31.5964 160.18 31.4975 160.183 31.4273C160.192 31.2247 160.115 30.6203 160.084 30.4044C160.065 30.2655 160.162 30.1368 160.3 30.1171C160.439 30.0971 160.568 30.1944 160.588 30.333C160.599 30.4173 160.704 31.1644 160.691 31.4507C160.679 31.7028 160.559 31.9318 160.369 32.0633C160.277 32.1277 160.14 32.189 159.952 32.189Z" fill="#292953"/>
<path d="M158.669 32.5752C158.525 32.5752 158.384 32.5461 158.261 32.4868C157.726 32.2282 157.311 30.6639 157.287 30.1801C157.259 29.6299 157.554 28.8394 157.567 28.8062C157.617 28.6748 157.763 28.6083 157.894 28.6582C158.026 28.7076 158.092 28.8543 158.043 28.9854C157.968 29.1857 157.776 29.7861 157.794 30.1547C157.822 30.7107 158.266 31.9196 158.483 32.029C158.619 32.0951 158.838 32.0721 158.99 31.9748C159.108 31.8999 159.166 31.7966 159.165 31.6682C159.163 31.5279 159.275 31.4124 159.415 31.4103C159.556 31.412 159.671 31.5208 159.673 31.6607C159.677 31.964 159.528 32.2343 159.263 32.4031C159.086 32.5169 158.874 32.5752 158.669 32.5752Z" fill="#292953"/>
<path d="M157.439 32.5572C157.26 32.5572 157.093 32.524 156.941 32.4579C156.502 32.2675 156.358 31.8802 156.343 31.8368C155.409 29.4089 156.081 28.7872 156.225 28.6872C156.34 28.6076 156.498 28.636 156.578 28.7512C156.656 28.8631 156.631 29.0148 156.525 29.0968C156.498 29.1239 156.039 29.6322 156.821 31.663C156.826 31.6779 156.909 31.8934 157.15 31.9947C157.386 32.0937 157.716 32.054 158.105 31.8795C158.233 31.8219 158.383 31.8795 158.441 32.0076C158.498 32.1357 158.441 32.2858 158.313 32.3434C157.995 32.4857 157.703 32.5572 157.439 32.5572Z" fill="#292953"/>
<path d="M88.0198 118.161C87.9578 118.161 87.8955 118.138 87.8467 118.092C87.744 117.997 87.7383 117.836 87.8338 117.733C87.8402 117.727 88.4789 117.042 89.1159 116.392C89.7769 115.718 92.5958 114.596 92.915 114.469C93.0455 114.419 93.1932 114.482 93.2447 114.613C93.2962 114.744 93.2318 114.891 93.1014 114.943C92.2618 115.273 89.9744 116.243 89.4791 116.748C88.8465 117.393 88.2123 118.073 88.2058 118.08C88.1557 118.133 88.0879 118.161 88.0198 118.161Z" fill="#292953"/>
<path d="M135.439 49.9609C135.439 49.9609 135.194 51.059 135.496 52.2652C135.799 53.4711 136.796 54.0498 137.241 53.8814C137.686 53.713 138.407 52.9883 138.184 52.3791C138.184 52.3791 137.902 51.9965 137.466 51.7401C137.03 51.4832 135.439 49.9609 135.439 49.9609Z" fill="#ABABFB"/>
<path d="M136.74 54.463C136.65 54.463 136.563 54.4155 136.517 54.3315C136.449 54.2089 136.494 54.054 136.617 53.9863C137.161 53.6857 137.614 53.2653 137.926 52.7696C138.042 52.5849 137.94 52.3925 137.796 52.2922C136.742 51.5556 135.78 50.7167 134.937 49.7995C134.842 49.6962 134.849 49.5356 134.952 49.4404C135.055 49.3458 135.216 49.3523 135.311 49.4553C136.13 50.3453 137.064 51.1599 138.088 51.8754C138.484 52.1523 138.6 52.653 138.356 53.0403C137.999 53.6085 137.482 54.0896 136.863 54.4315C136.824 54.4528 136.781 54.463 136.74 54.463Z" fill="#292953"/>
<path d="M132.637 50.2717C132.806 50.8369 132.544 51.4139 132.052 51.5609C131.561 51.708 131.025 51.3688 130.857 50.804C130.688 50.2389 130.95 49.6619 131.441 49.5148C131.932 49.3678 132.468 49.7066 132.637 50.2717Z" fill="#292953"/>
<path d="M138.237 48.5973C138.406 49.1624 138.145 49.7394 137.653 49.8865C137.161 50.0335 136.626 49.6944 136.457 49.1295C136.288 48.5644 136.55 47.9874 137.041 47.8404C137.533 47.6936 138.068 48.0325 138.237 48.5973Z" fill="#292953"/>
<path d="M131.053 47.4615C130.453 47.6973 129.917 48.0276 129.436 48.4576C129.349 48.5352 129.302 48.6903 129.304 48.8025C129.307 48.9241 129.365 49.0695 129.46 49.1498C129.554 49.2308 129.677 49.2901 129.805 49.2816C129.943 49.2724 130.049 49.2182 130.152 49.1261C130.178 49.103 130.204 49.081 130.231 49.0583C130.53 48.8174 130.857 48.6148 131.206 48.4535C131.249 48.4352 131.291 48.4166 131.334 48.3996C131.458 48.3512 131.56 48.2831 131.625 48.1631C131.682 48.0574 131.704 47.9057 131.663 47.7905C131.581 47.557 131.309 47.3612 131.053 47.4615Z" fill="#292953"/>
<path d="M135.686 46.077C136.318 45.9445 136.947 45.9269 137.586 46.0217C137.7 46.039 137.825 46.1427 137.885 46.2376C137.949 46.3406 137.98 46.4944 137.946 46.6133C137.911 46.7329 137.841 46.8498 137.73 46.9128C137.609 46.9809 137.491 46.9938 137.354 46.9735C137.32 46.9684 137.285 46.9647 137.251 46.9603C136.869 46.923 136.484 46.9332 136.104 46.9897C136.059 46.9979 136.013 47.0057 135.967 47.0152C135.838 47.0423 135.714 47.0416 135.595 46.9769C135.489 46.9196 135.388 46.8047 135.358 46.6862C135.297 46.4466 135.418 46.1332 135.686 46.077Z" fill="#292953"/>
<path d="M127.413 56.0722C127.312 56.0722 127.217 56.0119 127.177 55.9126C126.723 54.7806 125.773 53.8417 124.636 53.4009C124.505 53.3505 124.44 53.2031 124.491 53.0723C124.541 52.9412 124.689 52.8758 124.819 52.9273C126.085 53.4179 127.143 54.4631 127.649 55.7235C127.701 55.854 127.638 56.0017 127.507 56.0542C127.477 56.0661 127.444 56.0722 127.413 56.0722Z" fill="#292953"/>
<path d="M135.454 58.6558C135.324 58.6558 135.203 58.6266 135.095 58.5538C134.888 58.4152 134.783 58.153 134.775 57.7522C134.748 56.4365 135.538 55.2019 136.572 54.9414C137.018 54.8285 137.461 54.917 137.82 55.1904C138.287 55.5472 138.564 56.174 138.579 56.9105C138.6 57.9433 138.155 58.0635 137.526 58.1208C137.347 58.1371 137.145 58.1554 136.928 58.2102C136.721 58.2624 136.509 58.3448 136.304 58.4244C136.002 58.5423 135.71 58.6558 135.454 58.6558ZM136.95 55.4015C136.867 55.4015 136.782 55.4123 136.696 55.434C135.895 55.6359 135.261 56.671 135.283 57.7417C135.289 58.0568 135.363 58.1215 135.377 58.1313C135.48 58.2004 135.85 58.0561 136.119 57.9511C136.328 57.8697 136.565 57.7776 136.803 57.7176C137.059 57.6529 137.292 57.6319 137.479 57.6146C137.991 57.5682 138.083 57.5597 138.07 56.9207C138.059 56.34 137.855 55.8565 137.511 55.5943C137.344 55.4665 137.153 55.4015 136.95 55.4015Z" fill="#292953"/>
<path d="M131.211 55.9192C132.156 55.9192 132.922 55.1535 132.922 54.2089C132.922 53.2643 132.156 52.4985 131.211 52.4985C130.267 52.4985 129.501 53.2643 129.501 54.2089C129.501 55.1535 130.267 55.9192 131.211 55.9192Z" fill="#ABABFB"/>
<path d="M141.445 47.1147L141.516 47.4312C141.789 48.6489 141.014 49.8707 139.796 50.1434L138.504 50.4328L128.914 52.5798C127.696 52.8526 126.474 52.0777 126.201 50.86L126.13 50.5436L141.445 47.1147Z" fill="white"/>
<path d="M140.757 44.0396L141.445 47.1146L126.131 50.5434L125.442 47.4684L140.757 44.0396ZM140.459 46.2263C140.555 46.0762 140.594 45.8874 140.551 45.697C140.468 45.3257 140.088 45.0848 139.714 45.1688L127.3 47.9481C127.11 47.9908 126.958 48.1026 126.86 48.2537C126.766 48.4103 126.726 48.5956 126.768 48.783C126.853 49.1607 127.228 49.3989 127.606 49.3146L140.02 46.5353C140.207 46.4932 140.361 46.3808 140.459 46.2263Z" fill="#292953"/>
<path d="M140.685 43.72L140.757 44.0399L125.442 47.4687L125.371 47.1489C125.098 45.9312 125.873 44.7094 127.09 44.4366L136.681 42.2892L137.973 41.9999C139.191 41.7275 140.412 42.502 140.685 43.72Z" fill="white"/>
<path d="M140.551 45.697C140.594 45.8878 140.555 46.0762 140.459 46.2263C140.361 46.3804 140.207 46.4932 140.02 46.5349L127.606 49.3142C127.228 49.3989 126.852 49.1607 126.768 48.7826C126.725 48.5953 126.765 48.4099 126.859 48.2534C126.958 48.1023 127.109 47.9905 127.3 47.9478L139.714 45.1685C140.088 45.0848 140.468 45.3257 140.551 45.697Z" fill="#9CD9D3"/>
<path d="M125.798 44.7259L127.09 44.4365C125.873 44.7093 125.098 45.9307 125.371 47.1487L125.442 47.4686L126.13 50.5437L126.201 50.8601C126.474 52.0778 127.695 52.8527 128.914 52.5799L127.622 52.8693C126.404 53.142 125.182 52.3672 124.909 51.1495L124.635 49.9219L124.262 48.2584L124.079 47.4377C123.806 46.22 124.58 44.9983 125.798 44.7259Z" fill="white"/>
<path d="M124.261 48.2555L118.612 49.5205L118.984 51.1838L124.634 49.9188L124.261 48.2555Z" fill="white"/>
<path d="M128.418 52.889C127.944 52.889 127.479 52.7545 127.067 52.4933C126.496 52.1311 126.1 51.5707 125.953 50.9154L125.882 50.5986C125.868 50.5329 125.879 50.4638 125.916 50.4072C125.952 50.3499 126.009 50.3099 126.075 50.295L141.389 46.8662C141.455 46.852 141.524 46.8638 141.581 46.8998C141.638 46.936 141.678 46.9929 141.693 47.059L141.763 47.3755C141.91 48.0307 141.792 48.706 141.429 49.2776C141.067 49.8488 140.506 50.2445 139.851 50.3912L128.968 52.8277C128.786 52.869 128.601 52.889 128.418 52.889ZM126.434 50.7358L126.45 50.8046C126.693 51.8898 127.774 52.5749 128.858 52.332L139.741 49.8956C140.826 49.6526 141.511 48.5718 141.268 47.4869L141.253 47.4185L126.434 50.7358Z" fill="#292953"/>
<path d="M126.131 50.7974C126.014 50.7974 125.909 50.7171 125.883 50.5989L125.194 47.5238C125.179 47.4581 125.191 47.3889 125.228 47.332C125.264 47.2751 125.321 47.2348 125.387 47.2202L140.701 43.7914C140.838 43.7606 140.974 43.847 141.005 43.9838L141.693 47.0589C141.708 47.1247 141.696 47.1938 141.659 47.2507C141.624 47.3076 141.566 47.3479 141.501 47.3625L126.186 50.7913C126.167 50.7957 126.149 50.7974 126.131 50.7974ZM125.746 47.6607L126.323 50.2401L141.141 46.9224L140.564 44.343L125.746 47.6607ZM127.451 49.5858C127.272 49.5858 127.096 49.535 126.941 49.4367C126.725 49.2999 126.575 49.0874 126.52 48.8384C126.466 48.5982 126.509 48.3441 126.642 48.1232C126.785 47.9029 126.998 47.7555 127.245 47.7003L139.658 44.921C140.174 44.8062 140.685 45.1294 140.8 45.6417C140.855 45.8917 140.811 46.1475 140.674 46.3627C140.538 46.5782 140.325 46.7276 140.075 46.7831L127.662 49.5624C127.592 49.578 127.521 49.5858 127.451 49.5858ZM139.864 45.4062C139.833 45.4062 139.801 45.4096 139.769 45.4167L127.355 48.196C127.236 48.2228 127.139 48.2905 127.072 48.3925C127.031 48.4609 126.983 48.5829 127.016 48.7273C127.042 48.8438 127.112 48.9434 127.213 49.0075C127.314 49.0715 127.434 49.0925 127.55 49.0664L139.964 46.2871C140.081 46.261 140.181 46.1909 140.245 46.0903C140.309 45.9896 140.329 45.8697 140.303 45.7521C140.257 45.5488 140.068 45.4062 139.864 45.4062Z" fill="#292953"/>
<path d="M125.442 47.7223C125.394 47.7223 125.347 47.7088 125.306 47.6827C125.249 47.6464 125.209 47.5895 125.194 47.5234L125.122 47.2036C124.819 45.845 125.676 44.4924 127.035 44.1882L137.918 41.7517C138.573 41.605 139.248 41.7236 139.82 42.0861C140.391 42.4483 140.787 43.0091 140.933 43.664L141.005 43.9842C141.035 44.1211 140.949 44.2569 140.812 44.2878L125.498 47.7166C125.479 47.7203 125.461 47.7223 125.442 47.7223ZM138.468 42.1993C138.321 42.1993 138.174 42.2152 138.028 42.2481L127.146 44.6845C126.623 44.8014 126.176 45.1175 125.886 45.5742C125.596 46.031 125.501 46.5704 125.618 47.0928L125.634 47.1646L140.453 43.847L140.437 43.7751C140.319 43.2523 140.004 42.8051 139.547 42.5154C139.218 42.3067 138.846 42.1993 138.468 42.1993Z" fill="#292953"/>
<path d="M127.451 49.5859C127.272 49.5859 127.096 49.5351 126.941 49.4369C126.725 49.3 126.575 49.0875 126.52 48.8385C126.466 48.5983 126.509 48.3442 126.641 48.1233C126.785 47.903 126.998 47.7557 127.245 47.7004L139.658 44.9211C140.174 44.8063 140.685 45.1295 140.8 45.6418V45.6421C140.855 45.8918 140.811 46.1476 140.674 46.3628C140.538 46.5783 140.325 46.7277 140.075 46.7833L127.662 49.5626C127.591 49.5781 127.521 49.5859 127.451 49.5859ZM139.864 45.4063C139.833 45.4063 139.801 45.4097 139.769 45.4168L127.355 48.1961C127.236 48.2229 127.138 48.2906 127.072 48.3926C127.031 48.4611 126.983 48.583 127.016 48.7274C127.042 48.8439 127.112 48.9435 127.213 49.0076C127.314 49.0716 127.434 49.0926 127.55 49.0665L139.964 46.2872C140.081 46.2611 140.181 46.191 140.245 46.0904C140.309 45.9898 140.329 45.8702 140.303 45.7526C140.257 45.549 140.068 45.4063 139.864 45.4063Z" fill="#292953"/>
<path d="M127.126 53.1782C126.652 53.1782 126.187 53.0437 125.775 52.7828C125.204 52.4203 124.808 51.8599 124.661 51.2049L123.83 47.4935C123.684 46.8383 123.803 46.1627 124.165 45.5914C124.527 45.0202 125.088 44.6245 125.743 44.4777L127.034 44.1887C127.034 44.1887 127.035 44.1887 127.035 44.1887C127.17 44.1582 127.308 44.2446 127.338 44.3812C127.369 44.5181 127.283 44.6543 127.146 44.6848H127.145C126.623 44.802 126.176 45.1178 125.886 45.5742C125.597 46.0309 125.502 46.5703 125.619 47.0927L126.45 50.8044C126.567 51.3272 126.883 51.7745 127.339 52.0642C127.796 52.3535 128.336 52.4494 128.858 52.3318C128.995 52.3013 129.131 52.3874 129.162 52.5243C129.192 52.6612 129.106 52.797 128.969 52.8278C128.969 52.8278 128.969 52.8278 128.968 52.8282L127.677 53.1175C127.494 53.1582 127.309 53.1782 127.126 53.1782ZM125.654 45.0293C125.217 45.1754 124.846 45.4664 124.594 45.8635C124.305 46.3202 124.209 46.8596 124.327 47.3824L125.158 51.0938C125.385 52.1109 126.349 52.7736 127.361 52.6564C126.672 52.3376 126.132 51.7128 125.954 50.9159L125.123 47.2042C124.944 46.407 125.166 45.6118 125.654 45.0293Z" fill="#292953"/>
<path d="M118.985 51.4409C118.868 51.4409 118.764 51.3606 118.737 51.2424L118.365 49.5788C118.334 49.4419 118.42 49.3057 118.557 49.2752L124.207 48.0104C124.273 47.9958 124.342 48.008 124.399 48.044C124.456 48.0802 124.496 48.1371 124.511 48.2029L124.883 49.8664C124.914 50.0033 124.827 50.1395 124.691 50.17L119.041 51.4348C119.022 51.4389 119.003 51.4409 118.985 51.4409ZM118.916 49.7157L119.177 50.8832L124.331 49.7296L124.07 48.5617L118.916 49.7157Z" fill="#292953"/>
<path d="M113.388 44.2237C112.861 44.2237 112.463 44.0842 112.227 43.7789C111.47 42.8004 112.86 40.737 114.159 39.1785C115.923 37.0626 118.548 34.6173 121.551 32.2927C127.073 28.0186 133.666 24.4119 135.008 26.1459C136.35 27.88 131.206 33.3579 125.684 37.6321C121.134 41.1544 115.855 44.2237 113.388 44.2237ZM133.858 26.1981C131.991 26.1981 127.292 28.4922 121.863 32.6945C118.888 34.9971 116.291 37.4153 114.55 39.5037C112.643 41.7917 112.307 43.0514 112.629 43.4678C113.46 44.5405 118.897 42.2424 125.373 37.2299C131.848 32.2178 135.436 27.53 134.607 26.457C134.472 26.2835 134.218 26.1981 133.858 26.1981Z" fill="#292953"/>
<path d="M115.482 39.1184C115.009 39.1184 114.554 39.1082 114.12 39.0879C112.093 38.993 109.633 38.6237 109.423 37.404C109.051 35.243 116.165 32.8191 123.046 31.6356C126.788 30.9919 130.365 30.709 133.117 30.8374C135.144 30.9323 137.604 31.3016 137.814 32.5213C138.185 34.6823 131.072 37.1061 124.19 38.2896C121.039 38.8317 118.005 39.1184 115.482 39.1184ZM131.752 31.3155C129.259 31.3155 126.256 31.5994 123.132 32.1367C115.062 33.5245 109.693 35.9813 109.924 37.3179C110.013 37.8366 111.168 38.4407 114.143 38.58C116.86 38.706 120.397 38.4258 124.104 37.7885C132.175 36.4007 137.543 33.944 137.313 32.607C137.224 32.0883 136.068 31.4845 133.093 31.3449C132.665 31.3253 132.217 31.3155 131.752 31.3155Z" fill="#292953"/>
<path d="M118.582 42.1969C117.174 43.4624 117.933 45.4424 118.008 45.6271C117.938 45.456 117.095 43.499 115.195 43.583C116.607 42.308 115.839 40.3239 115.769 40.1528C115.844 40.3375 116.689 42.2786 118.582 42.1969Z" fill="white"/>
<path d="M118.008 45.8812C117.908 45.8812 117.813 45.8215 117.773 45.7233C117.773 45.7229 117.773 45.7229 117.773 45.7229C117.773 45.7226 117.773 45.7226 117.773 45.7226C117.689 45.5186 116.92 43.7683 115.206 43.8368C115.096 43.8449 115 43.7785 114.959 43.6796C114.919 43.5803 114.944 43.4664 115.024 43.3946C116.297 42.2457 115.617 40.455 115.533 40.2504C115.533 40.2501 115.533 40.2497 115.533 40.2494C115.48 40.1196 115.542 39.9712 115.672 39.918C115.803 39.8645 115.95 39.9275 116.004 40.0569C116.004 40.0566 116.004 40.0573 116.004 40.0569C116.086 40.2579 116.859 42.0299 118.571 41.9431C118.679 41.9418 118.777 42.0017 118.817 42.101C118.858 42.2003 118.832 42.3141 118.752 42.386C117.48 43.5284 118.157 45.3198 118.243 45.5291C118.243 45.5295 118.243 45.5302 118.243 45.5305C118.243 45.5308 118.243 45.5308 118.243 45.5308C118.297 45.6606 118.234 45.809 118.104 45.8622C118.073 45.8754 118.04 45.8812 118.008 45.8812ZM115.743 43.3584C116.509 43.4759 117.08 43.8991 117.483 44.3429C117.459 43.7439 117.57 43.0412 118.033 42.4209C117.267 42.3026 116.696 41.8794 116.293 41.4359C116.317 42.0346 116.206 42.737 115.743 43.3584Z" fill="#292953"/>
<path d="M128.202 28.2565C126.794 29.5219 127.553 31.502 127.628 31.6866C127.559 31.5155 126.715 29.5585 124.815 29.6426C126.227 28.3676 125.459 26.3835 125.389 26.2124C125.464 26.3971 126.309 28.3378 128.202 28.2565Z" fill="white"/>
<path d="M127.629 31.9406C127.528 31.9406 127.434 31.881 127.393 31.7827C127.393 31.7827 127.393 31.782 127.393 31.7817C127.309 31.577 126.534 29.8203 124.826 29.8962C124.713 29.8999 124.62 29.8379 124.579 29.739C124.539 29.6397 124.565 29.5259 124.644 29.454C125.917 28.3051 125.237 26.5145 125.153 26.3098C125.153 26.3095 125.153 26.3092 125.153 26.3088C125.1 26.179 125.162 26.0306 125.292 25.9775C125.423 25.9243 125.57 25.9869 125.624 26.1164C125.624 26.116 125.624 26.1167 125.624 26.1164C125.706 26.3173 126.48 28.0808 128.191 28.0029C128.301 27.9995 128.397 28.0615 128.437 28.1608C128.478 28.2601 128.452 28.3739 128.372 28.4457C127.096 29.5916 127.781 31.3893 127.864 31.5906C127.917 31.7204 127.854 31.8688 127.725 31.922C127.693 31.9348 127.661 31.9406 127.629 31.9406ZM125.363 29.4178C126.129 29.5354 126.7 29.9585 127.103 30.4024C127.079 29.8037 127.19 29.101 127.653 28.4806C126.887 28.3624 126.316 27.9392 125.913 27.4957C125.937 28.094 125.826 28.7964 125.363 29.4178Z" fill="#292953"/>
<path d="M136.722 34.1243C135.313 35.3898 136.072 37.3698 136.148 37.5545C136.078 37.3834 135.234 35.4264 133.334 35.5104C134.747 34.2354 133.978 32.2513 133.908 32.0806C133.984 32.2645 134.829 34.2056 136.722 34.1243Z" fill="white"/>
<path d="M136.148 37.8084C136.048 37.8084 135.953 37.7488 135.913 37.6505C135.913 37.6502 135.912 37.6499 135.912 37.6495C135.829 37.4449 135.053 35.6898 133.345 35.764C133.232 35.7701 133.139 35.7057 133.099 35.6068C133.058 35.5075 133.084 35.3937 133.164 35.3219C134.436 34.1729 133.757 32.3823 133.673 32.1776C133.673 32.1773 133.673 32.177 133.673 32.1766C133.62 32.0469 133.682 31.8985 133.812 31.8453C133.942 31.7917 134.09 31.8548 134.143 31.9842C134.143 31.9838 134.143 31.9845 134.143 31.9842C134.225 32.1851 134.998 33.9547 136.711 33.8707C136.82 33.8687 136.917 33.9293 136.957 34.0286C136.998 34.1279 136.972 34.2417 136.892 34.3135C135.616 35.4594 136.301 37.2568 136.383 37.4584C136.436 37.5882 136.374 37.7366 136.244 37.7898C136.213 37.8027 136.18 37.8084 136.148 37.8084ZM133.882 35.2856C134.648 35.4032 135.22 35.8263 135.623 36.2702C135.599 35.6715 135.709 34.9688 136.173 34.3484C135.407 34.2302 134.836 33.807 134.433 33.3635C134.457 33.9618 134.346 34.6642 133.882 35.2856Z" fill="#292953"/>
<path d="M117.634 31.6443C117.634 32.1868 117.194 32.6266 116.652 32.6266C116.109 32.6266 115.669 32.1868 115.669 31.6443C115.669 31.1019 116.109 30.6621 116.652 30.6621C117.194 30.6621 117.634 31.1019 117.634 31.6443Z" fill="#7770FA"/>
<path d="M110.443 41.1563C110.894 41.1563 111.261 40.7901 111.261 40.3384C111.261 39.8867 110.894 39.5205 110.443 39.5205C109.991 39.5205 109.625 39.8867 109.625 40.3384C109.625 40.7901 109.991 41.1563 110.443 41.1563Z" fill="#7770FA"/>
<path d="M125.984 34.8175C126.274 34.8175 126.509 34.5827 126.509 34.293C126.509 34.0034 126.274 33.7686 125.984 33.7686C125.694 33.7686 125.46 34.0034 125.46 34.293C125.46 34.5827 125.694 34.8175 125.984 34.8175Z" fill="#7770FA"/>
<path d="M137.262 28.9491C137.262 29.4408 136.864 29.8392 136.372 29.8392C135.881 29.8392 135.483 29.4408 135.483 28.9491C135.483 28.4575 135.881 28.0591 136.372 28.0591C136.864 28.0594 137.262 28.4579 137.262 28.9491Z" fill="#7770FA"/>
<path d="M132.974 23.9793C132.974 24.2852 132.726 24.5336 132.42 24.5336C132.114 24.5336 131.866 24.2855 131.866 23.9793C131.866 23.6733 132.114 23.4253 132.42 23.4253C132.726 23.4253 132.974 23.6733 132.974 23.9793Z" fill="#7770FA"/>
<path d="M194.299 111.098C192.515 111.736 192.468 113.856 192.468 114.055C192.468 113.871 192.428 111.74 190.638 111.098C192.428 110.453 192.468 108.326 192.468 108.141C192.468 108.34 192.515 110.457 194.299 111.098Z" fill="white"/>
<path d="M192.468 114.309C192.328 114.309 192.214 114.196 192.214 114.055C192.214 113.838 192.167 111.916 190.552 111.338C190.451 111.302 190.384 111.206 190.384 111.099C190.384 110.992 190.451 110.896 190.552 110.859C192.168 110.277 192.214 108.358 192.214 108.141C192.214 108.001 192.328 107.887 192.468 107.887C192.608 107.887 192.722 108.001 192.722 108.141C192.722 108.358 192.769 110.278 194.384 110.859C194.485 110.896 194.552 110.992 194.552 111.099C194.552 111.206 194.485 111.302 194.384 111.338C192.769 111.915 192.722 113.838 192.722 114.055C192.722 114.196 192.608 114.309 192.468 114.309ZM191.23 111.098C191.895 111.497 192.263 112.105 192.468 112.668C192.672 112.105 193.041 111.497 193.705 111.098C193.041 110.698 192.672 110.09 192.468 109.527C192.263 110.09 191.895 110.698 191.23 111.098Z" fill="#292953"/>
<path d="M142.656 134.357H113.127L113.121 126.847L113.101 104.899L113.098 102.101H142.627L142.644 121.631L142.646 124.999L142.656 134.357Z" fill="#292953"/>
<path d="M144.171 135.705H114.642L114.637 128.195L114.617 106.247L114.614 103.448H144.143L144.159 122.978L144.161 126.347L144.171 135.705Z" fill="#70C4BC"/>
<path d="M145.903 136.981H116.374L116.369 129.471L116.349 107.523L116.346 104.725H145.875L145.891 124.255L145.893 127.623L145.903 136.981Z" fill="white"/>
<path d="M144.649 126.724H117.611L117.613 125.627H144.651L144.649 126.724Z" fill="#C4E4E6"/>
<path d="M140.047 130.2H117.616L117.613 129.103H140.044L140.047 130.2Z" fill="#C4E4E6"/>
<path d="M140.048 132.579H117.618V133.671H140.048V132.579Z" fill="#C4E4E6"/>
<path d="M143.078 114.875C143.083 118.073 140.48 120.677 137.282 120.677C137.038 120.677 136.79 120.662 136.547 120.628C136.533 120.628 136.523 120.628 136.51 120.623C135.933 120.54 135.339 120.365 134.754 120.101C133.756 119.648 132.409 118.751 131.128 117.001C129.513 119.243 127.735 120.14 126.428 120.491C125.949 120.613 125.459 120.677 124.967 120.677C121.764 120.677 119.161 118.073 119.16 114.875C119.156 111.672 121.755 109.069 124.958 109.069C125.201 109.069 125.45 109.083 125.692 109.118C125.707 109.118 125.717 109.118 125.73 109.122C126.311 109.205 126.899 109.386 127.484 109.649C128.482 110.102 129.831 110.994 131.111 112.745C132.726 110.502 134.506 109.6 135.811 109.254C136.292 109.127 136.78 109.069 137.268 109.069C140.471 109.069 143.079 111.672 143.078 114.875ZM136.846 118.4C138.984 118.668 140.83 116.971 140.831 114.875C140.829 112.915 139.228 111.321 137.273 111.321C136.971 111.321 136.675 111.36 136.383 111.433C135.323 111.716 133.795 112.549 132.409 114.865C133.563 116.776 134.804 117.654 135.681 118.049C136.173 118.268 136.581 118.361 136.841 118.4H136.846ZM125.857 118.312C126.918 118.029 128.445 117.196 129.829 114.885C128.679 112.964 127.429 112.097 126.557 111.701C126.067 111.477 125.653 111.389 125.398 111.35C125.393 111.35 125.393 111.35 125.393 111.35C125.248 111.331 125.1 111.321 124.959 111.321C122.999 111.321 121.407 112.915 121.408 114.875C121.411 116.83 123.006 118.43 124.966 118.43C125.267 118.429 125.563 118.39 125.857 118.312Z" fill="#7770FA"/>
<path d="M145.903 137.235H116.374C116.234 137.235 116.12 137.122 116.12 136.982L116.092 104.725C116.092 104.658 116.118 104.593 116.166 104.545C116.214 104.497 116.278 104.471 116.346 104.471H145.875C146.015 104.471 146.129 104.584 146.129 104.724L146.157 136.981C146.157 137.048 146.131 137.113 146.083 137.161C146.036 137.208 145.971 137.235 145.903 137.235ZM116.628 136.727H145.649L145.62 104.979H116.6L116.628 136.727Z" fill="#292953"/>
<path d="M182.086 123.56H155.464V141.055H182.086V123.56Z" fill="white"/>
<path d="M182.086 141.309H155.464C155.323 141.309 155.21 141.195 155.21 141.055V123.56C155.21 123.42 155.323 123.306 155.464 123.306H182.086C182.226 123.306 182.34 123.42 182.34 123.56V141.055C182.34 141.195 182.226 141.309 182.086 141.309ZM155.718 140.801H181.832V123.814H155.718V140.801Z" fill="#292953"/>
<path d="M168.775 134.97C168.717 134.97 168.659 134.95 168.612 134.911L155.3 123.755C155.193 123.664 155.179 123.504 155.269 123.396C155.359 123.289 155.519 123.275 155.627 123.365L168.775 134.384L181.923 123.365C182.031 123.275 182.191 123.288 182.281 123.396C182.371 123.504 182.357 123.664 182.249 123.755L168.938 134.911C168.891 134.95 168.833 134.97 168.775 134.97Z" fill="#292953"/>
<path d="M155.464 141.309C155.393 141.309 155.322 141.279 155.272 141.221C155.18 141.115 155.191 140.955 155.297 140.863L165.551 131.962C165.657 131.87 165.817 131.881 165.91 131.987C166.001 132.093 165.99 132.253 165.884 132.346L155.631 141.247C155.582 141.289 155.523 141.309 155.464 141.309Z" fill="#292953"/>
<path d="M182.086 141.309C182.027 141.309 181.968 141.289 181.92 141.247L171.666 132.346C171.56 132.253 171.549 132.093 171.641 131.987C171.733 131.881 171.894 131.87 171.999 131.962L182.253 140.863C182.359 140.955 182.37 141.115 182.278 141.221C182.228 141.279 182.157 141.309 182.086 141.309Z" fill="#292953"/>
<path d="M156.107 128.043C158.583 128.043 160.591 126.036 160.591 123.56C160.591 121.084 158.583 119.077 156.107 119.077C153.631 119.077 151.624 121.084 151.624 123.56C151.624 126.036 153.631 128.043 156.107 128.043Z" fill="#7770FA"/>
<path d="M206.026 43.3003V54.3321C206.026 55.231 206.762 55.9703 207.661 55.9703H213.275L211.717 60.7686L218.443 55.9703H239.741C240.644 55.9703 241.379 55.231 241.379 54.3321V43.3003C241.379 42.4014 240.644 41.6621 239.741 41.6621H207.661C206.762 41.6624 206.026 42.4017 206.026 43.3003Z" fill="#ABABFB"/>
<path d="M223.703 30.8242V41.856C223.703 42.7549 222.968 43.4942 222.069 43.4942H216.455L218.013 48.2925L211.287 43.4942H200.861C199.958 43.4942 199.222 42.7549 199.222 41.856V30.8242C199.222 29.9253 199.958 29.186 200.861 29.186H222.069C222.967 29.186 223.703 29.9253 223.703 30.8242Z" fill="white"/>
<path d="M218.013 48.5463C217.962 48.5463 217.91 48.5307 217.866 48.4989L211.206 43.7477H200.861C199.817 43.7477 198.968 42.899 198.968 41.8554V30.8239C198.968 29.7804 199.817 28.9316 200.861 28.9316H222.069C223.11 28.9316 223.957 29.7804 223.957 30.8239V41.8554C223.957 42.8986 223.11 43.7477 222.069 43.7477H216.805L218.255 48.2136C218.289 48.318 218.252 48.4321 218.163 48.4969C218.119 48.5301 218.066 48.5463 218.013 48.5463ZM200.861 29.4402C200.097 29.4402 199.476 30.0609 199.476 30.8243V41.8557C199.476 42.6188 200.097 43.2398 200.861 43.2398H211.287C211.34 43.2398 211.392 43.2564 211.434 43.2872L217.533 47.638L216.213 43.5725C216.188 43.4953 216.201 43.4106 216.249 43.3448C216.297 43.2791 216.373 43.2401 216.455 43.2401H222.068C222.829 43.2401 223.448 42.6191 223.448 41.8561V30.8246C223.448 30.0612 222.829 29.4405 222.068 29.4405L200.861 29.4402Z" fill="#292953"/>
<path d="M205.172 35.5713C206.149 34.5943 206.149 33.0102 205.172 32.0332C204.195 31.0562 202.611 31.0562 201.634 32.0332C200.657 33.0102 200.657 34.5943 201.634 35.5713C202.611 36.5483 204.195 36.5483 205.172 35.5713Z" fill="#7770FA"/>
<path d="M221.958 32.5425H207.115V33.2476H221.958V32.5425Z" fill="#7770FA"/>
<path d="M221.958 40.0142H200.932V40.7192H221.958V40.0142Z" fill="#C4E4E6"/>
<path d="M221.975 37.4961H200.95V38.2012H221.975V37.4961Z" fill="#C4E4E6"/>
<path d="M221.958 34.9771H207.115V35.6821H221.958V34.9771Z" fill="#C4E4E6"/>
<path d="M98.1968 73.0931C98.8626 73.0931 99.4023 72.5534 99.4023 71.8876C99.4023 71.2219 98.8626 70.6821 98.1968 70.6821C97.5311 70.6821 96.9913 71.2219 96.9913 71.8876C96.9913 72.5534 97.5311 73.0931 98.1968 73.0931Z" fill="#292953"/>
<path d="M104.02 73.0931C104.685 73.0931 105.225 72.5534 105.225 71.8876C105.225 71.2219 104.685 70.6821 104.02 70.6821C103.354 70.6821 102.814 71.2219 102.814 71.8876C102.814 72.5534 103.354 73.0931 104.02 73.0931Z" fill="#292953"/>
<path d="M98.1968 78.9159C98.8626 78.9159 99.4023 78.3762 99.4023 77.7104C99.4023 77.0446 98.8626 76.5049 98.1968 76.5049C97.5311 76.5049 96.9913 77.0446 96.9913 77.7104C96.9913 78.3762 97.5311 78.9159 98.1968 78.9159Z" fill="#292953"/>
<path d="M96.9916 83.5336C96.9916 82.8679 97.5313 82.3281 98.1971 82.3281C98.8629 82.3281 99.4026 82.8679 99.4026 83.5336C99.4026 84.1994 98.8629 84.7391 98.1971 84.7391C97.531 84.7391 96.9916 84.1994 96.9916 83.5336Z" fill="#292953"/>
<path d="M98.1968 90.5619C98.8626 90.5619 99.4023 90.0222 99.4023 89.3564C99.4023 88.6906 98.8626 88.1509 98.1968 88.1509C97.5311 88.1509 96.9913 88.6906 96.9913 89.3564C96.9913 90.0222 97.5311 90.5619 98.1968 90.5619Z" fill="#292953"/>
<path d="M104.02 78.9159C104.685 78.9159 105.225 78.3762 105.225 77.7104C105.225 77.0446 104.685 76.5049 104.02 76.5049C103.354 76.5049 102.814 77.0446 102.814 77.7104C102.814 78.3762 103.354 78.9159 104.02 78.9159Z" fill="#292953"/>
<path d="M102.814 83.5336C102.814 82.8679 103.354 82.3281 104.02 82.3281C104.686 82.3281 105.225 82.8679 105.225 83.5336C105.225 84.1994 104.686 84.7391 104.02 84.7391C103.354 84.7391 102.814 84.1994 102.814 83.5336Z" fill="#292953"/>
<path d="M104.02 90.5619C104.685 90.5619 105.225 90.0222 105.225 89.3564C105.225 88.6906 104.685 88.1509 104.02 88.1509C103.354 88.1509 102.814 88.6906 102.814 89.3564C102.814 90.0222 103.354 90.5619 104.02 90.5619Z" fill="#292953"/>
<path d="M204.971 118.482C203.188 119.12 203.14 121.24 203.14 121.439C203.14 121.254 203.1 119.123 201.31 118.482C203.1 117.836 203.14 115.709 203.14 115.524C203.14 115.724 203.188 117.84 204.971 118.482Z" fill="white"/>
<path d="M203.14 121.693C203 121.693 202.886 121.579 202.886 121.439C202.886 121.221 202.84 119.299 201.224 118.72C201.123 118.684 201.056 118.589 201.056 118.482C201.056 118.374 201.123 118.278 201.224 118.242C202.84 117.66 202.886 115.741 202.886 115.524C202.886 115.383 203 115.27 203.14 115.27C203.281 115.27 203.395 115.383 203.395 115.524C203.395 115.741 203.441 117.661 205.056 118.242C205.157 118.278 205.224 118.374 205.224 118.482C205.224 118.589 205.157 118.684 205.056 118.72C203.441 119.298 203.395 121.221 203.395 121.439C203.395 121.579 203.281 121.693 203.14 121.693ZM201.902 118.481C202.567 118.88 202.936 119.488 203.14 120.052C203.345 119.488 203.713 118.88 204.378 118.481C203.713 118.081 203.345 117.473 203.14 116.91C202.936 117.473 202.567 118.081 201.902 118.481Z" fill="#292953"/>
<path d="M194.299 124.616C192.515 125.254 192.468 127.374 192.468 127.574C192.468 127.389 192.428 125.258 190.638 124.616C192.428 123.971 192.468 121.844 192.468 121.659C192.468 121.858 192.515 123.975 194.299 124.616Z" fill="white"/>
<path d="M192.468 127.828C192.328 127.828 192.214 127.714 192.214 127.573C192.214 127.356 192.167 125.434 190.552 124.856C190.451 124.82 190.384 124.724 190.384 124.617C190.384 124.51 190.451 124.414 190.552 124.377C192.168 123.795 192.214 121.876 192.214 121.659C192.214 121.519 192.328 121.405 192.468 121.405C192.608 121.405 192.722 121.519 192.722 121.659C192.722 121.877 192.769 123.796 194.384 124.377C194.485 124.414 194.552 124.51 194.552 124.617C194.552 124.724 194.485 124.82 194.384 124.856C192.769 125.433 192.722 127.356 192.722 127.573C192.722 127.714 192.608 127.828 192.468 127.828ZM191.23 124.616C191.895 125.015 192.263 125.623 192.468 126.186C192.672 125.623 193.041 125.014 193.705 124.616C193.041 124.216 192.672 123.608 192.468 123.045C192.263 123.608 191.895 124.216 191.23 124.616Z" fill="#292953"/>
</svg>
