<svg width="288" height="53" viewBox="0 0 288 53" fill="none" xmlns="http://www.w3.org/2000/svg">
<circle cx="6.02629" cy="44.0502" r="5.77824" fill="url(#paint0_linear_42_26329)"/>
<circle cx="46.474" cy="44.0502" r="5.77824" fill="url(#paint1_linear_42_26329)"/>
<rect x="23.8154" y="0.5" width="12.5103" height="35.4471" rx="6.25516" transform="rotate(30.2082 23.8154 0.5)" fill="url(#paint2_linear_42_26329)"/>
<rect x="35.4177" y="15.5718" width="12.5103" height="35.4471" rx="6.25516" transform="rotate(30.2082 35.4177 15.5718)" fill="url(#paint3_linear_42_26329)"/>
<path d="M73.1371 17.5806V12.6364H96.4319V17.5806H87.7483V41H81.8207V17.5806H73.1371ZM105.207 41.4155C103.019 41.4155 101.135 40.9723 99.5565 40.0859C97.9869 39.1903 96.7773 37.9254 95.9279 36.2912C95.0785 34.6477 94.6538 32.7042 94.6538 30.4606C94.6538 28.2724 95.0785 26.3519 95.9279 24.6992C96.7773 23.0465 97.973 21.7585 99.5149 20.8352C101.066 19.9119 102.885 19.4503 104.972 19.4503C106.375 19.4503 107.681 19.6765 108.891 20.1289C110.11 20.5721 111.172 21.2415 112.076 22.1371C112.99 23.0327 113.701 24.1591 114.209 25.5163C114.717 26.8643 114.971 28.4432 114.971 30.2528V31.8732H97.0082V28.217H109.417C109.417 27.3675 109.233 26.6151 108.863 25.9595C108.494 25.304 107.982 24.7915 107.326 24.4222C106.68 24.0437 105.927 23.8544 105.069 23.8544C104.173 23.8544 103.379 24.0621 102.686 24.4776C102.003 24.8839 101.468 25.4332 101.08 26.1257C100.692 26.8089 100.494 27.5707 100.484 28.4109V31.8871C100.484 32.9396 100.678 33.8491 101.066 34.6154C101.463 35.3817 102.022 35.9727 102.742 36.3881C103.462 36.8036 104.316 37.0114 105.304 37.0114C105.96 37.0114 106.56 36.919 107.104 36.7344C107.649 36.5497 108.115 36.2727 108.503 35.9034C108.891 35.5341 109.186 35.0817 109.39 34.5462L114.846 34.9062C114.569 36.2173 114.001 37.3622 113.143 38.3409C112.293 39.3104 111.195 40.0675 109.847 40.6122C108.508 41.1477 106.961 41.4155 105.207 41.4155ZM126.873 41.4155C124.694 41.4155 122.819 40.9538 121.25 40.0305C119.689 39.098 118.489 37.8054 117.649 36.1527C116.818 34.5 116.402 32.598 116.402 30.4467C116.402 28.2678 116.822 26.3565 117.663 24.7131C118.512 23.0604 119.717 21.7724 121.277 20.8491C122.838 19.9165 124.694 19.4503 126.845 19.4503C128.701 19.4503 130.326 19.7873 131.72 20.4613C133.114 21.1353 134.217 22.0817 135.03 23.3004C135.842 24.5192 136.29 25.9503 136.373 27.5938H130.806C130.649 26.532 130.233 25.6779 129.559 25.0316C128.895 24.3761 128.022 24.0483 126.942 24.0483C126.028 24.0483 125.229 24.2976 124.546 24.7962C123.872 25.2855 123.346 26.0011 122.967 26.9428C122.588 27.8846 122.399 29.0249 122.399 30.3636C122.399 31.7209 122.584 32.875 122.953 33.826C123.332 34.777 123.863 35.5018 124.546 36.0004C125.229 36.4989 126.028 36.7482 126.942 36.7482C127.616 36.7482 128.221 36.6097 128.756 36.3327C129.301 36.0558 129.749 35.6541 130.099 35.1278C130.46 34.5923 130.695 33.9506 130.806 33.2028H136.373C136.281 34.8278 135.838 36.2589 135.044 37.4961C134.259 38.7241 133.174 39.6843 131.789 40.3768C130.404 41.0692 128.765 41.4155 126.873 41.4155ZM144.491 28.7017V41H138.591V12.6364H144.324V23.4805H144.574C145.054 22.2248 145.829 21.2415 146.9 20.5305C147.971 19.8104 149.315 19.4503 150.931 19.4503C152.408 19.4503 153.696 19.7734 154.794 20.4197C155.902 21.0568 156.761 21.9755 157.37 23.1758C157.989 24.3668 158.294 25.7933 158.285 27.4553V41H152.385V28.5078C152.394 27.1967 152.062 26.1765 151.388 25.4471C150.723 24.7177 149.79 24.353 148.59 24.353C147.787 24.353 147.076 24.5238 146.457 24.8654C145.848 25.207 145.368 25.7056 145.017 26.3612C144.675 27.0075 144.5 27.7876 144.491 28.7017ZM176.865 20.7937C176.754 19.6765 176.279 18.8086 175.439 18.19C174.598 17.5714 173.458 17.2621 172.018 17.2621C171.039 17.2621 170.213 17.4006 169.539 17.6776C168.865 17.9453 168.348 18.3192 167.988 18.7994C167.637 19.2795 167.461 19.8242 167.461 20.4336C167.443 20.9414 167.549 21.3846 167.78 21.7631C168.02 22.1417 168.348 22.4695 168.763 22.7464C169.179 23.0142 169.659 23.2496 170.204 23.4528C170.748 23.6467 171.33 23.8129 171.949 23.9513L174.497 24.5607C175.734 24.8377 176.87 25.207 177.904 25.6687C178.938 26.1303 179.833 26.6982 180.591 27.3722C181.348 28.0462 181.934 28.8402 182.349 29.7543C182.774 30.6683 182.991 31.7163 183 32.8981C182.991 34.6339 182.548 36.1388 181.671 37.413C180.803 38.6779 179.547 39.6612 177.904 40.3629C176.27 41.0554 174.298 41.4016 171.99 41.4016C169.7 41.4016 167.706 41.0508 166.007 40.3491C164.318 39.6474 162.997 38.6087 162.046 37.233C161.104 35.848 160.61 34.1353 160.564 32.0948H166.367C166.432 33.0458 166.704 33.8398 167.184 34.4769C167.674 35.1048 168.325 35.5803 169.137 35.9034C169.959 36.2173 170.887 36.3743 171.921 36.3743C172.936 36.3743 173.818 36.2266 174.566 35.9311C175.323 35.6357 175.909 35.2248 176.325 34.6985C176.74 34.1722 176.948 33.5675 176.948 32.8842C176.948 32.2472 176.759 31.7116 176.38 31.2777C176.011 30.8437 175.466 30.4744 174.746 30.1697C174.035 29.8651 173.163 29.5881 172.129 29.3388L169.04 28.5632C166.649 27.9815 164.761 27.0721 163.376 25.8349C161.991 24.5977 161.303 22.9311 161.312 20.8352C161.303 19.1179 161.76 17.6175 162.683 16.3342C163.616 15.0508 164.895 14.049 166.52 13.3288C168.145 12.6087 169.991 12.2486 172.059 12.2486C174.164 12.2486 176.002 12.6087 177.571 13.3288C179.15 14.049 180.378 15.0508 181.255 16.3342C182.132 17.6175 182.585 19.104 182.613 20.7937H176.865ZM185.363 48.9773V19.7273H191.18V23.3004H191.443C191.702 22.728 192.076 22.1463 192.565 21.5554C193.064 20.9553 193.71 20.4567 194.504 20.0597C195.307 19.6534 196.304 19.4503 197.495 19.4503C199.046 19.4503 200.478 19.8565 201.789 20.669C203.1 21.4723 204.148 22.6864 204.932 24.3114C205.717 25.9272 206.11 27.9538 206.11 30.3913C206.11 32.7642 205.727 34.7678 204.96 36.402C204.203 38.027 203.169 39.2596 201.858 40.0998C200.556 40.9308 199.097 41.3462 197.481 41.3462C196.337 41.3462 195.363 41.157 194.559 40.7784C193.765 40.3999 193.114 39.9244 192.606 39.3519C192.099 38.7702 191.711 38.1839 191.443 37.593H191.263V48.9773H185.363ZM191.138 30.3636C191.138 31.6286 191.314 32.7319 191.665 33.6737C192.016 34.6154 192.523 35.3494 193.188 35.8757C193.853 36.3928 194.661 36.6513 195.612 36.6513C196.572 36.6513 197.385 36.3881 198.049 35.8619C198.714 35.3263 199.217 34.5877 199.559 33.646C199.91 32.695 200.085 31.6009 200.085 30.3636C200.085 29.1357 199.914 28.0554 199.573 27.1229C199.231 26.1903 198.728 25.4609 198.063 24.9347C197.398 24.4084 196.581 24.1452 195.612 24.1452C194.652 24.1452 193.839 24.3991 193.174 24.907C192.519 25.4148 192.016 26.1349 191.665 27.0675C191.314 28 191.138 29.0987 191.138 30.3636ZM214.383 28.7017V41H208.483V12.6364H214.217V23.4805H214.466C214.946 22.2248 215.722 21.2415 216.793 20.5305C217.864 19.8104 219.207 19.4503 220.823 19.4503C222.3 19.4503 223.588 19.7734 224.687 20.4197C225.795 21.0568 226.653 21.9755 227.263 23.1758C227.881 24.3668 228.186 25.7933 228.177 27.4553V41H222.277V28.5078C222.286 27.1967 221.954 26.1765 221.28 25.4471C220.615 24.7177 219.683 24.353 218.482 24.353C217.679 24.353 216.968 24.5238 216.349 24.8654C215.74 25.207 215.26 25.7056 214.909 26.3612C214.567 27.0075 214.392 27.7876 214.383 28.7017ZM240.954 41.4155C238.766 41.4155 236.883 40.9723 235.304 40.0859C233.734 39.1903 232.525 37.9254 231.675 36.2912C230.826 34.6477 230.401 32.7042 230.401 30.4606C230.401 28.2724 230.826 26.3519 231.675 24.6992C232.525 23.0465 233.72 21.7585 235.262 20.8352C236.813 19.9119 238.632 19.4503 240.719 19.4503C242.122 19.4503 243.429 19.6765 244.638 20.1289C245.857 20.5721 246.919 21.2415 247.824 22.1371C248.738 23.0327 249.449 24.1591 249.957 25.5163C250.464 26.8643 250.718 28.4432 250.718 30.2528V31.8732H232.756V28.217H245.165C245.165 27.3675 244.98 26.6151 244.611 25.9595C244.241 25.304 243.729 24.7915 243.073 24.4222C242.427 24.0437 241.675 23.8544 240.816 23.8544C239.92 23.8544 239.126 24.0621 238.434 24.4776C237.751 24.8839 237.215 25.4332 236.827 26.1257C236.44 26.8089 236.241 27.5707 236.232 28.4109V31.8871C236.232 32.9396 236.426 33.8491 236.813 34.6154C237.21 35.3817 237.769 35.9727 238.489 36.3881C239.209 36.8036 240.063 37.0114 241.051 37.0114C241.707 37.0114 242.307 36.919 242.852 36.7344C243.397 36.5497 243.863 36.2727 244.251 35.9034C244.638 35.5341 244.934 35.0817 245.137 34.5462L250.594 34.9062C250.317 36.2173 249.749 37.3622 248.89 38.3409C248.041 39.3104 246.942 40.0675 245.594 40.6122C244.255 41.1477 242.709 41.4155 240.954 41.4155ZM253.008 41V19.7273H258.728V23.4389H258.95C259.338 22.1186 259.989 21.1214 260.903 20.4474C261.817 19.7642 262.869 19.4226 264.06 19.4226C264.356 19.4226 264.674 19.4411 265.016 19.478C265.358 19.5149 265.658 19.5657 265.916 19.6303V24.8654C265.639 24.7823 265.256 24.7085 264.767 24.6438C264.277 24.5792 263.829 24.5469 263.423 24.5469C262.555 24.5469 261.78 24.7362 261.097 25.1147C260.423 25.484 259.887 26.0011 259.49 26.6658C259.102 27.3306 258.908 28.0969 258.908 28.9648V41H253.008ZM276.111 41.4155C273.923 41.4155 272.039 40.9723 270.46 40.0859C268.891 39.1903 267.681 37.9254 266.832 36.2912C265.982 34.6477 265.558 32.7042 265.558 30.4606C265.558 28.2724 265.982 26.3519 266.832 24.6992C267.681 23.0465 268.877 21.7585 270.419 20.8352C271.97 19.9119 273.789 19.4503 275.875 19.4503C277.279 19.4503 278.585 19.6765 279.795 20.1289C281.014 20.5721 282.075 21.2415 282.98 22.1371C283.894 23.0327 284.605 24.1591 285.113 25.5163C285.621 26.8643 285.875 28.4432 285.875 30.2528V31.8732H267.912V28.217H280.321C280.321 27.3675 280.136 26.6151 279.767 25.9595C279.398 25.304 278.885 24.7915 278.23 24.4222C277.583 24.0437 276.831 23.8544 275.972 23.8544C275.077 23.8544 274.283 24.0621 273.59 24.4776C272.907 24.8839 272.371 25.4332 271.984 26.1257C271.596 26.8089 271.397 27.5707 271.388 28.4109V31.8871C271.388 32.9396 271.582 33.8491 271.97 34.6154C272.367 35.3817 272.925 35.9727 273.646 36.3881C274.366 36.8036 275.22 37.0114 276.208 37.0114C276.863 37.0114 277.463 36.919 278.008 36.7344C278.553 36.5497 279.019 36.2727 279.407 35.9034C279.795 35.5341 280.09 35.0817 280.293 34.5462L285.75 34.9062C285.473 36.2173 284.905 37.3622 284.047 38.3409C283.197 39.3104 282.098 40.0675 280.75 40.6122C279.412 41.1477 277.865 41.4155 276.111 41.4155Z" fill="#EB5B00"/>
<defs>
<linearGradient id="paint0_linear_42_26329" x1="6.02629" y1="38.272" x2="6.02629" y2="49.8284" gradientUnits="userSpaceOnUse">
<stop stop-color="#EB5B00"/>
<stop offset="1" stop-color="#FFC16D"/>
</linearGradient>
<linearGradient id="paint1_linear_42_26329" x1="46.474" y1="38.272" x2="46.474" y2="49.8284" gradientUnits="userSpaceOnUse">
<stop stop-color="#EB5B00"/>
<stop offset="1" stop-color="#FFC16D"/>
</linearGradient>
<linearGradient id="paint2_linear_42_26329" x1="30.0706" y1="0.5" x2="30.0706" y2="35.9471" gradientUnits="userSpaceOnUse">
<stop stop-color="#EB5B00"/>
<stop offset="1" stop-color="#FFC16D"/>
</linearGradient>
<linearGradient id="paint3_linear_42_26329" x1="41.6729" y1="15.5718" x2="41.6729" y2="51.0189" gradientUnits="userSpaceOnUse">
<stop stop-color="#EB5B00"/>
<stop offset="1" stop-color="#FFC16D"/>
</linearGradient>
</defs>
</svg>
