<svg width="240" height="240" viewBox="0 0 240 240" fill="none" xmlns="http://www.w3.org/2000/svg">
<path d="M226.487 163.986C199.968 215.335 132.088 162.9 75.6489 183.61C37.5682 197.799 -2.7793 191.259 0.15058 142.159C5.52074 106.881 33.7247 78.529 64.5539 63.0487C98.1781 47.549 137.716 39.4282 173.256 53.3198C215.855 68.3479 246.761 120.71 226.487 163.986Z" fill="#FFC16D"/>
<path d="M208.166 109.72C208.107 109.72 208.053 109.688 208.023 109.637L205.508 105.271C205.478 105.22 205.478 105.157 205.508 105.106L208.023 100.74C208.053 100.689 208.107 100.657 208.166 100.657C208.224 100.657 208.279 100.689 208.308 100.74L210.83 105.106C210.859 105.157 210.859 105.22 210.83 105.271L208.308 109.638C208.279 109.688 208.224 109.72 208.166 109.72ZM205.84 105.188L208.166 109.226L210.497 105.188L208.166 101.151L205.84 105.188Z" fill="#F2E9DA"/>
<path d="M201.169 104.489C200.388 104.489 199.752 103.851 199.752 103.068C199.752 102.284 200.388 101.647 201.169 101.647C201.951 101.647 202.586 102.284 202.586 103.068C202.586 103.851 201.951 104.489 201.169 104.489ZM201.169 101.977C200.569 101.977 200.081 102.466 200.081 103.068C200.081 103.67 200.569 104.159 201.169 104.159C201.77 104.159 202.258 103.67 202.258 103.068C202.258 102.466 201.77 101.977 201.169 101.977Z" fill="#F2E9DA"/>
<path d="M205.65 98.8857C204.974 98.8857 204.425 98.3349 204.425 97.6577C204.425 96.9805 204.974 96.4297 205.65 96.4297C206.325 96.4297 206.875 96.9805 206.875 97.6577C206.875 98.3349 206.325 98.8857 205.65 98.8857ZM205.65 96.7594C205.156 96.7594 204.754 97.1625 204.754 97.6577C204.754 98.1532 205.156 98.556 205.65 98.556C206.144 98.556 206.546 98.1528 206.546 97.6577C206.546 97.1625 206.144 96.7594 205.65 96.7594Z" fill="#F2E9DA"/>
<path d="M199.917 99.4983C199.432 99.4983 199.037 99.1025 199.037 98.6158C199.037 98.1292 199.432 97.7334 199.917 97.7334C200.402 97.7334 200.797 98.1292 200.797 98.6158C200.797 99.1025 200.402 99.4983 199.917 99.4983ZM199.917 98.0627C199.613 98.0627 199.366 98.3109 199.366 98.6158C199.366 98.9208 199.613 99.169 199.917 99.169C200.221 99.169 200.468 98.9208 200.468 98.6158C200.468 98.3109 200.221 98.0627 199.917 98.0627Z" fill="#F2E9DA"/>
<path d="M50.6154 90.6732C50.5568 90.6732 50.5025 90.6415 50.4732 90.5908L48.5483 87.2497C48.519 87.1987 48.519 87.1357 48.5483 87.0851L50.4732 83.7439C50.5025 83.6929 50.5568 83.6616 50.6154 83.6616C50.674 83.6616 50.7284 83.6929 50.7577 83.7436L52.6872 87.0847C52.7169 87.1357 52.7169 87.1991 52.6872 87.2501L50.7577 90.5912C50.728 90.6423 50.674 90.6732 50.6154 90.6732ZM48.8803 87.1674L50.6154 90.1792L52.3549 87.1674L50.6154 84.1556L48.8803 87.1674Z" fill="#F2E9DA"/>
<path d="M46.0609 85.6576C45.2795 85.6576 44.6438 85.0203 44.6438 84.2368C44.6438 83.4537 45.2795 82.8159 46.0609 82.8159C46.8424 82.8159 47.4781 83.4533 47.4781 84.2368C47.4777 85.0203 46.842 85.6576 46.0609 85.6576ZM46.0609 83.146C45.4607 83.146 44.9726 83.6354 44.9726 84.2372C44.9726 84.839 45.4607 85.3283 46.0609 85.3283C46.6612 85.3283 47.1492 84.839 47.1492 84.2372C47.1492 83.6354 46.6608 83.146 46.0609 83.146Z" fill="#F2E9DA"/>
<path d="M50.5414 81.8896C49.866 81.8896 49.3167 81.3388 49.3167 80.6616C49.3167 79.9844 49.866 79.4336 50.5414 79.4336C51.2168 79.4336 51.7662 79.9844 51.7662 80.6616C51.7662 81.3388 51.2164 81.8896 50.5414 81.8896ZM50.5414 79.7633C50.0472 79.7633 49.6451 80.1661 49.6451 80.6616C49.6451 81.1571 50.0472 81.5599 50.5414 81.5599C51.0356 81.5599 51.4373 81.1571 51.4373 80.6616C51.4373 80.1661 51.0353 79.7633 50.5414 79.7633Z" fill="#F2E9DA"/>
<path d="M46.061 80.4811C45.5757 80.4811 45.1809 80.0853 45.1809 79.5986C45.1809 79.112 45.5757 78.7158 46.061 78.7158C46.5464 78.7158 46.9411 79.112 46.9411 79.5986C46.9408 80.0853 46.546 80.4811 46.061 80.4811ZM46.061 79.0455C45.7569 79.0455 45.5094 79.2937 45.5094 79.5986C45.5094 79.9032 45.7569 80.1514 46.061 80.1514C46.3652 80.1514 46.6123 79.9032 46.6123 79.5986C46.6123 79.2937 46.3648 79.0455 46.061 79.0455Z" fill="#F2E9DA"/>
<path d="M151.023 112.137C150.964 112.137 150.91 112.106 150.881 112.055L148.365 107.688C148.336 107.637 148.336 107.575 148.365 107.524L150.881 103.157C150.91 103.106 150.964 103.075 151.023 103.075C151.082 103.075 151.136 103.106 151.165 103.157L153.687 107.524C153.717 107.575 153.717 107.638 153.687 107.689L151.165 112.055C151.136 112.106 151.082 112.137 151.023 112.137ZM148.697 107.606L151.023 111.643L153.355 107.606L151.023 103.569L148.697 107.606Z" fill="#F2E9DA"/>
<path d="M161.473 109.344C160.692 109.344 160.056 108.707 160.056 107.923C160.056 107.14 160.692 106.502 161.473 106.502C162.254 106.502 162.89 107.14 162.89 107.923C162.89 108.707 162.254 109.344 161.473 109.344ZM161.473 106.833C160.873 106.833 160.385 107.322 160.385 107.924C160.385 108.526 160.873 109.015 161.473 109.015C162.073 109.015 162.561 108.526 162.561 107.924C162.561 107.322 162.073 106.833 161.473 106.833Z" fill="#F2E9DA"/>
<path d="M148.644 101.303C147.969 101.303 147.42 100.752 147.42 100.075C147.42 99.3975 147.969 98.8467 148.644 98.8467C149.32 98.8467 149.869 99.3975 149.869 100.075C149.869 100.752 149.32 101.303 148.644 101.303ZM148.644 99.176C148.15 99.176 147.749 99.5791 147.749 100.075C147.749 100.57 148.151 100.973 148.644 100.973C149.138 100.973 149.54 100.57 149.54 100.075C149.54 99.5791 149.139 99.176 148.644 99.176Z" fill="#F2E9DA"/>
<path d="M156.212 106.32C155.726 106.32 155.332 105.924 155.332 105.437C155.332 104.95 155.726 104.555 156.212 104.555C156.697 104.555 157.092 104.95 157.092 105.437C157.092 105.924 156.697 106.32 156.212 106.32ZM156.212 104.884C155.907 104.884 155.66 105.132 155.66 105.437C155.66 105.742 155.907 105.99 156.212 105.99C156.516 105.99 156.763 105.742 156.763 105.437C156.763 105.132 156.515 104.884 156.212 104.884Z" fill="#F2E9DA"/>
<path d="M156.513 101.303C156.455 101.303 156.401 101.272 156.371 101.221L154.791 98.4782C154.762 98.4271 154.762 98.3645 154.791 98.3135L156.371 95.5711C156.401 95.5201 156.455 95.4888 156.513 95.4888C156.572 95.4888 156.626 95.5201 156.656 95.5711L158.239 98.3135C158.269 98.3645 158.269 98.4275 158.239 98.4785L156.656 101.221C156.626 101.272 156.572 101.303 156.513 101.303ZM155.123 98.3958L156.513 100.809L157.907 98.3958L156.513 95.9827L155.123 98.3958Z" fill="#F2E9DA"/>
<path d="M142.836 111.57C142.351 111.57 141.956 111.174 141.956 110.688C141.956 110.201 142.351 109.805 142.836 109.805C143.321 109.805 143.716 110.201 143.716 110.688C143.716 111.174 143.321 111.57 142.836 111.57ZM142.836 110.135C142.532 110.135 142.284 110.383 142.284 110.688C142.284 110.993 142.532 111.241 142.836 111.241C143.14 111.241 143.387 110.993 143.387 110.688C143.387 110.383 143.14 110.135 142.836 110.135Z" fill="#F2E9DA"/>
<path d="M198.611 92.1541C197.582 95.4067 195.408 97.3471 192.377 96.7596L193.769 110.341L180.725 121.324L176.188 113.834L174.07 110.347V106.486L171.686 104.572C167.704 101.37 165.387 96.5346 165.387 91.4186V80.267C165.412 80.277 165.443 80.2824 165.468 80.2874C167.444 80.701 169.496 80.548 171.487 80.2159C173.789 79.8379 176.071 79.2152 178.108 78.0815C178.184 78.7197 178.51 79.3528 178.984 79.7869C179.839 80.5681 181.051 80.8286 182.207 80.8386C183.827 80.8487 185.446 80.415 186.847 79.5929C187.712 81.5943 188.644 83.5706 189.642 85.5105V85.5616C189.647 85.5565 189.652 85.5515 189.658 85.5461C190.717 84.5044 192.077 83.8508 193.497 83.7233C194.236 83.6568 194.989 83.7333 195.728 83.9683C198.942 84.9957 199.716 88.6669 198.611 92.1541Z" fill="#F2E9DA"/>
<path d="M193.753 79.8436L193.498 83.7243C192.077 83.8519 190.717 84.5055 189.658 85.5472C189.653 85.5371 189.648 85.5216 189.643 85.5116C188.645 83.5712 187.713 81.5953 186.847 79.5939C185.447 80.416 183.827 80.8501 182.208 80.8397C181.052 80.8296 179.84 80.5691 178.984 79.7879C178.511 79.3539 178.185 78.7207 178.109 78.0826C176.072 79.2163 173.79 79.839 171.488 80.217C169.497 80.549 167.445 80.7021 165.469 80.2885C165.443 80.2835 165.413 80.2784 165.387 80.268C163.437 79.8494 161.568 78.8232 160.438 77.1789C159.292 75.5091 159.037 73.1706 160.096 71.4448C161.232 69.6015 163.814 68.8153 165.78 69.724C164.827 68.2892 164.461 66.4254 164.995 64.7815C165.525 63.1426 167.007 61.7995 168.723 61.6209C170.378 61.4474 172.008 62.3306 173.118 63.5713C174.233 64.812 174.911 66.3794 175.512 67.9371C175.965 66.5278 177.381 65.5221 178.853 65.4657C180.324 65.4096 181.776 66.2623 182.524 67.5336C183.278 68.8048 183.339 70.4387 182.784 71.8023L186.43 71.8638C190.697 71.9396 194.032 75.5748 193.753 79.8436Z" fill="#25292B"/>
<path d="M168.594 91.0304C169.51 91.0304 170.253 90.2063 170.253 89.1897C170.253 88.1732 169.51 87.3491 168.594 87.3491C167.677 87.3491 166.934 88.1732 166.934 89.1897C166.934 90.2063 167.677 91.0304 168.594 91.0304Z" fill="#25292B"/>
<path d="M178.683 91.0304C179.599 91.0304 180.342 90.2063 180.342 89.1897C180.342 88.1732 179.599 87.3491 178.683 87.3491C177.766 87.3491 177.023 88.1732 177.023 89.1897C177.023 90.2063 177.766 91.0304 178.683 91.0304Z" fill="#25292B"/>
<path d="M169.969 84.8878C168.708 84.4862 167.289 84.71 166.263 85.572C166.059 85.7432 165.971 86.059 166.15 86.2851C166.312 86.4896 166.643 86.5812 166.861 86.398C166.962 86.3133 167.067 86.2337 167.177 86.1614C167.23 86.1262 167.285 86.0926 167.341 86.0605C167.347 86.0571 167.354 86.0536 167.36 86.0505C167.389 86.0358 167.418 86.0207 167.448 86.0068C167.566 85.95 167.689 85.9001 167.813 85.8576C167.875 85.8364 167.938 85.8174 168.001 85.7989C168.012 85.7954 168.023 85.7927 168.031 85.7904C168.066 85.7822 168.101 85.7745 168.137 85.7675C168.266 85.742 168.396 85.7239 168.527 85.7131C168.593 85.7076 168.658 85.7042 168.724 85.7026C168.757 85.7018 168.79 85.7015 168.823 85.7018C168.824 85.7018 168.823 85.7018 168.825 85.7018C168.829 85.7022 168.826 85.7022 168.834 85.7026C168.965 85.7107 169.096 85.7231 169.225 85.7451C169.29 85.756 169.354 85.7691 169.418 85.7842C169.45 85.7915 169.482 85.8 169.514 85.8081C169.523 85.8105 169.527 85.8112 169.53 85.812C169.536 85.8139 169.54 85.8151 169.548 85.8178C169.801 85.8982 170.112 85.8406 170.223 85.5639C170.315 85.3323 170.241 84.9744 169.969 84.8878Z" fill="#25292B"/>
<path d="M177.061 85.5643C177.171 85.8411 177.482 85.8987 177.735 85.8183C177.743 85.8156 177.747 85.8144 177.753 85.8125C177.757 85.8117 177.761 85.8109 177.769 85.8086C177.801 85.8005 177.833 85.792 177.865 85.7847C177.929 85.7696 177.993 85.7568 178.058 85.7456C178.188 85.7236 178.318 85.7112 178.449 85.7031C178.457 85.7027 178.454 85.7027 178.459 85.7023C178.46 85.7023 178.459 85.7023 178.461 85.7023C178.493 85.7023 178.526 85.7023 178.559 85.7031C178.624 85.7046 178.69 85.7081 178.756 85.7135C178.887 85.7244 179.017 85.7425 179.146 85.768C179.181 85.775 179.217 85.7827 179.252 85.7908C179.26 85.7932 179.27 85.7959 179.282 85.7993C179.345 85.8179 179.408 85.8365 179.47 85.8581C179.594 85.9006 179.717 85.9505 179.835 86.0073C179.865 86.0216 179.894 86.0363 179.923 86.051C179.929 86.0541 179.936 86.0579 179.942 86.061C179.998 86.0935 180.053 86.1267 180.106 86.1619C180.216 86.2342 180.321 86.3138 180.422 86.3985C180.64 86.5817 180.971 86.4901 181.133 86.2856C181.312 86.0595 181.224 85.7437 181.02 85.5725C179.994 84.7105 178.575 84.4867 177.314 84.8883C177.043 84.9745 176.968 85.3324 177.061 85.5643Z" fill="#25292B"/>
<path d="M177.28 107.98C177.224 107.98 177.169 107.979 177.114 107.978C175.231 107.922 173.984 106.675 173.932 106.622C173.858 106.546 173.858 106.424 173.934 106.349C174.009 106.274 174.132 106.275 174.206 106.351C174.218 106.363 175.401 107.541 177.125 107.591C178.936 107.647 180.784 106.745 182.586 104.916C182.66 104.84 182.782 104.839 182.858 104.914C182.934 104.989 182.935 105.111 182.86 105.188C181.034 107.041 179.157 107.98 177.28 107.98Z" fill="#25292B"/>
<path d="M192.86 95.4337C192.767 95.4337 192.685 95.3653 192.67 95.2698C192.654 95.1643 192.726 95.0657 192.831 95.0495C193.784 94.903 194.608 94.5346 195.214 93.9854C195.891 93.3708 196.28 92.5147 196.254 91.6945C196.227 90.8171 195.685 89.9903 194.938 89.6838C194.158 89.363 193.163 89.6737 192.767 90.361C192.724 90.4352 192.636 90.4715 192.555 90.4522C192.472 90.4321 192.412 90.3602 192.407 90.2748C192.338 88.9977 192.756 87.692 193.552 86.6921C193.917 86.234 194.518 85.6616 195.308 85.5379C196.004 85.4281 196.901 85.7876 197.133 86.5595C197.164 86.6619 197.106 86.7694 197.004 86.8003C196.903 86.8308 196.794 86.7729 196.764 86.6708C196.592 86.098 195.904 85.8355 195.367 85.9198C194.7 86.0245 194.176 86.529 193.853 86.9333C193.225 87.7218 192.851 88.7155 192.793 89.7236C193.382 89.1902 194.307 89.0073 195.084 89.3262C195.982 89.6946 196.606 90.6416 196.639 91.6829C196.669 92.6148 196.232 93.583 195.472 94.2722C194.81 94.8729 193.917 95.2737 192.89 95.4318C192.88 95.4329 192.87 95.4337 192.86 95.4337Z" fill="#25292B"/>
<path d="M174.718 99.5172C174.632 99.5172 174.553 99.4592 174.531 99.3719C174.505 99.2683 174.567 99.1632 174.67 99.1369C176.324 98.7121 177.684 97.3032 178.053 95.6319C178.076 95.5279 178.175 95.4622 178.283 95.485C178.387 95.5082 178.452 95.6114 178.43 95.7154C178.03 97.5258 176.558 99.0511 174.766 99.5114C174.75 99.5153 174.734 99.5172 174.718 99.5172Z" fill="#25292B"/>
<path d="M166.702 93.0993C163.64 93.0993 161.149 90.5196 161.149 87.349C161.149 84.1783 163.64 81.5986 166.702 81.5986C169.763 81.5986 172.254 84.1783 172.254 87.349C172.254 90.5196 169.763 93.0993 166.702 93.0993ZM166.702 81.9852C163.852 81.9852 161.535 84.3913 161.535 87.349C161.535 90.3066 163.853 92.7128 166.702 92.7128C169.551 92.7128 171.868 90.3066 171.868 87.349C171.868 84.3913 169.55 81.9852 166.702 81.9852Z" fill="#95BFCE"/>
<path d="M178.712 93.0993C175.651 93.0993 173.16 90.5196 173.16 87.349C173.16 84.1783 175.651 81.5986 178.712 81.5986C181.774 81.5986 184.264 84.1783 184.264 87.349C184.264 90.5196 181.774 93.0993 178.712 93.0993ZM178.712 81.9852C175.863 81.9852 173.545 84.3913 173.545 87.349C173.545 90.3066 175.863 92.7128 178.712 92.7128C181.561 92.7128 183.879 90.3066 183.879 87.349C183.879 84.3913 181.561 81.9852 178.712 81.9852Z" fill="#95BFCE"/>
<path d="M169.542 96.7108C169.479 96.7108 169.42 96.6798 169.384 96.6277C169.345 96.5724 169.339 96.5016 169.366 96.4402C170.546 93.7206 171.614 90.916 172.539 88.1044C172.572 88.0031 172.681 87.9467 172.782 87.9815C172.883 88.0147 172.938 88.1241 172.905 88.2254C172.008 90.9496 170.979 93.6673 169.842 96.308L173.904 96.0927C174.013 96.0861 174.102 96.1692 174.107 96.2755C174.112 96.3822 174.031 96.473 173.924 96.4788L169.552 96.7108C169.549 96.7108 169.546 96.7108 169.542 96.7108Z" fill="#25292B"/>
<path d="M183.967 86.4473C183.881 86.4473 183.802 86.3885 183.78 86.3008C183.755 86.1972 183.818 86.0924 183.921 86.0665L194.724 83.369C194.828 83.3435 194.932 83.4061 194.958 83.5101C194.983 83.6136 194.92 83.7184 194.817 83.7443L184.014 86.4418C183.998 86.4453 183.983 86.4473 183.967 86.4473Z" fill="#95BFCE"/>
<path d="M173.352 87.5423H172.061C171.955 87.5423 171.868 87.4557 171.868 87.349C171.868 87.2423 171.955 87.1558 172.061 87.1558H173.352C173.459 87.1558 173.545 87.2423 173.545 87.349C173.545 87.4557 173.459 87.5423 173.352 87.5423Z" fill="#95BFCE"/>
<path d="M229.924 181.448L229.773 181.431L220.801 180.532L217.426 180.193L217.725 183.616L218.52 192.651H140.866L143.146 177.049L143.971 171.401H137.027L137.431 168.801L139.91 152.81L142.476 136.253L142.953 133.185C144.451 123.501 151.649 115.692 161.16 113.424L166.52 112.146L174.069 110.347L177.168 115.454L180.727 121.323L193.771 110.34L195.394 110.686L206.903 113.124L213.029 114.423C214.643 114.762 216.19 115.286 217.65 115.972C220.703 117.392 223.368 119.517 225.435 122.143C227.196 124.384 228.528 126.994 229.293 129.851C229.313 129.917 229.332 129.986 229.349 130.052L232.172 140.942L235.094 152.224L237.969 163.319L239.702 170.001C239.81 170.416 239.885 170.831 239.935 171.243C240.618 176.95 235.84 182.041 229.924 181.448Z" fill="#95BFCE"/>
<path d="M143.147 177.049L143.971 171.401H137.027L137.431 168.802L195.394 110.687L206.903 113.125L143.147 177.049Z" fill="#75ADBC"/>
<path d="M177.168 115.455L139.91 152.811L142.476 136.253L166.519 112.146L174.068 110.347L177.168 115.455Z" fill="#75ADBC"/>
<path d="M232.172 140.942L180.599 192.651H166.658L229.293 129.851C229.313 129.917 229.332 129.986 229.349 130.052L232.172 140.942Z" fill="#75ADBC"/>
<path d="M225.435 122.143L155.112 192.651H141.171L217.65 115.972C220.702 117.392 223.368 119.517 225.435 122.143Z" fill="#75ADBC"/>
<path d="M229.924 181.448L229.773 181.432L239.935 171.243C240.618 176.951 235.84 182.042 229.924 181.448Z" fill="#75ADBC"/>
<path d="M220.801 180.533L217.426 180.193L217.725 183.617L208.714 192.652H194.773L235.094 152.225L237.969 163.319L220.801 180.533Z" fill="#75ADBC"/>
<path d="M215.414 162.449C215.332 162.449 215.256 162.396 215.23 162.313L208.653 141.23C208.621 141.128 208.677 141.02 208.779 140.988C208.883 140.956 208.989 141.013 209.021 141.115L215.598 162.198C215.629 162.3 215.573 162.408 215.471 162.44C215.453 162.446 215.433 162.449 215.414 162.449Z" fill="#25292B"/>
<path d="M217.425 180.387C217.42 180.387 217.415 180.387 217.409 180.387L213.388 180.061C213.282 180.053 213.203 179.959 213.211 179.853C213.219 179.747 213.316 179.668 213.419 179.676L217.44 180.002C217.546 180.01 217.625 180.103 217.617 180.21C217.609 180.311 217.525 180.387 217.425 180.387Z" fill="#25292B"/>
<path d="M213.403 162.956C213.316 162.956 213.238 162.897 213.216 162.81C213.191 162.706 213.253 162.601 213.356 162.575L225.6 159.489C225.704 159.463 225.808 159.526 225.834 159.629C225.86 159.732 225.797 159.838 225.694 159.864L213.45 162.95C213.434 162.954 213.419 162.956 213.403 162.956Z" fill="#25292B"/>
<path d="M207.375 137.142H136.115V183.721H207.375V137.142Z" fill="#A1370B"/>
<path d="M193.043 168.212C192.819 168.653 192.767 169.131 192.861 169.585C192.983 170.172 193.356 170.706 193.93 171.007L196.506 173.149C200.271 176.279 204.691 178.517 209.434 179.687L212.399 179.868L213.062 163.001L212.64 161.803C211.946 159.849 210.794 158.089 209.275 156.675L207.375 154.829L207.345 159.613L198.116 155.452C197.074 154.985 195.847 155.458 195.38 156.496C195.196 156.909 195.157 157.351 195.242 157.761C195.349 158.278 195.651 158.755 196.102 159.062C195.151 158.813 194.128 159.289 193.71 160.218C193.527 160.631 193.487 161.074 193.573 161.49C193.679 162.001 193.972 162.466 194.423 162.773C193.424 162.415 192.288 162.889 191.843 163.876C191.66 164.289 191.62 164.732 191.705 165.141C191.836 165.772 192.254 166.336 192.884 166.62L194.193 167.209C193.717 167.381 193.297 167.725 193.043 168.212Z" fill="#F2E9DA"/>
<path d="M202.974 162.57C202.946 162.57 202.918 162.563 202.891 162.55L196.018 159.237C195.922 159.191 195.882 159.075 195.928 158.979C195.974 158.883 196.09 158.842 196.186 158.889L203.058 162.202C203.154 162.248 203.195 162.364 203.148 162.46C203.115 162.529 203.046 162.57 202.974 162.57Z" fill="#25292B"/>
<path d="M200.625 166.162C200.596 166.162 200.566 166.155 200.537 166.14L194.335 162.945C194.241 162.896 194.203 162.78 194.252 162.685C194.3 162.59 194.417 162.552 194.511 162.601L200.713 165.796C200.808 165.845 200.846 165.961 200.797 166.056C200.763 166.124 200.695 166.162 200.625 166.162Z" fill="#25292B"/>
<path d="M198.596 169.739C198.565 169.739 198.534 169.732 198.506 169.717L194.103 167.38C194.01 167.33 193.974 167.213 194.023 167.119C194.073 167.024 194.19 166.989 194.284 167.038L198.686 169.375C198.78 169.425 198.816 169.542 198.767 169.636C198.732 169.702 198.665 169.739 198.596 169.739Z" fill="#25292B"/>
<path d="M130.911 157.437C130.875 156.933 131.045 156.46 131.354 156.106C131.662 155.751 132.101 155.511 132.603 155.474L137.675 155.479C138.679 155.406 139.559 156.169 139.632 157.175C139.669 157.676 139.498 158.149 139.19 158.504C138.882 158.861 138.442 159.098 137.94 159.135L132.868 159.13C131.864 159.204 130.984 158.441 130.911 157.437Z" fill="#F2E9DA"/>
<path d="M130.416 160.993C130.374 160.403 130.575 159.845 130.938 159.427C131.301 159.006 131.82 158.726 132.411 158.683L138.251 158.632C139.434 158.546 140.471 159.446 140.557 160.629C140.6 161.221 140.398 161.777 140.035 162.197C139.672 162.615 139.154 162.895 138.562 162.938L132.722 162.989C131.539 163.075 130.502 162.179 130.416 160.993Z" fill="#F2E9DA"/>
<path d="M130.658 165.024C130.616 164.431 130.817 163.876 131.18 163.455C131.543 163.034 132.062 162.754 132.653 162.712L138.493 162.66C139.676 162.574 140.713 163.474 140.799 164.66C140.842 165.253 140.641 165.808 140.278 166.226C139.915 166.644 139.396 166.927 138.805 166.969L132.965 167.02C131.781 167.107 130.744 166.207 130.658 165.024Z" fill="#F2E9DA"/>
<path d="M130.871 168.707C130.828 168.114 131.067 167.556 131.49 167.134C131.914 166.712 132.516 166.423 133.199 166.373L138.315 166.375C139.682 166.275 140.869 167.164 140.955 168.347C140.998 168.94 140.759 169.498 140.335 169.923C139.912 170.348 139.31 170.634 138.627 170.684L133.51 170.682C132.144 170.782 130.957 169.893 130.871 168.707Z" fill="#F2E9DA"/>
<path d="M131.884 167.009C131.779 167.009 131.694 166.925 131.691 166.819C131.689 166.713 131.774 166.625 131.88 166.622L139.753 166.466C139.863 166.47 139.947 166.549 139.95 166.655C139.952 166.762 139.867 166.85 139.761 166.852L131.888 167.009C131.887 167.009 131.885 167.009 131.884 167.009Z" fill="#25292B"/>
<path d="M131.866 163.188C131.762 163.188 131.677 163.106 131.674 163.001C131.67 162.894 131.754 162.805 131.861 162.802L139.342 162.581C139.45 162.577 139.538 162.661 139.541 162.768C139.544 162.875 139.46 162.964 139.354 162.967L131.872 163.188C131.87 163.188 131.868 163.188 131.866 163.188Z" fill="#25292B"/>
<path d="M138.806 159.034H131.747C131.641 159.034 131.554 158.948 131.554 158.841C131.554 158.735 131.641 158.648 131.747 158.648H138.806C138.912 158.648 138.999 158.735 138.999 158.841C138.999 158.948 138.913 159.034 138.806 159.034Z" fill="#25292B"/>
<path d="M157.278 169.885C156.981 169.885 156.682 169.787 156.431 169.587L144.633 160.139C144.311 159.88 144.122 159.488 144.122 159.075C144.122 158.661 144.311 158.269 144.633 158.011L156.279 148.684C156.865 148.215 157.72 148.311 158.188 148.898C158.657 149.486 158.561 150.342 157.975 150.812L147.657 159.075L158.126 167.46C158.713 167.929 158.808 168.786 158.34 169.373C158.072 169.709 157.677 169.885 157.278 169.885Z" fill="#F2E9DA"/>
<path d="M175.345 169.885C174.946 169.885 174.551 169.71 174.283 169.373C173.815 168.785 173.91 167.929 174.496 167.459L184.966 159.075L174.648 150.811C174.062 150.342 173.966 149.485 174.434 148.898C174.903 148.31 175.757 148.214 176.343 148.683L187.99 158.011C188.312 158.269 188.5 158.661 188.5 159.074C188.5 159.488 188.312 159.88 187.99 160.138L176.191 169.586C175.942 169.788 175.642 169.885 175.345 169.885Z" fill="#F2E9DA"/>
<path d="M163.662 172.383C163.472 172.409 163.275 172.395 163.08 172.335C162.363 172.114 161.96 171.352 162.181 170.634L169.482 146.837C169.702 146.118 170.462 145.714 171.179 145.936C171.896 146.157 172.299 146.919 172.078 147.638L164.777 171.434C164.617 171.958 164.17 172.314 163.662 172.383Z" fill="#F2E9DA"/>
<path d="M94.5196 181.42C92.2871 182.44 89.5931 181.665 88.2612 179.522C70.7691 151.367 56.1636 153.405 56.0183 153.429C56.0996 153.416 56.1405 153.404 56.1405 153.404L54.0264 143.69C54.6347 143.557 60.2038 142.495 68.3068 146.123C78.3154 150.605 87.8607 160.073 96.678 174.264C98.126 176.595 97.4155 179.661 95.0913 181.112C94.9051 181.229 94.7143 181.331 94.5196 181.42Z" fill="#25292B"/>
<path d="M48.704 175.707H25.6539V192.668H48.704V175.707Z" fill="#366985"/>
<path d="M6.2428 155.481C6.2428 153.886 6.35999 152.313 6.59438 150.785C7.5092 144.734 12.675 140.25 18.778 140.25H54.112C60.0619 140.25 65.2544 144.499 66.2235 150.387C66.4984 152.046 66.6384 153.745 66.6384 155.481C66.6384 172.405 53.1158 181.625 36.4383 181.625C34.3785 181.625 32.368 181.485 30.4255 181.205C16.6327 179.23 6.2428 170.317 6.2428 155.481Z" fill="#F2E9DA"/>
<path d="M62.0323 148.941H35.3203C34.5007 148.941 33.8303 148.269 33.8303 147.447C33.8303 146.625 34.5007 145.953 35.3203 145.953H62.0323C62.8519 145.953 63.5223 146.625 63.5223 147.447C63.5227 148.269 62.8519 148.941 62.0323 148.941Z" fill="#95BFCE"/>
<path d="M62.0323 153.373H35.3203C34.5007 153.373 33.8303 152.7 33.8303 151.879C33.8303 151.057 34.5007 150.385 35.3203 150.385H62.0323C62.8519 150.385 63.5223 151.057 63.5223 151.879C63.5227 152.7 62.8519 153.373 62.0323 153.373Z" fill="#95BFCE"/>
<path d="M29.1652 153.138C31.0795 153.138 32.6313 151.582 32.6313 149.663C32.6313 147.743 31.0795 146.188 29.1652 146.188C27.2509 146.188 25.6991 147.743 25.6991 149.663C25.6991 151.582 27.2509 153.138 29.1652 153.138Z" fill="#366985"/>
<path d="M22.5441 177.731C22.5048 177.731 22.4655 177.72 22.4315 177.694C18.3845 174.763 18.332 168.895 18.332 168.836V142.308C18.332 142.202 18.4184 142.115 18.5248 142.115C18.6312 142.115 18.7175 142.202 18.7175 142.308V168.836C18.7175 168.892 18.7719 174.567 22.6575 177.381C22.7438 177.444 22.7631 177.565 22.7006 177.651C22.6629 177.703 22.6039 177.731 22.5441 177.731Z" fill="#25292B"/>
<path d="M8.00378 165.905C4.62825 165.905 1.86646 163.136 1.86646 159.751V147.665C1.86646 144.281 4.62825 141.512 8.00378 141.512C11.3793 141.512 14.1411 144.281 14.1411 147.665V159.751C14.1411 163.136 11.3793 165.905 8.00378 165.905Z" fill="#95BFCE"/>
<path d="M79.4522 149.591C78.7491 152.323 77.6577 155.447 75.9653 158.57C71.5551 166.732 62.2184 176.456 42.8219 176.456C24.1582 176.456 13.9703 170.14 8.70576 164.838C6.49409 162.61 4.92622 160.366 3.82867 158.392C2.30706 155.657 3.41772 152.359 6.33603 151.245C6.92431 151.018 7.51569 150.919 8.10398 150.919C9.87848 150.919 11.5481 151.875 12.4255 153.473C15.0447 158.241 22.5147 166.515 42.8215 166.515C54.4785 166.515 62.6976 162.247 67.2493 153.829C68.5146 151.489 69.333 149.13 69.8588 147.077C70.4209 144.893 72.4024 143.377 74.6538 143.377C77.8948 143.377 80.2641 146.445 79.4522 149.591Z" fill="#366985"/>
<path d="M76.8119 146.485C79.2506 146.485 81.2275 144.503 81.2275 142.058C81.2275 139.613 79.2506 137.631 76.8119 137.631C74.3732 137.631 72.3962 139.613 72.3962 142.058C72.3962 144.503 74.3732 146.485 76.8119 146.485Z" fill="#95BFCE"/>
<path d="M78.7168 141.505C77.4153 141.33 76.1192 140.955 74.8702 140.363C71.7059 138.865 69.313 136.221 68.1322 132.919C66.9514 129.616 67.1241 126.05 68.6183 122.878L68.8705 122.343C69.5613 120.876 71.3073 120.247 72.7707 120.941C74.2337 121.633 74.8601 123.384 74.1689 124.851L73.9168 125.386C73.091 127.14 72.9958 129.111 73.6481 130.936C74.3008 132.761 75.6235 134.223 77.3721 135.051C80.9828 136.76 85.3063 135.206 87.0114 131.586L87.2635 131.051C87.9552 129.585 89.7007 128.958 91.1641 129.65C92.6271 130.343 93.2528 132.094 92.562 133.56L92.3099 134.095C89.8156 139.392 84.2207 142.244 78.7168 141.505Z" fill="#F2E9DA"/>
<path d="M41.7637 134.618H32.6313V139.812C32.6313 142.34 34.6757 144.39 37.1977 144.39C39.7197 144.39 41.7641 142.34 41.7641 139.812L41.7637 134.618Z" fill="#25292B"/>
<path d="M51.9526 135.035H25.1844C16.818 135.035 9.9729 128.172 9.9729 119.784C9.9729 111.395 16.818 104.532 25.1844 104.532H51.9526C60.319 104.532 67.1641 111.395 67.1641 119.784C67.1641 128.172 60.319 135.035 51.9526 135.035Z" fill="#F2E9DA"/>
<path d="M51.9526 135.035H39.9181C31.5518 135.035 24.7067 128.172 24.7067 119.784C24.7067 111.395 31.5518 104.532 39.9181 104.532H51.9526C60.3189 104.532 67.1641 111.395 67.1641 119.784C67.1641 128.172 60.3189 135.035 51.9526 135.035Z" fill="#366985"/>
<path d="M17.7177 124.593C14.5774 124.593 12.0076 122.016 12.0076 118.868V108.425C12.0076 105.277 14.577 102.7 17.7177 102.7C20.8581 102.7 23.4279 105.276 23.4279 108.425V118.868C23.4275 122.016 20.8581 124.593 17.7177 124.593Z" fill="#95BFCE"/>
<path d="M17.7178 120.283C15.9325 120.283 14.4799 118.826 14.4799 117.036V110.258C14.4799 108.468 15.9325 107.011 17.7178 107.011C19.5031 107.011 20.9557 108.468 20.9557 110.258V117.036C20.9557 118.826 19.5031 120.283 17.7178 120.283ZM17.7178 107.398C16.1449 107.398 14.8654 108.681 14.8654 110.258V117.036C14.8654 118.613 16.1449 119.896 17.7178 119.896C19.2906 119.896 20.5701 118.613 20.5701 117.036V110.258C20.5701 108.681 19.2906 107.398 17.7178 107.398Z" fill="#25292B"/>
<path d="M17.7178 113.84C17.6114 113.84 17.525 113.753 17.525 113.647V100.93C17.525 100.823 17.6114 100.736 17.7178 100.736C17.8242 100.736 17.9105 100.823 17.9105 100.93V113.647C17.9105 113.754 17.8242 113.84 17.7178 113.84Z" fill="#25292B"/>
<path d="M17.7178 97.754C19.7192 97.754 21.3416 96.1273 21.3416 94.1206C21.3416 92.114 19.7192 90.4873 17.7178 90.4873C15.7164 90.4873 14.094 92.114 14.094 94.1206C14.094 96.1273 15.7164 97.754 17.7178 97.754Z" fill="#366985"/>
<path d="M40.3657 123.383C43.157 123.383 45.4197 120.983 45.4197 118.023C45.4197 115.062 43.157 112.663 40.3657 112.663C37.5744 112.663 35.3116 115.062 35.3116 118.023C35.3116 120.983 37.5744 123.383 40.3657 123.383Z" fill="#95BFCE"/>
<path d="M60.581 123.383C63.3723 123.383 65.6351 120.983 65.6351 118.023C65.6351 115.062 63.3723 112.663 60.581 112.663C57.7897 112.663 55.527 115.062 55.527 118.023C55.527 120.983 57.7897 123.383 60.581 123.383Z" fill="#95BFCE"/>
<path d="M17.7178 101.123C13.8669 101.123 10.7339 97.9814 10.7339 94.1204C10.7339 90.2594 13.8665 87.1182 17.7178 87.1182C21.569 87.1182 24.7017 90.2591 24.7017 94.1204C24.7017 97.9818 21.5686 101.123 17.7178 101.123ZM17.7178 87.5047C14.0793 87.5047 11.1194 90.4724 11.1194 94.1204C11.1194 97.7685 14.0793 100.736 17.7178 100.736C21.3562 100.736 24.3162 97.7685 24.3162 94.1204C24.3158 90.4728 21.3558 87.5047 17.7178 87.5047Z" fill="#25292B"/>
<path d="M138.644 150.817L125.328 192.651H63.934L77.783 149.139C78.1477 147.996 79.2094 147.218 80.4057 147.218H136.022C137.885 147.219 139.209 149.038 138.644 150.817Z" fill="#25292B"/>
<path d="M99.0165 189.537V192.651H31.7469C31.7469 190.931 33.1371 189.537 34.8526 189.537H99.0165Z" fill="#25292B"/>
<path d="M123.842 189.73H67.0415C66.9795 189.73 66.9213 189.7 66.885 189.65C66.8488 189.599 66.8388 189.534 66.8588 189.476L80.0143 150.133C80.0483 150.032 80.1581 149.976 80.2584 150.012C80.3594 150.045 80.4137 150.155 80.3798 150.256L67.3091 189.344H123.841C123.948 189.344 124.034 189.431 124.034 189.537C124.034 189.644 123.948 189.73 123.842 189.73Z" fill="#F2E9DA"/>
<path d="M229.774 193.032C229.774 193.136 229.69 193.231 229.551 193.301C229.412 193.37 229.223 193.413 229.015 193.413H15.6235C15.2071 193.413 14.864 193.241 14.864 193.032C14.864 192.926 14.9488 192.831 15.0876 192.762C15.2264 192.692 15.4153 192.649 15.6235 192.649H229.015C229.431 192.649 229.774 192.821 229.774 193.032Z" fill="#25292B"/>
<path d="M71.6101 85.8374C71.4239 85.8374 71.2365 85.7763 71.0796 85.6507L63.6883 79.7314C63.4863 79.5695 63.3683 79.3244 63.3683 79.0651C63.3683 78.8057 63.4863 78.5603 63.6883 78.3987L70.9844 72.5552C71.3514 72.2611 71.8869 72.3214 72.1803 72.6893C72.4736 73.0573 72.4139 73.5942 72.0465 73.8883L65.5827 79.0654L72.1417 84.3183C72.5091 84.6121 72.5689 85.149 72.2755 85.5173C72.1074 85.7276 71.8599 85.8374 71.6101 85.8374Z" fill="#366985"/>
<path d="M82.9286 85.8376C82.6788 85.8376 82.4313 85.7279 82.2632 85.5168C81.9698 85.1489 82.0296 84.612 82.397 84.3178L88.9561 79.065L82.4922 73.8879C82.1248 73.5941 82.0651 73.0572 82.3584 72.6889C82.6518 72.3209 83.1873 72.2606 83.5543 72.5547L90.8508 78.3982C91.0529 78.5602 91.1708 78.8052 91.1708 79.0646C91.1708 79.3239 91.0529 79.5694 90.8508 79.7309L83.4595 85.6502C83.3026 85.7766 83.1148 85.8376 82.9286 85.8376Z" fill="#366985"/>
<path d="M75.6094 87.4026C75.4906 87.4188 75.3669 87.4103 75.2447 87.3724C74.7956 87.2336 74.5434 86.7563 74.6814 86.3064L79.2551 71.3981C79.3931 70.9478 79.8693 70.6947 80.3184 70.8334C80.7675 70.9722 81.0196 71.4495 80.8816 71.8994L76.3079 86.8077C76.2077 87.1359 75.9278 87.3593 75.6094 87.4026Z" fill="#366985"/>
<path d="M65.7932 99.3162C65.7655 99.3162 65.7373 99.3101 65.7115 99.2981C65.644 99.2664 65.6009 99.1987 65.6005 99.1241L65.5681 91.7253H62.0958C60.7303 91.7253 59.6189 90.6113 59.6189 89.2419V69.6397C59.6189 68.2706 60.7299 67.1562 62.0958 67.1562H91.5291C92.8946 67.1562 94.006 68.2702 94.006 69.6397V89.2419C94.006 90.6109 92.895 91.7253 91.5291 91.7253H75.0644L65.9166 99.2726C65.8804 99.3012 65.8368 99.3162 65.7932 99.3162ZM62.0954 67.5424C60.9424 67.5424 60.004 68.4832 60.004 69.6393V89.2415C60.004 90.3976 60.9424 91.3384 62.0954 91.3384H65.7597C65.8657 91.3384 65.9521 91.4246 65.9524 91.5309L65.9841 98.7152L74.872 91.3824C74.9067 91.3538 74.9499 91.3384 74.9946 91.3384H91.5287C92.6818 91.3384 93.6201 90.3976 93.6201 89.2415V69.6393C93.6201 68.4832 92.6818 67.5424 91.5287 67.5424H62.0954Z" fill="#25292B"/>
<path d="M151.026 82.9773C150.988 82.9773 150.95 82.9661 150.918 82.944L143.802 78.1067C141.859 79.1024 139.675 79.6284 137.476 79.6284C129.806 79.6284 123.567 73.3721 123.567 65.6826C123.567 57.9931 129.807 51.7368 137.476 51.7368C145.145 51.7368 151.385 57.9931 151.385 65.6826C151.385 68.7087 150.438 71.581 148.645 73.9948L151.211 82.7295C151.234 82.8076 151.205 82.8918 151.139 82.9402C151.105 82.9649 151.066 82.9773 151.026 82.9773ZM143.815 77.6892C143.853 77.6892 143.89 77.7004 143.923 77.7225L150.689 82.3217L148.248 74.0114C148.23 73.9527 148.242 73.8893 148.278 73.8406C150.059 71.4778 151 68.6569 151 65.683C151 58.2065 144.933 52.1237 137.476 52.1237C130.019 52.1237 123.952 58.2065 123.952 65.683C123.952 73.1595 130.019 79.2423 137.476 79.2423C139.652 79.2423 141.813 78.7127 143.726 77.7116C143.753 77.6966 143.784 77.6892 143.815 77.6892Z" fill="#25292B"/>
<path d="M137.476 76.0855C143.335 76.0855 148.084 71.3236 148.084 65.4495C148.084 59.5754 143.335 54.8135 137.476 54.8135C131.617 54.8135 126.868 59.5754 126.868 65.4495C126.868 71.3236 131.617 76.0855 137.476 76.0855Z" fill="#A1370B"/>
<path d="M136.543 72.0447L130.279 65.7641L133.259 62.7766L136.543 66.0694L143.384 59.2109L146.364 62.1988L136.543 72.0447Z" fill="#F2E9DA"/>
<path d="M137.477 106.831V109.586H73.0404V106.831C73.0404 105.295 74.2794 104.053 75.8107 104.053H134.707C136.238 104.053 137.477 105.296 137.477 106.831Z" fill="#A1370B"/>
<path d="M134.707 143.823H75.8111C74.1773 143.823 72.8477 142.491 72.8477 140.852V106.831C72.8477 105.193 74.1769 103.859 75.8111 103.859H134.707C136.34 103.859 137.67 105.192 137.67 106.831V140.852C137.67 142.491 136.341 143.823 134.707 143.823ZM75.8111 104.247C74.3897 104.247 73.2332 105.406 73.2332 106.831V140.853C73.2332 142.278 74.3897 143.438 75.8111 143.438H134.707C136.128 143.438 137.285 142.278 137.285 140.853V106.831C137.285 105.406 136.128 104.247 134.707 104.247H75.8111Z" fill="#25292B"/>
<path d="M135.135 106.134H129.044V107.98H135.135V106.134Z" fill="#F2E9DA"/>
<path d="M132.777 111.63H123.842V120.589H132.777V111.63Z" fill="#F2E9DA"/>
<path d="M132.777 122.448H123.842V131.407H132.777V122.448Z" fill="#F2E9DA"/>
<path d="M132.777 132.952H123.842V141.911H132.777V132.952Z" fill="#F2E9DA"/>
<path d="M127.444 119.056L124.25 115.853L125.877 114.222L127.444 115.794L130.742 112.487L132.369 114.118L127.444 119.056Z" fill="#A1370B"/>
<path d="M127.444 130.212L124.25 127.009L125.876 125.378L127.444 126.95L130.742 123.643L132.369 125.274L127.444 130.212Z" fill="#A1370B"/>
<path d="M127.444 140.426L124.25 137.223L125.877 135.592L127.444 137.164L130.742 133.857L132.369 135.488L127.444 140.426Z" fill="#A1370B"/>
<path d="M122.345 112.197H79.4664V113.968H122.345V112.197Z" fill="#95BFCE"/>
<path d="M122.345 115.556H79.4664V117.327H122.345V115.556Z" fill="#95BFCE"/>
<path d="M122.344 118.851H103.052V120.622H122.344V118.851Z" fill="#95BFCE"/>
<path d="M122.345 122.715H79.4664V124.486H122.345V122.715Z" fill="#95BFCE"/>
<path d="M122.345 126.074H79.4664V127.845H122.345V126.074Z" fill="#95BFCE"/>
<path d="M122.344 129.369H103.052V131.14H122.344V129.369Z" fill="#95BFCE"/>
<path d="M122.345 133.418H79.4664V135.19H122.345V133.418Z" fill="#95BFCE"/>
<path d="M122.345 136.777H79.4664V138.548H122.345V136.777Z" fill="#95BFCE"/>
<path d="M122.344 140.071H103.052V141.842H122.344V140.071Z" fill="#95BFCE"/>
<path d="M123.182 99.6532C120.759 99.6532 118.788 97.6769 118.788 95.2475V71.1443C118.788 69.1796 117.193 67.5809 115.234 67.5809C113.274 67.5809 111.68 69.1796 111.68 71.1443V86.9682C111.68 89.1072 109.944 90.8474 107.811 90.8474H107.674C105.54 90.8474 103.805 89.1072 103.805 86.9682V77.6707C103.805 75.895 102.364 74.4506 100.593 74.4506C98.8225 74.4506 97.3819 75.895 97.3819 77.6707V97.4983C97.3819 97.6803 97.235 97.8276 97.0534 97.8276C96.8719 97.8276 96.725 97.6799 96.725 97.4983V77.6707C96.725 75.5317 98.4602 73.7916 100.594 73.7916C102.727 73.7916 104.463 75.5317 104.463 77.6707V86.9682C104.463 88.7439 105.903 90.1883 107.674 90.1883H107.811C109.582 90.1883 111.023 88.7439 111.023 86.9682V71.1443C111.023 68.8158 112.912 66.9219 115.234 66.9219C117.556 66.9219 119.445 68.8162 119.445 71.1443V95.2475C119.445 97.3135 121.122 98.9941 123.183 98.9941C125.243 98.9941 126.919 97.3131 126.919 95.2475V86.4108C126.919 84.0488 128.836 82.1274 131.192 82.1274C133.547 82.1274 135.464 84.0488 135.464 86.4108V95.6731C135.464 95.8552 135.317 96.0024 135.135 96.0024C134.953 96.0024 134.806 95.8548 134.806 95.6731V86.4108C134.806 84.4121 133.185 82.7864 131.192 82.7864C129.198 82.7864 127.577 84.4125 127.577 86.4108V95.2475C127.576 97.6769 125.605 99.6532 123.182 99.6532Z" fill="#95BFCE"/>
<path d="M100.309 76.0856C101.422 76.0856 102.325 75.1811 102.325 74.0653C102.325 72.9495 101.422 72.0449 100.309 72.0449C99.1966 72.0449 98.2944 72.9495 98.2944 74.0653C98.2944 75.1811 99.1966 76.0856 100.309 76.0856Z" fill="#A1370B"/>
<path d="M111.168 84.1716C112.281 84.1716 113.183 83.267 113.183 82.1512C113.183 81.0354 112.281 80.1309 111.168 80.1309C110.055 80.1309 109.153 81.0354 109.153 82.1512C109.153 83.267 110.055 84.1716 111.168 84.1716Z" fill="#A1370B"/>
<path d="M119.446 72.508C120.559 72.508 121.461 71.6035 121.461 70.4876C121.461 69.3718 120.559 68.4673 119.446 68.4673C118.333 68.4673 117.431 69.3718 117.431 70.4876C117.431 71.6035 118.333 72.508 119.446 72.508Z" fill="#A1370B"/>
<path d="M122.984 101.087C124.097 101.087 124.999 100.183 124.999 99.0668C124.999 97.9509 124.097 97.0464 122.984 97.0464C121.871 97.0464 120.969 97.9509 120.969 99.0668C120.969 100.183 121.871 101.087 122.984 101.087Z" fill="#A1370B"/>
<path d="M135.135 97.0568C136.248 97.0568 137.15 96.1523 137.15 95.0365C137.15 93.9207 136.248 93.0161 135.135 93.0161C134.022 93.0161 133.12 93.9207 133.12 95.0365C133.12 96.1523 134.022 97.0568 135.135 97.0568Z" fill="#A1370B"/>
<path d="M97.038 99.653C98.1509 99.653 99.0531 98.7485 99.0531 97.6327C99.0531 96.5168 98.1509 95.6123 97.038 95.6123C95.9251 95.6123 95.0229 96.5168 95.0229 97.6327C95.0229 98.7485 95.9251 99.653 97.038 99.653Z" fill="#A1370B"/>
</svg>
