<svg width="422" height="297" viewBox="0 0 422 297" fill="none" xmlns="http://www.w3.org/2000/svg">
<path d="M211.502 282.144C284.699 282.144 344.037 222.806 344.037 149.609C344.037 76.4121 284.699 17.0742 211.502 17.0742C138.305 17.0742 78.9673 76.4121 78.9673 149.609C78.9673 222.806 138.305 282.144 211.502 282.144Z" fill="#750CFF"/>
<path d="M350.024 37.4744L237.475 150.934H274.423L386.972 37.4744H350.024Z" fill="#00152C"/>
<path d="M371.239 71.3892L258.691 184.849H295.638L371.239 108.637V71.3892Z" fill="#00152C"/>
<path d="M371.239 126.013L258.691 239.473H274.423L371.239 141.874V126.013Z" fill="#00152C"/>
<path d="M97.8662 114.024L197.994 13.8953H310.86L294.689 30.0677H240.766L97.8662 172.968V114.024Z" fill="#00152C"/>
<path d="M301.5 23.2717L285.215 39.556H296.155L312.44 23.2717H301.5Z" fill="#00152C"/>
<path d="M211.509 90.6567C184.078 92.6233 165.421 99.9811 163.168 111.776" stroke="#C1FF44" stroke-miterlimit="10"/>
<path d="M260.877 218.887C260.877 218.887 260.851 248.974 256.047 259.681C255.26 261.436 250.996 268.646 245.496 277.74C234.646 280.614 223.256 282.142 211.502 282.142C196.998 282.142 183.047 279.814 169.987 275.511L187.338 251.62L154.001 269.055C131.989 258.439 113.35 241.907 100.16 221.533L168.609 192.246L260.877 218.887Z" fill="#00152C"/>
<path d="M252.452 214.951C252.452 214.951 252.03 242.067 248.554 251.618C245.077 261.169 235.738 279.931 235.738 279.931" stroke="white" stroke-miterlimit="10"/>
<path d="M142.552 262.816C142.552 262.816 180.096 243.737 196.555 237.194" stroke="white" stroke-miterlimit="10"/>
<path d="M187.338 251.62C187.338 251.62 194.498 242.194 196.555 237.194C198.613 232.193 190.761 213.07 188.771 210.287C186.782 207.504 187.675 220.493 188.771 224.286" stroke="white" stroke-miterlimit="10"/>
<path d="M173.764 179.908C173.764 179.908 166.705 187.408 163.703 191.61C160.702 195.812 242.227 221.755 262.693 222.356C262.693 222.356 262.651 214.302 266.833 206.322C266.833 206.322 180.368 179.483 173.764 179.908Z" fill="white"/>
<path d="M344.114 202.852C344.05 203.239 343.982 203.626 343.909 204.013C341.33 217.875 334.004 230.91 319.695 246.513C308.951 258.228 298.086 257.917 298.086 257.917L271.17 241.711C271.17 241.711 319.642 185.136 286.822 155.921C286.822 155.921 287.824 178.106 283.021 190.713C278.218 203.319 266.834 206.324 266.834 206.324C266.834 206.324 178.567 187.712 173.764 179.908C170.361 174.377 167.762 173.129 188.771 149.404C188.771 149.404 172.94 156.976 154.041 158.478C148.251 158.937 142.174 158.827 136.173 157.757C130.702 156.782 124.609 154.392 118.43 151.054C97.902 139.984 76.3727 118.493 73.1404 103.728L97.9053 84.3685C97.9053 84.3685 108.558 83.4122 113.361 88.4693C118.164 93.5225 136.582 111.493 144.579 113.936C157.557 117.901 188.172 102.893 204.982 93.8865C221.787 84.884 235.847 82.6307 243.806 83.8939L262.695 86.8947C262.695 86.8947 325.98 104.41 341.663 166.072C341.804 166.615 341.94 167.161 342.07 167.711C342.999 171.599 343.735 175.662 344.255 179.904C345.264 188.121 345.325 195.61 344.114 202.852Z" fill="#FE2B99"/>
<path d="M236.924 83.5694C236.924 83.5694 238.772 95.288 251.392 96.4888C264.012 97.6895 267.332 88.527 267.332 88.527L262.694 86.8953L243.805 83.8938C243.805 83.8938 239.626 83.2489 236.924 83.5694Z" fill="white"/>
<path d="M248.331 86.6577C248.331 86.6577 241 114.549 228.393 137.511L238.62 141.583C238.62 141.583 254.845 106.332 255.351 88.779L248.331 86.6577Z" fill="white"/>
<path d="M212.635 127.505L263.793 142.813L258.979 153.619L207.682 136.06L212.635 127.505Z" fill="white"/>
<path d="M271.169 241.71C271.169 241.71 289.881 244.712 298.085 257.919C298.085 257.919 287.558 273.686 282.725 276.293C278.673 278.48 255.711 261.371 258.059 257.919C261.073 253.489 266.936 246.664 271.169 241.71Z" fill="white"/>
<path d="M259.013 257.919C261.276 255.53 284.826 272.332 283.025 274.883C281.09 277.625 256.311 260.771 259.013 257.919Z" fill="#00152C"/>
<path d="M97.9033 84.3686C97.9033 84.3686 88.5302 100.84 73.2854 103.89C73.2854 103.89 62.2116 88.5025 61.464 83.0632C60.8373 78.5014 84.9117 62.9972 87.321 66.4064C90.4135 70.7822 94.7483 78.6666 97.9033 84.3686Z" fill="white"/>
<path d="M86.9869 67.2997C88.4314 70.2576 64.4376 86.4197 62.6797 83.8388C60.7912 81.0649 85.2635 63.7696 86.9869 67.2997Z" fill="#00152C"/>
<path d="M188.772 149.404C188.772 149.404 206.836 126.886 211.134 107.695C214.832 91.1776 200.779 115.346 198.377 122.252" stroke="#00152C" stroke-miterlimit="10"/>
<path d="M271.316 105.594C271.316 105.594 265.746 116.3 270.549 131.307C275.351 146.315 280.22 150.317 286.824 155.92" stroke="#00152C" stroke-miterlimit="10"/>
<path d="M296.829 171.585C296.829 171.585 297.975 177.896 298.085 182.535C298.137 184.754 312.237 192.94 312.438 197.342C312.638 201.745 301.632 190.939 299.231 189.538C296.829 188.137 299.231 198.39 299.231 198.39" stroke="white" stroke-miterlimit="10"/>
<path d="M344.114 202.852C344.05 203.239 343.982 203.626 343.91 204.013C337.87 201.851 330.207 196.945 329.789 185.951C329.384 175.314 336.038 169.267 341.663 166.073C341.804 166.616 341.94 167.162 342.07 167.712C342.999 171.6 343.735 175.663 344.255 179.904C345.264 188.121 345.325 195.61 344.114 202.852Z" fill="#C1FF44"/>
<path d="M154.041 158.478C148.251 158.937 142.174 158.827 136.173 157.757C130.702 156.782 124.609 154.392 118.43 151.053C122.61 146.136 130.167 140.347 140.885 144.187C148.85 147.043 152.462 152.95 154.041 158.478Z" fill="#C1FF44"/>
<path d="M306.248 118.506L303.23 120.98L315.952 136.494L318.969 134.02L306.248 118.506Z" fill="white"/>
<path d="M305.857 121.503L316.402 133.969" stroke="#00152C" stroke-miterlimit="10"/>
<path d="M144.579 113.937C144.579 113.937 146.55 114.098 148.351 115.899C150.152 117.7 160.757 127.905 162.758 127.505C164.759 127.105 160.776 123.71 156.355 119.101" stroke="white" stroke-miterlimit="10"/>
<path d="M257.89 206.747L263.793 179.903C257.321 172.87 254.451 160.823 254.451 160.823L211.75 146.435C211.75 146.435 198.637 156.426 188.771 158.733C188.771 158.733 180.141 172.806 175.902 181.672" stroke="white" stroke-miterlimit="10"/>
<path d="M50.8993 68.1088C50.8993 68.1088 52.4849 70.8379 53.6505 71.9756C54.8161 73.1133 56.0715 70.0279 55.4708 66.8262" stroke="#1E2C2C" stroke-miterlimit="10"/>
<path d="M242.227 55.7318C242.227 55.7318 235.219 56.7928 232.47 50.5895C232.47 50.5895 236.52 50.5896 238.223 49.5891C238.223 49.5891 235.572 45.1866 237.349 40.1841C237.349 40.1841 242.071 45.5805 244.872 45.7808C244.872 45.7808 244.729 44.1861 244.929 42.5855C244.929 42.5855 250.666 47.7967 257.402 47.9924C264.139 48.1881 265.94 49.5396 265.74 52.5658C265.54 55.5921 264.339 71.2003 259.537 71.6007C254.734 72.0012 235.347 59.1851 235.347 59.1851C235.347 59.1851 240.326 59.4731 242.227 55.7318Z" fill="#00152C"/>
<path d="M246.65 66.4524L242.228 83.407C242.228 83.407 253.293 92.1118 261.117 86.4085V64.5269L246.65 66.4524Z" fill="#FF9199"/>
<path d="M242.227 83.4065C242.227 83.4065 260.533 85.1806 256.933 65.0835L246.65 66.4526L242.227 83.4065Z" fill="#00152C"/>
<path d="M260.285 66.1788C259.458 72.776 249.389 76.869 243.915 76.4595H243.904C242.116 76.3269 240.823 75.7086 240.501 74.5397C239.476 70.8368 243.198 60.6283 244.89 56.3149C245.364 55.0934 245.68 54.3457 245.68 54.3457C248.183 51.9826 259.36 53.5097 260.384 54.5265C261.408 55.5439 261.389 57.4227 260.285 66.1788Z" fill="#FF9199"/>
<path d="M243.904 76.4595C242.116 76.3269 240.823 75.7087 240.501 74.5398C239.476 70.8368 243.198 60.6283 244.89 56.3149L245.831 56.3793C245.831 56.3793 241.328 70.2758 241.476 73.2006C241.605 75.7197 243.406 76.338 243.904 76.4595Z" fill="white"/>
<path d="M259.833 60.9411C259.833 60.9411 261.941 57.9897 263.855 58.3641C265.77 58.7392 264.65 64.1533 263.613 65.772C262.671 67.2445 260.062 66.7972 259.675 65.6504C259.288 64.505 259.833 60.9411 259.833 60.9411Z" fill="#FF9199"/>
<path d="M256.302 69.1402L244.309 68.3074C242.328 68.1703 240.835 66.4534 240.972 64.4732L241.305 59.667C241.442 57.6868 243.159 56.1929 245.139 56.33L257.132 57.1628C259.112 57.3 260.606 59.0169 260.469 60.9977L260.135 65.8039C259.999 67.7841 258.282 69.278 256.302 69.1402Z" fill="#00152C"/>
<path d="M251.41 68.8009L239.417 67.9681C237.437 67.8309 235.943 66.114 236.08 64.1338L236.414 59.3276C236.551 57.3474 238.268 55.8535 240.248 55.9907L252.24 56.8235C254.221 56.9606 255.715 58.6775 255.577 60.6577L255.244 65.4639C255.107 67.4448 253.39 68.9387 251.41 68.8009Z" fill="white"/>
<path d="M247.808 68.5504L235.816 67.7176C233.835 67.5804 232.342 65.8635 232.479 63.8833L232.812 59.0771C232.95 57.0969 234.666 55.603 236.646 55.7402L248.64 56.573C250.62 56.7101 252.114 58.427 251.976 60.4072L251.643 65.2134C251.505 67.1943 249.788 68.6882 247.808 68.5504Z" fill="#00152C"/>
<path d="M237.391 67.8275C235.411 67.6904 233.917 65.9735 234.054 63.9933L234.387 59.1871C234.525 57.2069 236.242 55.713 238.222 55.8501L236.646 55.7409C234.666 55.6037 232.949 57.097 232.811 59.0779L232.477 63.884C232.34 65.8642 233.834 67.5812 235.814 67.7183L237.391 67.8275Z" fill="white"/>
<path d="M252.241 56.8232C252.241 56.8232 253.783 58.7846 253.433 62.7352C253.032 67.2482 251.409 68.8006 251.409 68.8006" stroke="#00152C" stroke-width="0.5" stroke-miterlimit="10"/>
<path d="M253.223 59.1851L252.583 59.657C252.583 59.657 252.875 62.9959 252.276 65.7036L252.683 66.4525C252.683 66.4525 254.013 62.7281 253.223 59.1851Z" fill="#00152C"/>
<path d="M263.186 55.897L266.137 57.1536C266.137 57.1536 265.973 59.455 265.755 60.1051L261.935 58.0007L263.186 55.897Z" fill="#311457"/>
<path d="M264.59 56.1018L263.464 59.1858C263.464 59.1858 254.302 53.7536 248.638 56.5718L241.096 56.0484L240.251 55.9919C240.251 55.9919 242.204 52.9416 243.077 51.9665C243.233 51.7923 243.707 51.6213 244.439 51.4926H244.443C247.841 50.8893 256.749 51.1623 264.59 56.1018Z" fill="#EAE5F9"/>
<path d="M243.352 56.5913L246.754 56.8689L242.789 67.7002L239.402 67.4648L243.352 56.5913Z" fill="white"/>
<path d="M256.902 64.3178L256.642 64.2996C256.521 64.2912 256.43 64.1865 256.438 64.0649L256.567 62.2076C256.575 62.0867 256.68 61.995 256.802 62.0035L257.062 62.0217C257.182 62.0301 257.274 62.1348 257.266 62.2564L257.137 64.1137C257.128 64.2353 257.023 64.3263 256.902 64.3178Z" fill="#C1FF44"/>
<path d="M264.036 60.6998C263.926 60.2668 263.024 59.499 262.933 59.5276C262.87 59.5471 261.702 62.2255 261.454 63.5589C261.8 63.6285 262.728 63.3522 263.211 62.9966C263.293 63.607 262.649 65.3954 262.245 65.2569C262.013 65.1776 261.49 64.9202 261.159 64.5067" stroke="#1E2C2C" stroke-width="0.5" stroke-miterlimit="10"/>
<path d="M244.442 51.4924C243.057 52.8355 241.122 56.0035 241.122 56.0035L241.096 56.049L240.25 55.9924C240.25 55.9924 242.204 52.9422 243.077 51.967C243.232 51.7928 243.707 51.6218 244.439 51.4931L244.442 51.4924Z" fill="white"/>
<path d="M263.456 57.0397C263.308 57.5579 262.853 57.8816 262.442 57.7639C262.03 57.6456 261.817 57.1301 261.965 56.6126C262.113 56.0945 262.568 55.7707 262.979 55.8884C263.392 56.0061 263.605 56.5216 263.456 57.0397Z" fill="#311457"/>
<path d="M263.781 57.1327C263.633 57.6509 263.178 57.9746 262.767 57.857C262.355 57.7386 262.142 57.2231 262.29 56.7056C262.439 56.1875 262.893 55.8638 263.305 55.9814C263.716 56.0991 263.929 56.6146 263.781 57.1327Z" fill="#EE17E4"/>
<path d="M263.204 56.3338C263.184 56.328 263.163 56.3267 263.143 56.3247C263.361 56.4268 263.469 56.7213 263.384 57.0197C263.299 57.3181 263.051 57.5105 262.811 57.4812C262.83 57.4897 262.848 57.4994 262.868 57.5053C263.124 57.5787 263.409 57.3766 263.501 57.0535C263.594 56.7291 263.461 56.4073 263.204 56.3338Z" fill="white"/>
<path d="M251.807 272.695C251.807 272.695 244.655 281.531 244.655 285.534C244.655 289.536 250.355 287.134 251.807 284.533C253.26 281.931 251.807 272.695 251.807 272.695Z" fill="#00152C"/>
<path d="M264.873 259.679C264.873 259.679 252.258 270.314 251.304 273.749C250.349 277.184 247.805 291.284 249.877 293.103C251.95 294.922 253.377 291.149 253.377 291.149C253.377 291.149 252.391 296.486 254.825 296.174C257.212 295.868 258.97 290.504 258.97 290.504C258.97 290.504 259.278 294.29 261.071 294.498C264.062 294.846 265.088 291.204 265.088 291.204C265.088 291.204 268.198 293.477 268.545 291.193C268.891 288.908 269.352 282.555 270.874 281.587C282.478 274.198 280.66 271.12 280.66 271.12C280.66 271.12 274.671 264.623 264.873 259.679Z" fill="#FF9199"/>
<path d="M57.6031 74.8772C62.8754 81.321 68.4935 82.2194 68.4935 82.2194C68.4935 82.2194 77.1554 77.8787 84.8136 70.7705C84.8136 70.7705 75.2116 56.7271 71.9072 55.3879C68.6034 54.0487 62.7408 47.3423 51.8998 45.862C48.9685 45.4616 47.6709 48.5508 52.373 50.6519C55.8251 52.194 59.3037 56.4677 59.3037 56.4677C59.3037 56.4677 53.2305 54.5304 52.5005 56.2675C51.5682 58.4856 53.1324 61.1523 53.1324 61.1523C53.1324 61.1523 50.5931 60.9703 50.1822 62.7269C49.4964 65.6595 50.8999 68.109 50.8999 68.109C50.8999 68.109 48.9938 68.8209 48.999 71.2757C49.0016 72.65 54.8837 79.0801 56.9439 78.8798C59.0034 78.6796 57.6031 74.8772 57.6031 74.8772Z" fill="#FF9199"/>
<path d="M71.9072 55.3879C71.9072 55.3879 65.4069 52.5658 67.6081 57.9681C69.3809 62.3192 70.1389 60.0062 70.8098 65.9208C71.4807 71.8353 74.3119 73.3767 74.3119 73.3767" stroke="#00152C" stroke-miterlimit="10"/>
<path d="M53.1317 61.1524C53.1317 61.1524 55.1015 67.6735 56.7021 68.074C58.3032 68.4744 59.3538 65.1043 57.9528 60.8202C57.9528 60.8202 59.4539 60.67 60.7541 60.8202" stroke="#00152C" stroke-miterlimit="10"/>
<path d="M50.8993 68.1088C50.8993 68.1088 53.7038 74.0124 55.6262 73.3766C57.5485 72.7401 57.5277 70.4797 56.7021 68.0737" stroke="#00152C" stroke-miterlimit="10"/>
<path d="M56.4932 51.2904C68.397 38.745 72.5718 23.3797 65.8179 16.9713C59.064 10.5628 43.9389 15.5378 32.0351 28.0832C20.1312 40.6287 15.9564 55.9939 22.7103 62.4024C29.4642 68.8109 44.5893 63.8359 56.4932 51.2904Z" stroke="#C1FF44" stroke-miterlimit="10"/>
<path d="M111.686 87.0756C117.908 84.966 123.488 85.2872 126.914 88.5383C133.668 94.947 129.492 110.312 117.588 122.858C105.683 135.403 90.5579 140.377 83.804 133.968C80.5093 130.842 79.8157 125.585 81.3512 119.564" stroke="#C1FF44" stroke-miterlimit="10"/>
<path d="M22.7117 62.4043L83.804 133.968" stroke="#C1FF44" stroke-miterlimit="10"/>
<path d="M65.8217 16.9749L126.914 88.5389" stroke="#C1FF44" stroke-miterlimit="10"/>
<path d="M49.725 44.868C55.0407 39.2657 56.9049 32.4044 53.889 29.5426C50.873 26.6809 44.1188 28.9025 38.8031 34.5047C33.4874 40.1069 31.6232 46.9683 34.6391 49.8301C37.6551 52.6918 44.4093 50.4702 49.725 44.868Z" stroke="#750CFF" stroke-width="8" stroke-miterlimit="10"/>
<path d="M77.3559 38.9437L73.9364 41.9934L102.406 73.9146L105.825 70.8648L77.3559 38.9437Z" fill="#EE17E4"/>
<path d="M107.973 73.2711L104.554 76.3208L106.934 78.9892L110.353 75.9395L107.973 73.2711Z" fill="#EE17E4"/>
<path d="M255.211 73.2668L231.038 71.5882C229.057 71.451 227.563 69.7341 227.701 67.7539L228.563 55.3345C228.7 53.3543 230.417 51.8603 232.398 51.9975L256.571 53.6761C258.552 53.8139 260.046 55.5301 259.908 57.5103L259.046 69.9298C258.909 71.9107 257.192 73.4046 255.211 73.2668Z" stroke="#FE2B99" stroke-miterlimit="10"/>
<path d="M256.175 59.5295L230.949 64.1587L231.102 64.9893L256.327 60.3602L256.175 59.5295Z" fill="#EE17E4"/>
<path d="M231.688 57.6063L231.408 58.4028L255.597 66.9251L255.878 66.1286L231.688 57.6063Z" fill="#EE17E4"/>
<path d="M222.022 69.5932L219.671 69.3652L219.443 71.7159L221.795 71.9439L222.022 69.5932Z" fill="white"/>
<path d="M225.046 73.266L222.695 73.0381L222.467 75.3888L224.818 75.6167L225.046 73.266Z" fill="white"/>
<path d="M225.178 47.6398L227.528 47.8674L227.756 45.5167L225.405 45.289L225.178 47.6398Z" fill="white"/>
<path d="M221.504 50.6642L223.854 50.8918L224.082 48.5405L221.731 48.3128L221.504 50.6642Z" fill="white"/>
<path d="M263.786 75.9957L266.137 76.2236L266.365 73.8729L264.014 73.645L263.786 75.9957Z" fill="white"/>
<path d="M260.112 79.0201L262.464 79.248L262.692 76.8967L260.34 76.6687L260.112 79.0201Z" fill="white"/>
<path d="M265.357 49.1371L263.006 48.9094L262.779 51.2601L265.129 51.4878L265.357 49.1371Z" fill="white"/>
<path d="M268.381 52.81L266.03 52.5823L265.803 54.933L268.153 55.1607L268.381 52.81Z" fill="white"/>
<path d="M175.925 44.9653C193.518 48.2438 205.123 65.1632 201.844 82.7568C198.566 100.35 181.646 111.955 164.053 108.676" stroke="white" stroke-width="14" stroke-miterlimit="10"/>
<path d="M173.724 56.7769C184.793 58.8396 192.095 69.4856 190.032 80.5555C187.969 91.6254 177.323 98.9266 166.253 96.8638" stroke="#EE17E4" stroke-width="4" stroke-miterlimit="10"/>
<path d="M163.168 111.775C159.172 132.705 208.351 159.682 273.014 172.028L289.976 83.1905C225.313 70.8439 176.134 43.8681 180.13 22.9375C183.445 5.57991 222.29 -2.16861 272.336 2.73443L263.516 48.9219" stroke="#C1FF44" stroke-miterlimit="10"/>
<path d="M180.131 22.9375L163.168 111.775" stroke="#C1FF44" stroke-miterlimit="10"/>
<path d="M216.931 80.7808L213.869 80.0332L213.121 83.0951L216.183 83.8426L216.931 80.7808Z" fill="#C1FF44"/>
<path d="M281.71 96.5996L278.648 95.8521L277.901 98.9139L280.963 99.6615L281.71 96.5996Z" fill="#C1FF44"/>
<path d="M270.001 93.7399L226.334 83.0781L225.586 86.14L269.253 96.8017L270.001 93.7399Z" fill="#C1FF44"/>
<path d="M279.796 97.7489L215.017 81.9326" stroke="#C1FF44" stroke-miterlimit="10"/>
<path d="M287.554 150.791L294.839 119.462L297.143 117.966L297.693 115.596L228.449 99.4927L227.898 101.862L229.304 104.221L222.019 135.549L219.715 137.046L219.165 139.415L288.409 155.518L288.96 153.149L287.554 150.791Z" fill="#00152C"/>
<path d="M264.051 142.958L262.196 142.526L261.765 144.381L263.62 144.812L264.051 142.958Z" fill="#EE17E4"/>
<path d="M268.554 144.007L266.699 143.576L266.268 145.43L268.123 145.862L268.554 144.007Z" fill="#EE17E4"/>
<path d="M273.058 145.055L271.204 144.624L270.773 146.478L272.627 146.909L273.058 145.055Z" fill="#C3FF44"/>
<path d="M277.565 146.1L275.71 145.669L275.279 147.524L277.133 147.955L277.565 146.1Z" fill="#EE17E4"/>
<path d="M277.974 133.841L281.696 117.834L233.914 106.722L228.984 127.919L271.575 137.824L277.974 133.841Z" stroke="white" stroke-miterlimit="10"/>
<path d="M284.716 124.961L290.268 121.504" stroke="white" stroke-miterlimit="10"/>
<path d="M283.669 129.465L289.221 126.008" stroke="white" stroke-miterlimit="10"/>
<path d="M282.621 133.969L288.173 130.513" stroke="white" stroke-miterlimit="10"/>
<path d="M281.573 138.474L287.125 135.017" stroke="white" stroke-miterlimit="10"/>
<path d="M245.243 136.163L221.22 130.576L220.953 131.724L244.976 137.311L245.243 136.163Z" fill="#C3FF44"/>
<path d="M249.127 137.069L247.714 136.741L247.447 137.889L248.86 138.217L249.127 137.069Z" fill="#C3FF44"/>
<path d="M336.11 224.77C343.162 230.397 346.795 236.601 345.059 241.527C342.085 249.97 324.464 251.456 305.701 244.847C286.939 238.237 274.14 226.035 277.114 217.591C278.601 213.37 283.75 210.887 290.873 210.286" stroke="#C1FF44" stroke-miterlimit="10"/>
<path d="M291 267.711C293.85 271.397 294.93 274.97 293.576 277.596C290.802 282.979 278.857 282.346 266.894 276.183C254.932 270.019 247.483 260.658 250.257 255.275C251.872 252.141 256.595 251.047 262.621 251.895" stroke="#C1FF44" stroke-miterlimit="10"/>
<path d="M336.909 231.869H325.944V234.753H336.909V231.869Z" fill="#00152C"/>
<path d="M336.909 238.827H331.427V241.71H336.909V238.827Z" fill="#00152C"/>
<path d="M290.301 202.77H284.922L323.193 129.375H328.572" stroke="#750CFF" stroke-miterlimit="10"/>
<path d="M377.35 202.77H382.729L421 129.375H415.621" stroke="#750CFF" stroke-miterlimit="10"/>
<path d="M339.597 185.137H325.904L367.204 147.797H380.897L339.597 185.137Z" fill="#7617FD"/>
<path d="M336.632 162.387H326.362L347.012 143.718H357.282L336.632 162.387Z" fill="white"/>
<path d="M350.466 198.369H347.042L348.828 194.946H352.251L350.466 198.369Z" fill="white"/>
<path d="M372.146 198.369H354.378L356.163 194.946H373.932L372.146 198.369Z" fill="white"/>
<path d="M364.155 196.658H349.647" stroke="white" stroke-miterlimit="10"/>
<path d="M404.138 141.321C403.492 142.561 401.963 143.566 400.723 143.566C399.483 143.566 399.002 142.561 399.648 141.321C400.295 140.081 401.824 139.076 403.064 139.076C404.304 139.076 404.785 140.081 404.138 141.321Z" fill="#C1FF44"/>
<path d="M396.835 154.448C398.105 153.467 398.659 152.057 398.074 151.299C397.488 150.541 395.984 150.722 394.714 151.703C393.445 152.684 392.89 154.093 393.476 154.851C394.061 155.609 395.566 155.429 396.835 154.448Z" fill="#C1FF44"/>
<path d="M391.904 164.784C391.257 166.024 389.728 167.029 388.489 167.029C387.249 167.029 386.768 166.024 387.414 164.784C388.061 163.544 389.59 162.539 390.83 162.539C392.069 162.538 392.55 163.544 391.904 164.784Z" fill="#EE17E4"/>
<path d="M312.224 46.9087H295.662V63.4706H312.224V46.9087Z" fill="#00152C"/>
<path d="M315.438 43.6938H298.876V60.2557H315.438V43.6938Z" fill="#FE2B99"/>
<path d="M311.041 46.0978L301.275 55.8643L303.275 57.8648L313.042 48.0984L311.041 46.0978Z" fill="white"/>
<path d="M303.272 46.0932L301.271 48.0938L311.038 57.8602L313.038 55.8597L303.272 46.0932Z" fill="white"/>
<path d="M50.8993 182.743H190.381" stroke="white" stroke-miterlimit="10"/>
<path d="M54.4996 190.114H43.6124L50.9851 175.373H61.8723L54.4996 190.114Z" fill="white"/>
<path d="M113.228 18.3506L129.979 35.101H162.941" stroke="white" stroke-miterlimit="10"/>
<path d="M114.086 14.7471H94.6528V19.2022H114.086V14.7471Z" fill="white"/>
<path d="M205.424 36.4161L227.013 21.3364H305.002" stroke="white" stroke-miterlimit="10"/>
<path d="M306.303 20.0356H303.701V22.6373H306.303V20.0356Z" fill="white"/>
<path d="M206.966 35.1152H204.365V37.7169H206.966V35.1152Z" fill="white"/>
<path d="M295.005 20.0356H284.184V22.6373H295.005V20.0356Z" fill="white"/>
<path d="M13.8214 90.3832L0.000549316 104.204L0.909803 105.113L14.7307 91.2925L13.8214 90.3832Z" fill="#C1FF44"/>
<path d="M0.909254 90.3847L0 91.2939L13.8209 105.115L14.7301 104.206L0.909254 90.3847Z" fill="#C1FF44"/>
<path d="M343.551 106.546C352.327 106.546 359.441 99.4324 359.441 90.6568C359.441 81.8811 352.327 74.7671 343.551 74.7671C334.776 74.7671 327.662 81.8811 327.662 90.6568C327.662 99.4324 334.776 106.546 343.551 106.546Z" stroke="#C1FF44" stroke-miterlimit="10"/>
<path d="M361.199 73.0093L325.904 108.304" stroke="#EE17E4" stroke-miterlimit="10"/>
<path d="M354.784 46.3533C360.989 40.148 360.989 30.0873 354.784 23.8821C348.579 17.6768 338.518 17.6768 332.313 23.8821C326.107 30.0873 326.107 40.148 332.313 46.3533C338.518 52.5585 348.579 52.5585 354.784 46.3533Z" stroke="#C1FF44" stroke-miterlimit="10"/>
<path d="M361.199 17.4683L325.904 52.7627" stroke="#EE17E4" stroke-miterlimit="10"/>
<path d="M52.5265 139.997H34.6189V145.87H52.5265V139.997Z" fill="#C1FF44"/>
<path d="M34.364 152.016H25.4102V157.889H34.364V152.016Z" fill="#C1FF44"/>
<path d="M51.2698 149.044H42.526V152.016H51.2698V149.044Z" fill="#00152C"/>
<path d="M74.9315 150.53H58.7609V158.169H74.9315V150.53Z" fill="#00152C"/>
<path d="M82.6234 157.889H71.0731V161.675H82.6234V157.889Z" fill="#00152C"/>
<path d="M399.175 46.9087H371.239V55.1896H399.175V46.9087Z" fill="#C1FF44"/>
<path d="M364.525 104.956H397.52V94.9252H364.525V104.956Z" fill="white"/>
<path d="M397.52 94.9258H409.419V88.2389H397.52V94.9258Z" fill="white"/>
<path d="M75.408 1H71.6309V4.77707H75.408V1Z" fill="#EE17E4"/>
<path d="M81.2257 6.81714H77.4487V10.5942H81.2257V6.81714Z" fill="#EE17E4"/>
<path d="M102.532 261.439H88.839L120.109 233.442H133.802L102.532 261.439Z" fill="#EE17E4"/>
<path d="M76.7875 261.439H66.5172L87.1676 242.77H97.4372L76.7875 261.439Z" fill="#EE17E4"/>
</svg>
