<svg width="334" height="161" viewBox="0 0 334 161" fill="none" xmlns="http://www.w3.org/2000/svg">
<rect x="0.666626" y="0.5" width="333.333" height="160" rx="12" fill="#FFE1F4"/>
<g clip-path="url(#clip0_33_50021)">
<path d="M232.81 58.688C227.316 51.629 218.2 48.5715 209.444 47.9567C200.687 47.3419 191.917 48.7363 183.14 48.8419C173.641 48.9565 164.79 49.1169 155.291 49.1043C139.314 49.0828 123.502 49.7853 107.526 49.8155C102.985 49.8241 98.5551 52.6549 96.526 56.8453C94.4969 61.0356 94.9638 66.389 97.6853 70.1386C100.407 73.8881 105.255 75.8584 109.725 75.0308C110.915 74.8106 112.1 74.4081 113.303 74.5229C114.506 74.6378 115.769 75.4811 115.866 76.7236C115.964 77.9849 114.825 79.0244 113.646 79.3746C112.467 79.7248 111.208 79.6096 109.996 79.8036C105.889 80.4606 102.884 85.2139 103.957 89.3547C105.031 93.4954 109.935 96.0679 113.811 94.5232L152.276 95.2569C158.202 97.331 164.128 99.4047 170.055 101.479C174.691 103.101 179.341 104.205 184.142 105.195C193.588 107.144 203.512 107.509 212.753 104.706C221.995 101.903 230.498 95.6662 234.86 86.8075C239.222 77.9488 238.841 66.4358 232.81 58.688Z" fill="#5A3CFF"/>
<path d="M164.357 47.5219C160.361 47.7767 156.364 48.0317 152.367 48.2864C150.103 48.4309 147.798 48.5719 145.592 48.0419C143.385 47.5118 141.253 46.1991 140.293 44.1429C139.333 42.087 139.904 39.2719 141.884 38.1637C143.217 37.4174 144.851 37.5406 146.367 37.7368C147.882 37.9327 149.475 38.1711 150.897 37.6111C152.319 37.0509 153.419 35.3519 152.753 33.9767C152.193 32.8205 150.74 32.4481 149.46 32.3363C148.18 32.2245 146.774 32.1977 145.807 31.3519C144.358 30.0855 144.78 27.5635 146.178 26.2407C147.575 24.9181 149.581 24.5014 151.485 24.2221C156.514 23.4847 161.626 23.3205 166.692 23.7336C172.079 24.1728 177.744 25.1944 180.898 29.5831C184.053 33.9718 183.819 40.7346 179.804 44.3526C176 47.7791 169.465 47.1964 164.357 47.5219Z" fill="#5A3CFF"/>
<path d="M112.599 69.3731C112.599 68.7808 112.119 68.3003 111.526 68.3003C110.934 68.3003 110.454 68.7805 110.454 69.3731C110.454 69.9656 110.934 70.4458 111.526 70.4458C112.119 70.4455 112.599 69.9653 112.599 69.3731Z" stroke="#010100" stroke-width="0.251012" stroke-miterlimit="10" stroke-linecap="round" stroke-linejoin="round"/>
<path d="M111.526 68.3003V53.9536" stroke="#010100" stroke-width="0.251012" stroke-miterlimit="10" stroke-linecap="round" stroke-linejoin="round"/>
<path d="M112.599 69.373H128.453" stroke="#010100" stroke-width="0.251012" stroke-miterlimit="10" stroke-linecap="round" stroke-linejoin="round"/>
<path d="M115.375 52.0762H106.902V54.0868H115.375V52.0762Z" fill="#EFE000"/>
<path d="M139.272 44.9824H101.95V52.5719H139.272V44.9824Z" fill="white"/>
<path d="M104.492 48.9471C104.492 48.4475 104.897 48.0425 105.397 48.0425C105.896 48.0425 106.301 48.4475 106.301 48.9471C106.301 49.4467 105.896 49.8517 105.397 49.8517C104.897 49.8517 104.492 49.4467 104.492 48.9471Z" fill="#FF787F"/>
<path d="M107.884 49.5742H111.737V48.3207H107.884V49.5742Z" stroke="#010100" stroke-width="0.251012" stroke-miterlimit="10" stroke-linecap="round" stroke-linejoin="round"/>
<path d="M124.904 48.3203H132.003" stroke="#010100" stroke-width="0.251012" stroke-miterlimit="10" stroke-linecap="round" stroke-linejoin="round"/>
<path d="M124.904 49.5742H132.003" stroke="#010100" stroke-width="0.251012" stroke-miterlimit="10" stroke-linecap="round" stroke-linejoin="round"/>
<path d="M102.938 45.8696H118.929" stroke="#010100" stroke-width="0.251012" stroke-miterlimit="10" stroke-linecap="round" stroke-linejoin="round"/>
<path d="M188.895 87.9487C188.895 87.3565 188.415 86.876 187.822 86.876C187.23 86.876 186.749 87.3561 186.749 87.9487C186.749 88.5413 187.23 89.0215 187.822 89.0215C188.415 89.0215 188.895 88.541 188.895 87.9487Z" stroke="#010100" stroke-width="0.251012" stroke-miterlimit="10" stroke-linecap="round" stroke-linejoin="round"/>
<path d="M216.414 101.391C217.007 101.391 217.487 100.91 217.487 100.318C217.487 99.7254 217.007 99.2451 216.414 99.2451C215.822 99.2451 215.341 99.7254 215.341 100.318C215.341 100.91 215.822 101.391 216.414 101.391Z" stroke="#010100" stroke-width="0.251012" stroke-miterlimit="10" stroke-linecap="round" stroke-linejoin="round"/>
<path d="M187.822 86.8761V75.9624" stroke="#010100" stroke-width="0.251012" stroke-miterlimit="10" stroke-linecap="round" stroke-linejoin="round"/>
<path d="M188.826 88.3232L215.262 99.7614" stroke="#010100" stroke-width="0.251012" stroke-miterlimit="10" stroke-linecap="round" stroke-linejoin="round"/>
<path d="M216.414 101.39V124.615" stroke="#010100" stroke-width="0.251012" stroke-miterlimit="10" stroke-linecap="round" stroke-linejoin="round"/>
<path d="M222.295 123.609H213.822V125.62H222.295V123.609Z" fill="#EFE000"/>
<path d="M226 125.137H179.352V134.21H226V125.137Z" fill="#010100"/>
<path d="M222.313 129.705C222.313 129.083 221.81 128.58 221.189 128.58C220.568 128.58 220.064 129.084 220.064 129.705C220.064 130.326 220.568 130.829 221.189 130.829C221.81 130.829 222.313 130.326 222.313 129.705Z" stroke="white" stroke-width="0.251012" stroke-miterlimit="10" stroke-linecap="round" stroke-linejoin="round"/>
<path d="M218.611 128.925H213.822V130.484H218.611V128.925Z" fill="#35BEAC"/>
<path d="M195.924 128.925H182.606" stroke="white" stroke-width="0.251012" stroke-miterlimit="10" stroke-linecap="round" stroke-linejoin="round"/>
<path d="M182.606 130.484H195.924" stroke="white" stroke-width="0.251012" stroke-miterlimit="10" stroke-linecap="round" stroke-linejoin="round"/>
<path d="M180.315 126.018H207.902" stroke="white" stroke-width="0.251012" stroke-miterlimit="10" stroke-linecap="round" stroke-linejoin="round"/>
<path d="M137.388 75.6048L191.69 77.3604L178.54 48.4839L154.852 48.705L137.388 75.6048Z" fill="#010100"/>
<path d="M192.901 98.0757L202.047 101.287L197.858 120.269C197.722 120.883 196.902 121.008 196.589 120.462L192.707 113.673C191.541 111.634 189.64 110.118 187.393 109.434L185.001 108.706L192.901 98.0757Z" fill="#010100"/>
<path d="M200.86 101.391C199.482 107.565 198.103 113.739 196.725 119.913" stroke="white" stroke-width="0.251012" stroke-miterlimit="10" stroke-linecap="round" stroke-linejoin="round"/>
<path d="M155.995 133.673L154.48 141.168L135.621 149.77C134.982 150.061 134.35 149.353 134.711 148.751L140.127 139.729C141.597 137.28 142.625 134.592 143.164 131.788L143.291 131.129L155.995 133.673Z" fill="#010100"/>
<path d="M135.122 148.886C141.55 145.736 147.979 142.586 154.408 139.437" stroke="white" stroke-width="0.251012" stroke-miterlimit="10" stroke-linecap="round" stroke-linejoin="round"/>
<path d="M179.004 92.0688C182.156 82.6504 182.886 72.5333 181.336 62.7231L155.728 63.6773C153.559 72.6817 151.041 81.1138 148.873 90.1179C145.516 104.056 143.503 118.812 141.525 133.012C146.679 133.895 151.67 134.947 156.824 135.83C159.578 125.045 161.504 113.99 162.809 102.936C164.163 104.251 165.851 105.296 167.698 105.687C175.234 107.28 182.307 110.023 189.67 112.285C191.164 107.396 192.953 102.414 194.447 97.5253C189.514 95.11 184.352 93.3192 179.004 92.0688Z" fill="#FF787F"/>
<path d="M165.717 76.6704C164.385 82.2754 163.053 87.8804 161.721 93.4854C160.932 96.8028 160.862 100.424 162.813 103.221" stroke="#010100" stroke-width="0.251012" stroke-miterlimit="10" stroke-linecap="round" stroke-linejoin="round"/>
<path d="M179.078 91.939C178.691 92.6877 178.303 93.4362 177.916 94.1849C182.574 95.011 187.109 96.4333 191.401 98.4227" stroke="#010100" stroke-width="0.251012" stroke-miterlimit="10" stroke-linecap="round" stroke-linejoin="round"/>
<path d="M191.943 96.6392C190.301 101.445 188.658 106.25 187.016 111.056" stroke="#010100" stroke-width="0.251012" stroke-miterlimit="10" stroke-linecap="round" stroke-linejoin="round"/>
<path d="M142.036 129.829C147.258 130.771 152.48 131.714 157.702 132.656" stroke="#010100" stroke-width="0.251012" stroke-miterlimit="10" stroke-linecap="round" stroke-linejoin="round"/>
<path d="M161.466 100.317C160.211 110.984 158.228 121.565 155.535 131.962" stroke="#010100" stroke-width="0.251012" stroke-miterlimit="10" stroke-linecap="round" stroke-linejoin="round"/>
<path d="M157.694 64.0054C156.413 66.154 155.131 68.3023 153.85 70.4509" stroke="#010100" stroke-width="0.251012" stroke-miterlimit="10" stroke-linecap="round" stroke-linejoin="round"/>
<path d="M176.689 64.8984C176.914 67.656 178.951 70.1769 181.599 70.9768" stroke="#010100" stroke-width="0.251012" stroke-miterlimit="10" stroke-linecap="round" stroke-linejoin="round"/>
<path d="M174.719 40.6372C172.975 40.5746 171.177 40.6446 169.433 40.582C169.235 41.3237 168.514 41.8923 167.746 41.9114C166.978 41.9305 166.015 41.5254 165.781 40.7945C164.23 41.0151 162.679 41.2353 161.128 41.4558C158.348 43.6765 156.203 46.9231 155.372 50.3832C154.508 53.9782 154.536 57.6215 154.178 61.3015C154.077 62.3345 154.669 63.2832 155.455 63.9611L179.878 65.2387C178.582 56.9039 176.796 48.8121 174.719 40.6372Z" fill="white"/>
<path d="M163.178 41.6002C164.099 43.0499 165.839 43.9379 167.553 43.8325C169.267 43.7269 170.885 42.6323 171.621 41.0806" stroke="#010100" stroke-width="0.251012" stroke-miterlimit="10" stroke-linecap="round" stroke-linejoin="round"/>
<path d="M161.339 44.7686C161.571 44.9752 161.804 45.1816 162.036 45.3882" stroke="#EFE000" stroke-width="0.251012" stroke-miterlimit="10" stroke-linecap="round" stroke-linejoin="round"/>
<path d="M164.878 46.3047C164.751 46.5382 164.624 46.7716 164.497 47.0051" stroke="#EFE000" stroke-width="0.251012" stroke-miterlimit="10" stroke-linecap="round" stroke-linejoin="round"/>
<path d="M161.494 48.7959C161.261 48.8476 161.029 48.8991 160.797 48.9508" stroke="#EFE000" stroke-width="0.251012" stroke-miterlimit="10" stroke-linecap="round" stroke-linejoin="round"/>
<path d="M164.979 51.1973C165.186 51.5071 165.392 51.817 165.599 52.1268" stroke="#EFE000" stroke-width="0.251012" stroke-miterlimit="10" stroke-linecap="round" stroke-linejoin="round"/>
<path d="M158.086 52.9009C158.266 53.1334 158.447 53.3657 158.628 53.5979" stroke="#EFE000" stroke-width="0.251012" stroke-miterlimit="10" stroke-linecap="round" stroke-linejoin="round"/>
<path d="M161.866 54.9817C162.125 54.6207 162.384 54.2594 162.642 53.8984" stroke="#EFE000" stroke-width="0.251012" stroke-miterlimit="10" stroke-linecap="round" stroke-linejoin="round"/>
<path d="M157.546 57.2209C157.133 57.1667 156.721 57.1125 156.308 57.0586" stroke="#EFE000" stroke-width="0.251012" stroke-miterlimit="10" stroke-linecap="round" stroke-linejoin="round"/>
<path d="M158.717 60.335C158.773 60.7991 158.828 61.2636 158.883 61.7277" stroke="#EFE000" stroke-width="0.251012" stroke-miterlimit="10" stroke-linecap="round" stroke-linejoin="round"/>
<path d="M162.888 60.0266C163.249 59.9235 163.611 59.82 163.973 59.7168" stroke="#EFE000" stroke-width="0.251012" stroke-miterlimit="10" stroke-linecap="round" stroke-linejoin="round"/>
<path d="M166.586 56.6878C166.716 56.3789 166.848 56.07 166.979 55.7607" stroke="#EFE000" stroke-width="0.251012" stroke-miterlimit="10" stroke-linecap="round" stroke-linejoin="round"/>
<path d="M169.776 54.2363C170.06 54.3146 170.343 54.3931 170.627 54.4713" stroke="#EFE000" stroke-width="0.251012" stroke-miterlimit="10" stroke-linecap="round" stroke-linejoin="round"/>
<path d="M169.239 57.5483C169.213 57.9614 169.188 58.3744 169.162 58.7877" stroke="#EFE000" stroke-width="0.251012" stroke-miterlimit="10" stroke-linecap="round" stroke-linejoin="round"/>
<path d="M167.07 61.7305C167.174 62.0144 167.277 62.2984 167.38 62.5824" stroke="#EFE000" stroke-width="0.251012" stroke-miterlimit="10" stroke-linecap="round" stroke-linejoin="round"/>
<path d="M172.567 62.4177C172.929 62.3157 173.29 62.2138 173.652 62.1118" stroke="#EFE000" stroke-width="0.251012" stroke-miterlimit="10" stroke-linecap="round" stroke-linejoin="round"/>
<path d="M173.731 58.168C174.17 58.168 174.609 58.168 175.048 58.168" stroke="#EFE000" stroke-width="0.251012" stroke-miterlimit="10" stroke-linecap="round" stroke-linejoin="round"/>
<path d="M173.428 50.2695C173.301 50.7349 173.174 51.2 173.047 51.6654" stroke="#EFE000" stroke-width="0.251012" stroke-miterlimit="10" stroke-linecap="round" stroke-linejoin="round"/>
<path d="M168.232 48.9507C168.361 49.1829 168.491 49.4155 168.62 49.6477" stroke="#EFE000" stroke-width="0.251012" stroke-miterlimit="10" stroke-linecap="round" stroke-linejoin="round"/>
<path d="M171.253 45.3878C171.563 45.207 171.873 45.0265 172.183 44.8457" stroke="#EFE000" stroke-width="0.251012" stroke-miterlimit="10" stroke-linecap="round" stroke-linejoin="round"/>
<path d="M168.31 45.001C168.31 45.1559 168.31 45.3108 168.31 45.4657" stroke="#EFE000" stroke-width="0.251012" stroke-miterlimit="10" stroke-linecap="round" stroke-linejoin="round"/>
<path d="M176.757 63.1411C177.118 63.0364 177.479 62.9314 177.84 62.8267" stroke="#EFE000" stroke-width="0.251012" stroke-miterlimit="10" stroke-linecap="round" stroke-linejoin="round"/>
<path d="M155.576 61.8184C155.658 62.0746 155.742 62.3312 155.824 62.5874" stroke="#EFE000" stroke-width="0.251012" stroke-miterlimit="10" stroke-linecap="round" stroke-linejoin="round"/>
<path d="M225.04 43.7885C224.354 43.9092 223.711 44.0398 223.025 44.1605C223.429 43.7608 223.789 43.3286 224.193 42.9288C224.428 42.6957 224.44 42.2303 224.228 41.9756C221.792 43.3758 218.991 44.3761 216.265 45.0562C213.568 45.7292 210.667 45.6922 208.012 46.5167L209.72 54.8032C210.582 54.4554 211.489 54.1176 212.351 53.7698C214.262 54.1767 215.928 53.2123 217.528 52.0934C219.105 50.9914 220.765 49.8111 222.342 48.7091C222.255 48.3999 221.94 48.1981 221.623 48.1476C221.306 48.0971 221.037 48.1836 220.724 48.2576C219.321 48.5893 217.972 48.8591 216.568 49.1908C216.953 48.7818 217.339 48.3724 217.724 47.9631C217.724 47.9631 218.984 47.4315 220.481 46.7557C221.107 46.7385 221.733 46.7212 222.359 46.704C222.552 46.6988 222.752 46.6923 222.929 46.615C223.107 46.5377 223.307 46.3424 223.309 46.1487C222.99 46.0618 222.671 45.9753 222.351 45.8884C223.089 45.5348 223.786 45.1843 224.323 44.8806C224.736 44.6478 225.091 44.2591 225.04 43.7885Z" fill="#FFACE0"/>
<path d="M217.688 45.0401C219.604 44.9769 221.51 44.6428 223.334 44.0508" stroke="#010100" stroke-width="0.251012" stroke-miterlimit="10" stroke-linecap="round" stroke-linejoin="round"/>
<path d="M220.431 46.8095C221.191 46.4458 221.952 46.082 222.712 45.7183" stroke="#010100" stroke-width="0.251012" stroke-miterlimit="10" stroke-linecap="round" stroke-linejoin="round"/>
<path d="M216.648 49.1636C216.379 49.2698 216.108 49.3761 215.839 49.4827" stroke="#010100" stroke-width="0.251012" stroke-miterlimit="10" stroke-linecap="round" stroke-linejoin="round"/>
<path d="M159.015 30.9956C158.888 32.1568 159.304 33.3663 160.118 34.204C160.932 35.0418 162.128 35.4924 163.293 35.3991" stroke="#010100" stroke-width="0.251012" stroke-miterlimit="10" stroke-linecap="round" stroke-linejoin="round"/>
<path d="M179.003 25.1294C179.373 25.8932 179.399 26.8163 179.071 27.5996C178.744 28.3825 178.069 29.013 177.266 29.2865C176.616 29.5076 175.914 29.5002 175.227 29.4867C174.541 29.4731 173.84 29.4574 173.185 29.6644C172.53 29.8711 171.918 30.3454 171.738 31.0079" stroke="#010100" stroke-width="0.251012" stroke-miterlimit="10" stroke-linecap="round" stroke-linejoin="round"/>
<path d="M186.556 25.0122L184.703 25.0171C184.752 25.7905 184.608 26.6582 184.271 27.3025C184.294 26.5319 184.19 25.7597 183.977 25.019L179.792 25.0298C180.021 26.0172 179.808 27.0986 179.221 27.9253C178.635 28.7519 177.685 29.3107 176.677 29.4206C175.461 29.5537 174.248 29.0639 173.027 29.1373C171.987 29.1998 170.979 29.6895 170.287 30.4687C169.71 31.1189 169.364 31.9644 169.299 32.8305C169.157 32.7319 169.009 32.6414 168.853 32.5659C168.638 31.9668 168.332 31.4386 168.117 30.8396L161.874 30.8876C161.718 31.4429 161.721 32.0719 161.894 32.5924C161.475 32.1264 161.222 31.5172 161.175 30.8932L159.715 30.9042C159.411 31.973 159.639 33.1791 160.312 34.0634C160.985 34.9474 162.087 35.4885 163.198 35.4802C163.822 36.784 165.01 37.8312 166.43 38.1019C167.849 38.3726 169.386 37.9313 170.446 36.9484C171.055 36.3833 170.825 35.1195 170.516 34.348C170.415 34.0964 170.28 33.8595 170.122 33.6399C170.485 33.2072 171.024 32.9632 171.625 32.933C172.421 32.8933 173.198 33.1822 173.903 33.553C174.608 33.9239 175.266 34.3803 175.988 34.7185C177.796 35.5668 179.954 35.6089 181.813 34.879C183.672 34.149 185.213 32.6675 186.063 30.8605C186.912 29.0532 187.073 26.9412 186.556 25.0122Z" fill="#010100"/>
<path d="M170.71 41.0549C170.42 41.061 170.156 41.0253 169.865 41.0315C169.757 40.2183 169.657 39.485 169.549 38.6719C170.172 38.6762 170.781 38.2924 171.046 37.7285C171.311 37.1645 171.217 36.4506 170.816 35.9741C170.415 35.4973 169.714 35.3482 169.113 35.5127C169.057 35.6877 168.981 35.9341 168.925 36.109C168.046 36.3902 167.044 36.2627 166.263 35.7699C165.482 35.2771 164.935 34.4283 164.81 33.5132C163.9 33.6675 163.094 34.314 162.913 35.2195C162.721 36.1814 162.541 37.1245 162.664 38.0978C162.811 39.2731 163.983 40.1644 165.162 40.2876C165.17 40.6458 165.203 40.9344 165.211 41.2926C164.94 41.308 164.651 41.4617 164.38 41.4771C165.095 42.4781 166.308 43.0797 167.536 43.0094C168.764 42.9389 170.113 42.1307 170.71 41.0549Z" fill="#FFACE0"/>
<path d="M163.677 37.0994C163.847 37.0994 163.985 36.9615 163.985 36.7914C163.985 36.6213 163.847 36.4834 163.677 36.4834C163.507 36.4834 163.369 36.6213 163.369 36.7914C163.369 36.9615 163.507 37.0994 163.677 37.0994Z" fill="#010100"/>
<path d="M166.819 37.1829C166.989 37.1829 167.127 37.045 167.127 36.8749C167.127 36.7048 166.989 36.5669 166.819 36.5669C166.649 36.5669 166.511 36.7048 166.511 36.8749C166.511 37.045 166.649 37.1829 166.819 37.1829Z" fill="#010100"/>
<path d="M164.921 36.6548C164.863 36.9646 164.805 37.2745 164.746 37.5843C164.85 37.5843 164.915 37.6619 165.018 37.6619" stroke="#010100" stroke-width="0.251012" stroke-miterlimit="10" stroke-linecap="round" stroke-linejoin="round"/>
<path d="M165.62 38.029C165.656 38.1544 165.795 38.2406 165.923 38.2166C166.052 38.1929 166.151 38.0626 166.14 37.9326" stroke="#010100" stroke-width="0.251012" stroke-miterlimit="10" stroke-linecap="round" stroke-linejoin="round"/>
<path d="M169.475 36.8356C169.706 36.7164 169.937 36.5972 170.167 36.478" stroke="#010100" stroke-width="0.251012" stroke-miterlimit="10" stroke-linecap="round" stroke-linejoin="round"/>
<path d="M169.317 38.7287C169.42 38.7222 169.523 38.7155 169.627 38.709" stroke="#010100" stroke-width="0.251012" stroke-miterlimit="10" stroke-linecap="round" stroke-linejoin="round"/>
<path d="M165.014 40.3972C166.054 40.5654 167.152 40.3486 168.05 39.7979" stroke="#010100" stroke-width="0.251012" stroke-miterlimit="10" stroke-linecap="round" stroke-linejoin="round"/>
<path d="M164.772 33.4604C164.652 34.2739 164.966 35.1387 165.581 35.6848" stroke="#010100" stroke-width="0.251012" stroke-miterlimit="10" stroke-linecap="round" stroke-linejoin="round"/>
<path d="M163.097 35.2879C163.207 35.0776 163.418 34.9233 163.652 34.8826C163.886 34.842 164.137 34.9153 164.312 35.0757" stroke="#010100" stroke-width="0.251012" stroke-miterlimit="10" stroke-linecap="round" stroke-linejoin="round"/>
<path d="M140.382 35.8357C140.566 34.7747 140.351 33.6496 139.789 32.7305C139.228 31.8114 138.184 31.4846 137.363 30.787C136.009 29.6351 134.719 28.4293 133.365 27.2773C133.083 27.4421 132.949 27.788 132.95 28.1139C132.951 28.4397 133.064 28.7536 133.176 29.0597C133.595 30.2073 134.014 31.355 134.434 32.5026C133.477 32.7314 132.543 32.8087 131.586 33.0376C130.724 32.9372 129.978 32.8414 129.116 32.7406C128.288 31.7976 127.293 30.9693 126.465 30.0262C126.305 29.8439 126.139 29.6566 125.92 29.5501C125.702 29.4438 125.416 29.4377 125.236 29.6006C125.513 30.2027 125.756 30.8307 126.033 31.4329C125.477 31.0525 124.867 30.6142 124.311 30.2338C124.118 30.102 123.82 29.9668 123.587 29.9874C123.355 30.0081 123.133 30.1282 122.988 30.3115C123.438 30.8772 123.875 31.4033 124.325 31.9688C123.938 31.9565 123.494 31.9285 123.106 31.9161C122.746 31.9047 122.3 32.1367 122.224 32.489C123.194 32.745 124.067 33.1906 124.902 33.7469C124.513 33.8245 124.101 33.8741 123.712 33.9517C123.455 34.0028 123.191 34.2049 123.184 34.4661C127.27 35.0771 131.064 37.3268 133.639 40.5568L141.504 39.0309C141.196 37.9209 140.813 36.9048 140.382 35.8357Z" fill="#FFACE0"/>
<path d="M131.623 32.9688C132.84 33.1656 134.056 33.3627 135.272 33.5595" stroke="#010100" stroke-width="0.251012" stroke-miterlimit="10" stroke-linecap="round" stroke-linejoin="round"/>
<path d="M125.855 31.1421C126.499 32.4911 127.144 33.8405 127.788 35.1895" stroke="#010100" stroke-width="0.251012" stroke-miterlimit="10" stroke-linecap="round" stroke-linejoin="round"/>
<path d="M124.124 31.7559C125.163 32.9109 126.202 34.0656 127.241 35.2206" stroke="#010100" stroke-width="0.251012" stroke-miterlimit="10" stroke-linecap="round" stroke-linejoin="round"/>
<path d="M124.674 33.5796C125.374 34.0231 126.041 34.5178 126.669 35.058" stroke="#010100" stroke-width="0.251012" stroke-miterlimit="10" stroke-linecap="round" stroke-linejoin="round"/>
<path d="M155.492 40.4936C155.589 40.9584 155.685 41.3792 155.781 41.8439C151.979 43.3023 148.054 44.5904 144.252 46.0487C143.493 42.6139 142.722 39.2364 141.962 35.8013C138.645 37.3028 135.367 38.5452 132.051 40.0467C132.909 43.6993 133.761 47.5173 134.619 51.1699C135.161 53.478 137.284 55.285 139.467 56.2121C141.649 57.1389 144.217 57.113 146.38 56.1422C140.813 61.3218 133.365 64.7594 125.822 65.7185L132.866 78.2169C136.963 78.228 140.806 75.991 143.629 73.0221C146.451 70.0533 148.411 66.3881 150.335 62.7719C154.205 55.4985 158.076 48.2254 161.946 40.952C159.815 40.8223 157.623 40.6236 155.492 40.4936Z" fill="#EFE000"/>
<path d="M155.781 41.8438L156.838 48.989L154.166 47.7275L153.837 55.1669" stroke="#010100" stroke-width="0.251012" stroke-miterlimit="10" stroke-linecap="round" stroke-linejoin="round"/>
<path d="M144.246 45.8799C144.018 46.1805 143.79 46.4808 143.562 46.7814" stroke="#010100" stroke-width="0.251012" stroke-miterlimit="10" stroke-linecap="round" stroke-linejoin="round"/>
<path d="M132.803 42.292C135.989 40.9081 139.175 39.524 142.36 38.1401" stroke="#010100" stroke-width="0.251012" stroke-miterlimit="10" stroke-linecap="round" stroke-linejoin="round"/>
<path d="M146.087 56.3953C150.256 52.4442 153.537 47.5624 155.621 42.2109" stroke="#010100" stroke-width="0.251012" stroke-miterlimit="10" stroke-linecap="round" stroke-linejoin="round"/>
<path d="M147.808 64.6806C147.808 64.3415 147.533 64.0664 147.194 64.0664C146.855 64.0664 146.58 64.3415 146.58 64.6806C146.58 65.0197 146.855 65.2947 147.194 65.2947C147.533 65.2944 147.808 65.0197 147.808 64.6806Z" stroke="#010100" stroke-width="0.251012" stroke-miterlimit="10" stroke-linecap="round" stroke-linejoin="round"/>
<path d="M144.498 68.7587C144.498 68.4196 144.223 68.1445 143.884 68.1445C143.545 68.1445 143.27 68.4196 143.27 68.7587C143.27 69.0978 143.545 69.3728 143.884 69.3728C144.223 69.3728 144.498 69.0978 144.498 68.7587Z" stroke="#010100" stroke-width="0.251012" stroke-miterlimit="10" stroke-linecap="round" stroke-linejoin="round"/>
<path d="M128.705 65.8496C130.843 69.699 132.981 73.5487 135.119 77.3981" stroke="#010100" stroke-width="0.251012" stroke-miterlimit="10" stroke-linecap="round" stroke-linejoin="round"/>
<path d="M199.182 60.4503C203.175 58.8537 207.353 57.431 211.346 55.8343C210.219 52.3952 209.319 48.929 208.192 45.4898C203.785 46.8056 199.202 48.2258 194.794 49.5416C191.794 46.7169 188.765 44.0995 185.178 42.0717C183.033 40.8587 180.57 40.1528 178.106 40.2227C178.281 39.6033 178.428 39.0037 178.603 38.3843C176.71 38.8678 174.73 39.5639 172.837 40.0472C174.082 48.1694 175.91 56.2024 178.3 64.0641C179.594 68.32 181.66 72.3231 184.31 75.8956C186.961 79.4681 190.583 82.4711 194.876 83.6341L201.906 64.0869C198.399 64.0234 195.098 62.6744 192.195 60.705C194.424 61.293 197.04 61.3069 199.182 60.4503Z" fill="#EFE000"/>
<path d="M178.106 40.2222L175.148 48.1372L178.108 47.0145L176.094 54.1786" stroke="#010100" stroke-width="0.251012" stroke-miterlimit="10" stroke-linecap="round" stroke-linejoin="round"/>
<path d="M180.397 40.3042C179.933 40.9547 179.749 41.7709 179.737 42.5692C179.724 43.3679 179.873 44.1591 180.02 44.9439C180.238 46.1011 180.455 47.2579 180.672 48.4148C181.737 54.0804 187.106 58.3407 192.27 60.9032" stroke="#010100" stroke-width="0.251012" stroke-miterlimit="10" stroke-linecap="round" stroke-linejoin="round"/>
<path d="M194.799 49.415C194.67 49.7249 194.541 50.0347 194.412 50.3446" stroke="#010100" stroke-width="0.251012" stroke-miterlimit="10" stroke-linecap="round" stroke-linejoin="round"/>
<path d="M206.291 46.0767C207.266 49.468 208.24 52.8594 209.215 56.2508" stroke="#010100" stroke-width="0.251012" stroke-miterlimit="10" stroke-linecap="round" stroke-linejoin="round"/>
<path d="M192.579 82.1106C194.371 77.3899 196.163 72.6694 197.955 67.9487" stroke="#010100" stroke-width="0.251012" stroke-miterlimit="10" stroke-linecap="round" stroke-linejoin="round"/>
<path d="M141.955 107.893H113.786C113.167 107.893 112.632 107.463 112.498 106.859L108.149 87.228C108.024 86.6641 108.453 86.1294 109.031 86.1294H137.201C137.819 86.1294 138.355 86.5594 138.489 87.1633L142.837 106.794C142.963 107.358 142.533 107.893 141.955 107.893Z" fill="#010100"/>
<path d="M108.728 86.4702L113.393 107.073H142.32" stroke="white" stroke-width="0.251012" stroke-miterlimit="10" stroke-linecap="round" stroke-linejoin="round"/>
<path d="M141.593 106.214H116.066L111.73 86.6401H137.257L141.593 106.214Z" fill="#35BEAC"/>
<path d="M127.353 88.8176C129.391 88.8216 131.429 88.8074 133.466 88.7754" stroke="white" stroke-width="0.251012" stroke-miterlimit="10" stroke-linecap="round" stroke-linejoin="round"/>
<path d="M122.641 88.7754C123.611 88.7908 124.582 88.8022 125.552 88.8093" stroke="white" stroke-width="0.251012" stroke-miterlimit="10" stroke-linecap="round" stroke-linejoin="round"/>
<path d="M115.135 88.7754C117.01 88.7754 118.886 88.7754 120.761 88.7754" stroke="#EFE000" stroke-width="0.251012" stroke-miterlimit="10" stroke-linecap="round" stroke-linejoin="round"/>
<path d="M115.631 90.9165C120.944 90.8078 126.211 90.8078 131.331 90.9165" stroke="white" stroke-width="0.251012" stroke-miterlimit="10" stroke-linecap="round" stroke-linejoin="round"/>
<path d="M121.327 93.0571C125.553 93.112 130.162 93.112 134.457 93.0571" stroke="#EFE000" stroke-width="0.251012" stroke-miterlimit="10" stroke-linecap="round" stroke-linejoin="round"/>
<path d="M116.126 93.0571C117.297 93.0571 118.469 93.0571 119.64 93.0571" stroke="#FFACE0" stroke-width="0.251012" stroke-miterlimit="10" stroke-linecap="round" stroke-linejoin="round"/>
<path d="M127.958 95.1299C129.468 95.1434 130.977 95.1662 132.487 95.1976" stroke="#FFACE0" stroke-width="0.251012" stroke-miterlimit="10" stroke-linecap="round" stroke-linejoin="round"/>
<path d="M116.622 95.1978C119.57 95.1365 122.519 95.1087 125.468 95.1158" stroke="white" stroke-width="0.251012" stroke-miterlimit="10" stroke-linecap="round" stroke-linejoin="round"/>
<path d="M117.117 97.3384C121.603 97.391 126.541 97.391 131.165 97.3384" stroke="white" stroke-width="0.251012" stroke-miterlimit="10" stroke-linecap="round" stroke-linejoin="round"/>
<path d="M123.706 99.4028C127.52 99.3801 131.335 99.4075 135.149 99.4795" stroke="white" stroke-width="0.251012" stroke-miterlimit="10" stroke-linecap="round" stroke-linejoin="round"/>
<path d="M117.612 99.4792C119.122 99.4506 120.631 99.429 122.141 99.4146" stroke="white" stroke-width="0.251012" stroke-miterlimit="10" stroke-linecap="round" stroke-linejoin="round"/>
<path d="M131.549 101.62C133.178 101.62 134.808 101.62 136.438 101.62" stroke="#FFACE0" stroke-width="0.251012" stroke-miterlimit="10" stroke-linecap="round" stroke-linejoin="round"/>
<path d="M118.107 101.62C121.932 101.671 125.882 101.671 129.941 101.62" stroke="#EFE000" stroke-width="0.251012" stroke-miterlimit="10" stroke-linecap="round" stroke-linejoin="round"/>
<path d="M125.159 103.675C127.244 103.676 129.33 103.704 131.415 103.761" stroke="white" stroke-width="0.251012" stroke-miterlimit="10" stroke-linecap="round" stroke-linejoin="round"/>
<path d="M118.603 103.761C120.037 103.723 121.471 103.697 122.906 103.684" stroke="white" stroke-width="0.251012" stroke-miterlimit="10" stroke-linecap="round" stroke-linejoin="round"/>
<path d="M133.486 23.2895L121.973 25.8943C121.575 25.9845 121.178 25.7345 121.088 25.3356L119.939 20.2557C119.849 19.8569 120.099 19.4605 120.498 19.3702L132.01 16.7655C132.409 16.6752 132.806 16.9253 132.896 17.3242L134.045 22.404C134.135 22.8029 133.885 23.1993 133.486 23.2895Z" fill="#FF787F"/>
<path d="M120.482 19.9692L121.721 25.3272L133.688 22.6482" stroke="#010100" stroke-width="0.251012" stroke-miterlimit="10" stroke-linecap="round" stroke-linejoin="round"/>
<path d="M120.203 20.4087L119.01 20.9123" stroke="#010100" stroke-width="0.251012" stroke-miterlimit="10" stroke-linecap="round" stroke-linejoin="round"/>
<path d="M120.376 21.3301L119.274 21.9581" stroke="#010100" stroke-width="0.251012" stroke-miterlimit="10" stroke-linecap="round" stroke-linejoin="round"/>
<path d="M120.676 22.6484L119.606 23.2028" stroke="#010100" stroke-width="0.251012" stroke-miterlimit="10" stroke-linecap="round" stroke-linejoin="round"/>
<path d="M119.825 24.2817L121.131 23.8169" stroke="#010100" stroke-width="0.251012" stroke-miterlimit="10" stroke-linecap="round" stroke-linejoin="round"/>
<path d="M120.203 25.801L121.373 25.0947" stroke="#010100" stroke-width="0.251012" stroke-miterlimit="10" stroke-linecap="round" stroke-linejoin="round"/>
<path d="M122.447 25.5981L122.689 26.876" stroke="#010100" stroke-width="0.251012" stroke-miterlimit="10" stroke-linecap="round" stroke-linejoin="round"/>
<path d="M123.313 25.3271L123.63 26.4501" stroke="#010100" stroke-width="0.251012" stroke-miterlimit="10" stroke-linecap="round" stroke-linejoin="round"/>
<path d="M124.493 25.0947L124.786 26.2374" stroke="#010100" stroke-width="0.251012" stroke-miterlimit="10" stroke-linecap="round" stroke-linejoin="round"/>
<path d="M125.683 24.8667L126.053 26.0245" stroke="#010100" stroke-width="0.251012" stroke-miterlimit="10" stroke-linecap="round" stroke-linejoin="round"/>
<path d="M127.241 24.5137L127.493 25.8886" stroke="#010100" stroke-width="0.251012" stroke-miterlimit="10" stroke-linecap="round" stroke-linejoin="round"/>
<path d="M128.344 24.2817L128.808 25.4457" stroke="#010100" stroke-width="0.251012" stroke-miterlimit="10" stroke-linecap="round" stroke-linejoin="round"/>
<path d="M129.738 23.8169L130.009 25.1949" stroke="#010100" stroke-width="0.251012" stroke-miterlimit="10" stroke-linecap="round" stroke-linejoin="round"/>
<path d="M131.097 23.5845L131.35 24.8664" stroke="#010100" stroke-width="0.251012" stroke-miterlimit="10" stroke-linecap="round" stroke-linejoin="round"/>
<path d="M132.278 23.2026L132.803 24.5889" stroke="#010100" stroke-width="0.251012" stroke-miterlimit="10" stroke-linecap="round" stroke-linejoin="round"/>
<path d="M133.448 23.0513L133.879 24.2814" stroke="#010100" stroke-width="0.251012" stroke-miterlimit="10" stroke-linecap="round" stroke-linejoin="round"/>
<path d="M211.038 35.5902H199.363C199.095 35.5902 198.879 35.3733 198.879 35.106V30.1228C198.879 29.8555 199.095 29.6387 199.363 29.6387H211.038C211.306 29.6387 211.523 29.8555 211.523 30.1228V35.106C211.523 35.3733 211.306 35.5902 211.038 35.5902Z" fill="#FFACE0"/>
<path d="M199.407 30.0132V34.9892H211.038" stroke="#010100" stroke-width="0.251012" stroke-miterlimit="10" stroke-linecap="round" stroke-linejoin="round"/>
<path d="M199.407 30.3638L198.169 30.5932" stroke="#010100" stroke-width="0.251012" stroke-miterlimit="10" stroke-linecap="round" stroke-linejoin="round"/>
<path d="M199.407 31.374L198.169 31.5927" stroke="#010100" stroke-width="0.251012" stroke-miterlimit="10" stroke-linecap="round" stroke-linejoin="round"/>
<path d="M199.407 32.5195L198.026 32.9141" stroke="#010100" stroke-width="0.251012" stroke-miterlimit="10" stroke-linecap="round" stroke-linejoin="round"/>
<path d="M199.407 33.4595L197.936 33.8241" stroke="#010100" stroke-width="0.251012" stroke-miterlimit="10" stroke-linecap="round" stroke-linejoin="round"/>
<path d="M199.407 34.5049L197.858 34.844" stroke="#010100" stroke-width="0.251012" stroke-miterlimit="10" stroke-linecap="round" stroke-linejoin="round"/>
<path d="M199.988 34.9893L200.004 36.5065" stroke="#010100" stroke-width="0.251012" stroke-miterlimit="10" stroke-linecap="round" stroke-linejoin="round"/>
<path d="M201.034 35.0264L201.089 36.5217" stroke="#010100" stroke-width="0.251012" stroke-miterlimit="10" stroke-linecap="round" stroke-linejoin="round"/>
<path d="M202.312 35.0264L202.251 36.4758" stroke="#010100" stroke-width="0.251012" stroke-miterlimit="10" stroke-linecap="round" stroke-linejoin="round"/>
<path d="M203.667 34.9995L203.722 36.4758" stroke="#010100" stroke-width="0.251012" stroke-miterlimit="10" stroke-linecap="round" stroke-linejoin="round"/>
<path d="M204.723 35.0264L204.807 36.7044" stroke="#010100" stroke-width="0.251012" stroke-miterlimit="10" stroke-linecap="round" stroke-linejoin="round"/>
<path d="M205.991 35.0264L205.968 36.3446" stroke="#010100" stroke-width="0.251012" stroke-miterlimit="10" stroke-linecap="round" stroke-linejoin="round"/>
<path d="M207.153 35.0264L207.246 36.4758" stroke="#010100" stroke-width="0.251012" stroke-miterlimit="10" stroke-linecap="round" stroke-linejoin="round"/>
<path d="M208.352 34.9995L208.407 36.5216" stroke="#010100" stroke-width="0.251012" stroke-miterlimit="10" stroke-linecap="round" stroke-linejoin="round"/>
<path d="M209.828 35.0264L209.882 36.5066" stroke="#010100" stroke-width="0.251012" stroke-miterlimit="10" stroke-linecap="round" stroke-linejoin="round"/>
<path d="M210.83 35.0264L210.885 36.5217" stroke="#010100" stroke-width="0.251012" stroke-miterlimit="10" stroke-linecap="round" stroke-linejoin="round"/>
<path d="M229.595 36.7452H214.896C214.628 36.7452 214.411 36.5284 214.411 36.261V20.7073C214.411 20.44 214.628 20.2231 214.896 20.2231H229.595C229.862 20.2231 230.079 20.44 230.079 20.7073V36.261C230.079 36.5284 229.862 36.7452 229.595 36.7452Z" fill="#EFE000"/>
<path d="M214.969 20.373V36.1349H229.459" stroke="#010100" stroke-width="0.251012" stroke-miterlimit="10" stroke-linecap="round" stroke-linejoin="round"/>
<path d="M213.577 21.0282L214.969 20.8345" stroke="#010100" stroke-width="0.251012" stroke-miterlimit="10" stroke-linecap="round" stroke-linejoin="round"/>
<path d="M213.577 21.9805L214.969 21.8027" stroke="#010100" stroke-width="0.251012" stroke-miterlimit="10" stroke-linecap="round" stroke-linejoin="round"/>
<path d="M213.577 23.2357L214.969 23.042" stroke="#010100" stroke-width="0.251012" stroke-miterlimit="10" stroke-linecap="round" stroke-linejoin="round"/>
<path d="M213.577 24.3976L214.969 24.2427" stroke="#010100" stroke-width="0.251012" stroke-miterlimit="10" stroke-linecap="round" stroke-linejoin="round"/>
<path d="M213.344 26.0123L214.969 25.8965" stroke="#010100" stroke-width="0.251012" stroke-miterlimit="10" stroke-linecap="round" stroke-linejoin="round"/>
<path d="M213.577 27.1861L214.969 26.915" stroke="#010100" stroke-width="0.251012" stroke-miterlimit="10" stroke-linecap="round" stroke-linejoin="round"/>
<path d="M213.577 28.484L214.969 28.3208" stroke="#010100" stroke-width="0.251012" stroke-miterlimit="10" stroke-linecap="round" stroke-linejoin="round"/>
<path d="M213.577 29.6841L214.969 29.4707" stroke="#010100" stroke-width="0.251012" stroke-miterlimit="10" stroke-linecap="round" stroke-linejoin="round"/>
<path d="M213.577 30.7875L214.969 30.5962" stroke="#010100" stroke-width="0.251012" stroke-miterlimit="10" stroke-linecap="round" stroke-linejoin="round"/>
<path d="M213.577 31.9282H214.969" stroke="#010100" stroke-width="0.251012" stroke-miterlimit="10" stroke-linecap="round" stroke-linejoin="round"/>
<path d="M213.577 33.2274L214.969 33.1113" stroke="#010100" stroke-width="0.251012" stroke-miterlimit="10" stroke-linecap="round" stroke-linejoin="round"/>
<path d="M213.577 34.4665L214.969 34.2983" stroke="#010100" stroke-width="0.251012" stroke-miterlimit="10" stroke-linecap="round" stroke-linejoin="round"/>
<path d="M213.577 35.8654L214.872 35.5903" stroke="#010100" stroke-width="0.251012" stroke-miterlimit="10" stroke-linecap="round" stroke-linejoin="round"/>
<path d="M215.623 36.1807L215.438 37.8091" stroke="#010100" stroke-width="0.251012" stroke-miterlimit="10" stroke-linecap="round" stroke-linejoin="round"/>
<path d="M216.718 36.166L216.648 37.8997" stroke="#010100" stroke-width="0.251012" stroke-miterlimit="10" stroke-linecap="round" stroke-linejoin="round"/>
<path d="M218.229 36.1353L217.996 37.8092" stroke="#010100" stroke-width="0.251012" stroke-miterlimit="10" stroke-linecap="round" stroke-linejoin="round"/>
<path d="M219.717 36.166L219.507 37.8092" stroke="#010100" stroke-width="0.251012" stroke-miterlimit="10" stroke-linecap="round" stroke-linejoin="round"/>
<path d="M220.994 36.1807L220.901 37.8996" stroke="#010100" stroke-width="0.251012" stroke-miterlimit="10" stroke-linecap="round" stroke-linejoin="round"/>
<path d="M222.489 36.166L222.245 37.5455" stroke="#010100" stroke-width="0.251012" stroke-miterlimit="10" stroke-linecap="round" stroke-linejoin="round"/>
<path d="M223.818 36.166L223.651 37.6617" stroke="#010100" stroke-width="0.251012" stroke-miterlimit="10" stroke-linecap="round" stroke-linejoin="round"/>
<path d="M225.112 36.166V37.5455" stroke="#010100" stroke-width="0.251012" stroke-miterlimit="10" stroke-linecap="round" stroke-linejoin="round"/>
<path d="M226.671 36.166L226.477 37.8092" stroke="#010100" stroke-width="0.251012" stroke-miterlimit="10" stroke-linecap="round" stroke-linejoin="round"/>
<path d="M228.01 36.1509L227.833 37.5452" stroke="#010100" stroke-width="0.251012" stroke-miterlimit="10" stroke-linecap="round" stroke-linejoin="round"/>
<path d="M229.188 36.166L229.072 37.7778" stroke="#010100" stroke-width="0.251012" stroke-miterlimit="10" stroke-linecap="round" stroke-linejoin="round"/>
<path d="M220.358 63.409L218.902 68.6323L219.792 68.8805L221.248 63.6572L220.358 63.409Z" fill="#010100"/>
<path d="M220.801 64.6804C221.434 64.6804 221.946 64.1677 221.946 63.5353C221.946 62.9028 221.434 62.3901 220.801 62.3901C220.169 62.3901 219.656 62.9028 219.656 63.5353C219.656 64.1677 220.169 64.6804 220.801 64.6804Z" fill="#010100"/>
<path d="M218.522 61.0749C219.366 59.9729 220.994 59.5565 222.263 60.1176C223.532 60.6788 224.319 62.1637 224.071 63.5287" stroke="#010100" stroke-width="0.251012" stroke-miterlimit="10" stroke-linecap="round" stroke-linejoin="round"/>
<path d="M219.271 57.9283C220.933 57.1457 223.009 57.3249 224.512 58.3811C226.016 59.4372 226.888 61.3292 226.716 63.1581" stroke="#010100" stroke-width="0.251012" stroke-miterlimit="10" stroke-linecap="round" stroke-linejoin="round"/>
<path d="M219.534 92.8256C226.427 91.5758 231.003 84.974 229.753 78.0802C228.503 71.1864 221.901 66.6111 215.007 67.861C208.114 69.1108 203.538 75.7125 204.788 82.6063C206.038 89.5001 212.64 94.0755 219.534 92.8256Z" fill="white"/>
<path d="M210.212 73.0005L223.165 74.1992" stroke="#010100" stroke-width="0.251012" stroke-miterlimit="10" stroke-linecap="round" stroke-linejoin="round"/>
<path d="M219.552 68.1812C217.399 68.9552 215.742 70.9639 215.391 73.2237" stroke="#010100" stroke-width="0.251012" stroke-miterlimit="10" stroke-linecap="round" stroke-linejoin="round"/>
<path d="M214.138 84.0234C213.637 87.3409 214.953 90.8755 217.501 93.0583" stroke="#010100" stroke-width="0.251012" stroke-miterlimit="10" stroke-linecap="round" stroke-linejoin="round"/>
<path d="M217.185 86.0278C218.463 86.1369 219.742 86.2462 221.021 86.3552" stroke="#010100" stroke-width="0.251012" stroke-miterlimit="10" stroke-linecap="round" stroke-linejoin="round"/>
<path d="M218.051 86.9048C218.67 86.9633 219.29 87.0218 219.909 87.0806" stroke="#010100" stroke-width="0.251012" stroke-miterlimit="10" stroke-linecap="round" stroke-linejoin="round"/>
<path d="M229.317 78.4438C228.262 78.5781 227.364 79.5092 227.268 80.5678C227.171 81.6267 227.887 82.7044 228.9 83.0266" stroke="#010100" stroke-width="0.251012" stroke-miterlimit="10" stroke-linecap="round" stroke-linejoin="round"/>
<path d="M222.224 84.1852L209.31 82.9683C209.31 82.9683 207.171 78.7487 210.179 73.7412L223.094 74.9581L222.224 84.1852Z" fill="#35BEAC"/>
<path d="M212.707 77.8458C212.707 77.5905 212.5 77.3838 212.245 77.3838C211.99 77.3838 211.783 77.5905 211.783 77.8458C211.783 78.1008 211.99 78.3078 212.245 78.3078C212.5 78.3078 212.707 78.1011 212.707 77.8458Z" fill="white"/>
<path d="M219.43 78.8742C219.685 78.8742 219.892 78.6674 219.892 78.4122C219.892 78.157 219.685 77.9502 219.43 77.9502C219.175 77.9502 218.968 78.157 218.968 78.4122C218.968 78.6674 219.175 78.8742 219.43 78.8742Z" fill="white"/>
<path d="M214.896 78.3872C214.991 78.8548 215.427 79.2302 215.903 79.2545C216.38 79.2789 216.852 78.9496 216.994 78.4941" stroke="white" stroke-width="0.251012" stroke-miterlimit="10" stroke-linecap="round" stroke-linejoin="round"/>
<path d="M212.128 75.0704C212.447 74.7574 213.04 74.8027 213.308 75.1603" stroke="white" stroke-width="0.251012" stroke-miterlimit="10" stroke-linecap="round" stroke-linejoin="round"/>
<path d="M219.158 76.0011C219.41 75.9817 219.662 75.9623 219.913 75.9429" stroke="white" stroke-width="0.251012" stroke-miterlimit="10" stroke-linecap="round" stroke-linejoin="round"/>
<path d="M155.415 112.302C154.557 112.327 153.658 112.364 152.922 112.803C152.185 113.243 151.699 114.228 152.104 114.984C152.975 116.608 156.184 115.158 157.016 116.802C157.473 117.706 156.644 118.82 155.667 119.087C154.691 119.354 153.661 119.062 152.668 118.865C151.675 118.669 150.549 118.598 149.744 119.213C148.417 120.227 148.916 122.513 150.265 123.497C151.615 124.481 153.406 124.536 155.076 124.554C160.086 124.606 165.096 124.659 170.106 124.711C173.093 124.742 176.624 124.492 178.199 121.954C179.313 120.16 178.946 117.7 177.663 116.023C176.38 114.346 174.342 113.378 172.269 112.974C166.792 111.907 160.96 112.138 155.415 112.302Z" fill="#5A3CFF"/>
<path d="M194.567 63.3317C193.321 63.94 192.355 65.3614 192.739 66.6932C192.994 67.5774 193.783 68.2273 194.644 68.5532C195.504 68.8791 196.44 68.9311 197.359 68.9795C198.988 69.0654 200.617 69.1513 202.245 69.2373C203.745 69.3164 205.286 69.39 206.709 68.9139C210.089 67.7835 210.906 63.0184 206.871 62.549C205.142 62.3479 203.302 62.7477 201.565 62.7739C199.315 62.8074 196.663 62.3073 194.567 63.3317Z" fill="#6860E9"/>
</g>
<defs>
<clipPath id="clip0_33_50021">
<rect width="154" height="154" fill="white" transform="translate(90 4)"/>
</clipPath>
</defs>
</svg>
