<svg width="276" height="75" viewBox="0 0 276 75" fill="none" xmlns="http://www.w3.org/2000/svg">
<circle cx="5.33376" cy="40.2005" r="5.33376" fill="url(#paint0_linear_19_83)"/>
<circle cx="42.6701" cy="40.2005" r="5.33376" fill="url(#paint1_linear_19_83)"/>
<rect x="21.7546" width="11.548" height="32.7204" rx="5.77399" transform="rotate(30.2082 21.7546 0)" fill="url(#paint2_linear_19_83)"/>
<rect x="32.4643" y="13.9126" width="11.548" height="32.7204" rx="5.77399" transform="rotate(30.2082 32.4643 13.9126)" fill="url(#paint3_linear_19_83)"/>
<path d="M61.3888 15.0806V10.1364H84.6835V15.0806H75.9999V38.5H70.0724V15.0806H61.3888ZM93.4587 38.9155C91.2705 38.9155 89.3869 38.4723 87.8081 37.5859C86.2385 36.6903 85.029 35.4254 84.1796 33.7912C83.3301 32.1477 82.9054 30.2042 82.9054 27.9606C82.9054 25.7724 83.3301 23.8519 84.1796 22.1992C85.029 20.5465 86.2247 19.2585 87.7666 18.3352C89.3177 17.4119 91.1366 16.9503 93.2232 16.9503C94.6266 16.9503 95.9331 17.1765 97.1426 17.6289C98.3614 18.0721 99.4232 18.7415 100.328 19.6371C101.242 20.5327 101.953 21.6591 102.461 23.0163C102.969 24.3643 103.223 25.9432 103.223 27.7528V29.3732H85.2598V25.717H97.6689C97.6689 24.8675 97.4842 24.1151 97.1149 23.4595C96.7456 22.804 96.2332 22.2915 95.5776 21.9222C94.9313 21.5437 94.1788 21.3544 93.3202 21.3544C92.4246 21.3544 91.6305 21.5621 90.9381 21.9776C90.2548 22.3839 89.7193 22.9332 89.3315 23.6257C88.9438 24.3089 88.7452 25.0707 88.736 25.9109V29.3871C88.736 30.4396 88.9299 31.3491 89.3177 32.1154C89.7147 32.8817 90.2733 33.4727 90.9935 33.8881C91.7136 34.3036 92.5677 34.5114 93.5556 34.5114C94.2112 34.5114 94.8113 34.419 95.356 34.2344C95.9008 34.0497 96.3671 33.7727 96.7548 33.4034C97.1426 33.0341 97.4381 32.5817 97.6412 32.0462L103.098 32.4062C102.821 33.7173 102.253 34.8622 101.394 35.8409C100.545 36.8104 99.4462 37.5675 98.0982 38.1122C96.7595 38.6477 95.2129 38.9155 93.4587 38.9155ZM115.124 38.9155C112.945 38.9155 111.071 38.4538 109.501 37.5305C107.941 36.598 106.741 35.3054 105.9 33.6527C105.069 32 104.654 30.098 104.654 27.9467C104.654 25.7678 105.074 23.8565 105.914 22.2131C106.764 20.5604 107.969 19.2724 109.529 18.3491C111.089 17.4165 112.945 16.9503 115.096 16.9503C116.952 16.9503 118.577 17.2873 119.971 17.9613C121.366 18.6353 122.469 19.5817 123.281 20.8004C124.094 22.0192 124.542 23.4503 124.625 25.0938H119.057C118.9 24.032 118.485 23.1779 117.811 22.5316C117.146 21.8761 116.274 21.5483 115.193 21.5483C114.279 21.5483 113.481 21.7976 112.797 22.2962C112.123 22.7855 111.597 23.5011 111.219 24.4428C110.84 25.3846 110.651 26.5249 110.651 27.8636C110.651 29.2209 110.835 30.375 111.205 31.326C111.583 32.277 112.114 33.0018 112.797 33.5004C113.481 33.9989 114.279 34.2482 115.193 34.2482C115.867 34.2482 116.472 34.1097 117.008 33.8327C117.552 33.5558 118 33.1541 118.351 32.6278C118.711 32.0923 118.947 31.4506 119.057 30.7028H124.625C124.533 32.3278 124.089 33.7589 123.295 34.9961C122.511 36.2241 121.426 37.1843 120.041 37.8768C118.656 38.5692 117.017 38.9155 115.124 38.9155ZM132.742 26.2017V38.5H126.842V10.1364H132.576V20.9805H132.825C133.305 19.7248 134.081 18.7415 135.152 18.0305C136.223 17.3104 137.566 16.9503 139.182 16.9503C140.659 16.9503 141.947 17.2734 143.046 17.9197C144.154 18.5568 145.013 19.4755 145.622 20.6758C146.241 21.8668 146.545 23.2933 146.536 24.9553V38.5H140.636V26.0078C140.646 24.6967 140.313 23.6765 139.639 22.9471C138.974 22.2177 138.042 21.853 136.842 21.853C136.038 21.853 135.327 22.0238 134.709 22.3654C134.099 22.707 133.619 23.2056 133.268 23.8612C132.927 24.5075 132.751 25.2876 132.742 26.2017ZM165.117 18.2937C165.006 17.1765 164.53 16.3086 163.69 15.69C162.85 15.0714 161.71 14.7621 160.269 14.7621C159.291 14.7621 158.464 14.9006 157.79 15.1776C157.116 15.4453 156.599 15.8192 156.239 16.2994C155.888 16.7795 155.713 17.3242 155.713 17.9336C155.695 18.4414 155.801 18.8846 156.032 19.2631C156.272 19.6417 156.599 19.9695 157.015 20.2464C157.43 20.5142 157.91 20.7496 158.455 20.9528C159 21.1467 159.582 21.3129 160.2 21.4513L162.748 22.0607C163.986 22.3377 165.121 22.707 166.155 23.1687C167.19 23.6303 168.085 24.1982 168.842 24.8722C169.599 25.5462 170.186 26.3402 170.601 27.2543C171.026 28.1683 171.243 29.2163 171.252 30.3981C171.243 32.1339 170.8 33.6388 169.922 34.913C169.055 36.1779 167.799 37.1612 166.155 37.8629C164.521 38.5554 162.55 38.9016 160.242 38.9016C157.952 38.9016 155.958 38.5508 154.259 37.8491C152.569 37.1474 151.249 36.1087 150.298 34.733C149.356 33.348 148.862 31.6353 148.816 29.5948H154.619C154.684 30.5458 154.956 31.3398 155.436 31.9769C155.925 32.6048 156.576 33.0803 157.389 33.4034C158.21 33.7173 159.138 33.8743 160.172 33.8743C161.188 33.8743 162.07 33.7266 162.818 33.4311C163.575 33.1357 164.161 32.7248 164.577 32.1985C164.992 31.6722 165.2 31.0675 165.2 30.3842C165.2 29.7472 165.011 29.2116 164.632 28.7777C164.263 28.3437 163.718 27.9744 162.998 27.6697C162.287 27.3651 161.414 27.0881 160.38 26.8388L157.292 26.0632C154.9 25.4815 153.012 24.5721 151.627 23.3349C150.242 22.0977 149.555 20.4311 149.564 18.3352C149.555 16.6179 150.012 15.1175 150.935 13.8342C151.867 12.5508 153.146 11.549 154.771 10.8288C156.396 10.1087 158.243 9.74858 160.311 9.74858C162.416 9.74858 164.253 10.1087 165.823 10.8288C167.402 11.549 168.63 12.5508 169.507 13.8342C170.384 15.1175 170.837 16.604 170.864 18.2937H165.117ZM173.615 46.4773V17.2273H179.432V20.8004H179.695C179.953 20.228 180.327 19.6463 180.817 19.0554C181.315 18.4553 181.961 17.9567 182.756 17.5597C183.559 17.1534 184.556 16.9503 185.747 16.9503C187.298 16.9503 188.729 17.3565 190.04 18.169C191.351 18.9723 192.399 20.1864 193.184 21.8114C193.969 23.4272 194.361 25.4538 194.361 27.8913C194.361 30.2642 193.978 32.2678 193.212 33.902C192.455 35.527 191.421 36.7596 190.11 37.5998C188.808 38.4308 187.349 38.8462 185.733 38.8462C184.588 38.8462 183.614 38.657 182.811 38.2784C182.017 37.8999 181.366 37.4244 180.858 36.8519C180.35 36.2702 179.963 35.6839 179.695 35.093H179.515V46.4773H173.615ZM179.39 27.8636C179.39 29.1286 179.566 30.2319 179.916 31.1737C180.267 32.1154 180.775 32.8494 181.44 33.3757C182.105 33.8928 182.912 34.1513 183.863 34.1513C184.824 34.1513 185.636 33.8881 186.301 33.3619C186.966 32.8263 187.469 32.0877 187.811 31.146C188.161 30.195 188.337 29.1009 188.337 27.8636C188.337 26.6357 188.166 25.5554 187.824 24.6229C187.483 23.6903 186.98 22.9609 186.315 22.4347C185.65 21.9084 184.833 21.6452 183.863 21.6452C182.903 21.6452 182.091 21.8991 181.426 22.407C180.77 22.9148 180.267 23.6349 179.916 24.5675C179.566 25.5 179.39 26.5987 179.39 27.8636ZM202.634 26.2017V38.5H196.735V10.1364H202.468V20.9805H202.718C203.198 19.7248 203.973 18.7415 205.044 18.0305C206.115 17.3104 207.459 16.9503 209.074 16.9503C210.552 16.9503 211.84 17.2734 212.938 17.9197C214.046 18.5568 214.905 19.4755 215.514 20.6758C216.133 21.8668 216.438 23.2933 216.428 24.9553V38.5H210.529V26.0078C210.538 24.6967 210.205 23.6765 209.531 22.9471C208.867 22.2177 207.934 21.853 206.734 21.853C205.931 21.853 205.22 22.0238 204.601 22.3654C203.992 22.707 203.512 23.2056 203.161 23.8612C202.819 24.5075 202.644 25.2876 202.634 26.2017ZM229.206 38.9155C227.018 38.9155 225.134 38.4723 223.556 37.5859C221.986 36.6903 220.776 35.4254 219.927 33.7912C219.078 32.1477 218.653 30.2042 218.653 27.9606C218.653 25.7724 219.078 23.8519 219.927 22.1992C220.776 20.5465 221.972 19.2585 223.514 18.3352C225.065 17.4119 226.884 16.9503 228.971 16.9503C230.374 16.9503 231.681 17.1765 232.89 17.6289C234.109 18.0721 235.171 18.7415 236.075 19.6371C236.989 20.5327 237.7 21.6591 238.208 23.0163C238.716 24.3643 238.97 25.9432 238.97 27.7528V29.3732H221.007V25.717H233.416C233.416 24.8675 233.232 24.1151 232.862 23.4595C232.493 22.804 231.981 22.2915 231.325 21.9222C230.679 21.5437 229.926 21.3544 229.068 21.3544C228.172 21.3544 227.378 21.5621 226.685 21.9776C226.002 22.3839 225.467 22.9332 225.079 23.6257C224.691 24.3089 224.493 25.0707 224.483 25.9109V29.3871C224.483 30.4396 224.677 31.3491 225.065 32.1154C225.462 32.8817 226.021 33.4727 226.741 33.8881C227.461 34.3036 228.315 34.5114 229.303 34.5114C229.959 34.5114 230.559 34.419 231.103 34.2344C231.648 34.0497 232.114 33.7727 232.502 33.4034C232.89 33.0341 233.185 32.5817 233.389 32.0462L238.845 32.4062C238.568 33.7173 238 34.8622 237.142 35.8409C236.292 36.8104 235.194 37.5675 233.846 38.1122C232.507 38.6477 230.96 38.9155 229.206 38.9155ZM241.26 38.5V17.2273H246.98V20.9389H247.201C247.589 19.6186 248.24 18.6214 249.154 17.9474C250.068 17.2642 251.121 16.9226 252.312 16.9226C252.607 16.9226 252.926 16.9411 253.268 16.978C253.609 17.0149 253.909 17.0657 254.168 17.1303V22.3654C253.891 22.2823 253.508 22.2085 253.018 22.1438C252.529 22.0792 252.081 22.0469 251.675 22.0469C250.807 22.0469 250.031 22.2362 249.348 22.6147C248.674 22.984 248.139 23.5011 247.742 24.1658C247.354 24.8306 247.16 25.5969 247.16 26.4648V38.5H241.26ZM264.362 38.9155C262.174 38.9155 260.291 38.4723 258.712 37.5859C257.142 36.6903 255.933 35.4254 255.083 33.7912C254.234 32.1477 253.809 30.2042 253.809 27.9606C253.809 25.7724 254.234 23.8519 255.083 22.1992C255.933 20.5465 257.128 19.2585 258.67 18.3352C260.221 17.4119 262.04 16.9503 264.127 16.9503C265.53 16.9503 266.837 17.1765 268.046 17.6289C269.265 18.0721 270.327 18.7415 271.232 19.6371C272.146 20.5327 272.857 21.6591 273.365 23.0163C273.872 24.3643 274.126 25.9432 274.126 27.7528V29.3732H256.164V25.717H268.573C268.573 24.8675 268.388 24.1151 268.019 23.4595C267.649 22.804 267.137 22.2915 266.481 21.9222C265.835 21.5437 265.083 21.3544 264.224 21.3544C263.328 21.3544 262.534 21.5621 261.842 21.9776C261.159 22.3839 260.623 22.9332 260.235 23.6257C259.848 24.3089 259.649 25.0707 259.64 25.9109V29.3871C259.64 30.4396 259.834 31.3491 260.221 32.1154C260.619 32.8817 261.177 33.4727 261.897 33.8881C262.617 34.3036 263.471 34.5114 264.459 34.5114C265.115 34.5114 265.715 34.419 266.26 34.2344C266.805 34.0497 267.271 33.7727 267.659 33.4034C268.046 33.0341 268.342 32.5817 268.545 32.0462L274.002 32.4062C273.725 33.7173 273.157 34.8622 272.298 35.8409C271.449 36.8104 270.35 37.5675 269.002 38.1122C267.663 38.6477 266.117 38.9155 264.362 38.9155Z" fill="#EB5B00"/>
<path opacity="0.8" d="M3.08239 71L0.298295 60.8182H1.55114L3.67898 69.1108H3.77841L5.94602 60.8182H7.33807L9.50568 69.1108H9.60511L11.733 60.8182H12.9858L10.2017 71H8.92898L6.68182 62.8864H6.60227L4.35511 71H3.08239ZM15.5362 66.4062V71H14.3629V60.8182H15.5362V64.5568H15.6357C15.8146 64.1624 16.0831 63.8492 16.4411 63.6172C16.8023 63.3819 17.2829 63.2642 17.8828 63.2642C18.4032 63.2642 18.8589 63.3686 19.25 63.5774C19.6411 63.7829 19.9444 64.0994 20.1598 64.527C20.3786 64.9512 20.4879 65.4915 20.4879 66.1477V71H19.3146V66.2273C19.3146 65.6207 19.1572 65.1518 18.8423 64.8203C18.5308 64.4856 18.0982 64.3182 17.5447 64.3182C17.1603 64.3182 16.8156 64.3994 16.5107 64.5618C16.209 64.7242 15.9704 64.9612 15.7947 65.2727C15.6224 65.5843 15.5362 65.9621 15.5362 66.4062ZM25.8361 71.1591C25.1003 71.1591 24.4656 70.9967 23.932 70.6719C23.4017 70.3438 22.9924 69.8864 22.704 69.2997C22.419 68.7098 22.2765 68.0237 22.2765 67.2415C22.2765 66.4593 22.419 65.7699 22.704 65.1733C22.9924 64.5734 23.3934 64.1061 23.9071 63.7713C24.4242 63.4332 25.0274 63.2642 25.7168 63.2642C26.1145 63.2642 26.5073 63.3305 26.8951 63.4631C27.2828 63.5956 27.6358 63.8111 27.954 64.1094C28.2722 64.4044 28.5257 64.7955 28.7147 65.2827C28.9036 65.7699 28.998 66.3698 28.998 67.0824V67.5795H23.1117V66.5653H27.8049C27.8049 66.1345 27.7187 65.75 27.5463 65.4119C27.3773 65.0739 27.1354 64.8071 26.8205 64.6115C26.5089 64.416 26.141 64.3182 25.7168 64.3182C25.2495 64.3182 24.8451 64.4342 24.5037 64.6662C24.1657 64.8949 23.9055 65.1932 23.7232 65.5611C23.5409 65.929 23.4498 66.3234 23.4498 66.7443V67.4205C23.4498 67.9972 23.5492 68.486 23.748 68.8871C23.9502 69.2848 24.2303 69.5881 24.5882 69.7969C24.9462 70.0024 25.3622 70.1051 25.8361 70.1051C26.1444 70.1051 26.4228 70.062 26.6713 69.9759C26.9232 69.8864 27.1403 69.7538 27.3226 69.5781C27.5049 69.3991 27.6458 69.1771 27.7452 68.9119L28.8787 69.2301C28.7594 69.6146 28.5589 69.9527 28.2772 70.2443C27.9954 70.5327 27.6474 70.758 27.2331 70.9205C26.8188 71.0795 26.3532 71.1591 25.8361 71.1591ZM30.7828 71V63.3636H31.9164V64.517H31.9959C32.1351 64.1392 32.387 63.8326 32.7516 63.5973C33.1162 63.362 33.5272 63.2443 33.9846 63.2443C34.0707 63.2443 34.1784 63.246 34.3077 63.2493C34.437 63.2526 34.5347 63.2576 34.601 63.2642V64.4574C34.5613 64.4474 34.4701 64.4325 34.3276 64.4126C34.1884 64.3894 34.0409 64.3778 33.8851 64.3778C33.5139 64.3778 33.1825 64.4557 32.8908 64.6115C32.6025 64.764 32.3738 64.9761 32.2047 65.2479C32.039 65.5163 31.9561 65.8229 31.9561 66.1676V71H30.7828ZM38.9611 71.1591C38.2253 71.1591 37.5906 70.9967 37.057 70.6719C36.5267 70.3438 36.1174 69.8864 35.829 69.2997C35.544 68.7098 35.4015 68.0237 35.4015 67.2415C35.4015 66.4593 35.544 65.7699 35.829 65.1733C36.1174 64.5734 36.5184 64.1061 37.0321 63.7713C37.5492 63.4332 38.1524 63.2642 38.8418 63.2642C39.2395 63.2642 39.6323 63.3305 40.0201 63.4631C40.4078 63.5956 40.7608 63.8111 41.079 64.1094C41.3972 64.4044 41.6507 64.7955 41.8397 65.2827C42.0286 65.7699 42.123 66.3698 42.123 67.0824V67.5795H36.2367V66.5653H40.9299C40.9299 66.1345 40.8437 65.75 40.6713 65.4119C40.5023 65.0739 40.2604 64.8071 39.9455 64.6115C39.6339 64.416 39.266 64.3182 38.8418 64.3182C38.3745 64.3182 37.9701 64.4342 37.6287 64.6662C37.2907 64.8949 37.0305 65.1932 36.8482 65.5611C36.6659 65.929 36.5748 66.3234 36.5748 66.7443V67.4205C36.5748 67.9972 36.6742 68.486 36.873 68.8871C37.0752 69.2848 37.3553 69.5881 37.7132 69.7969C38.0712 70.0024 38.4872 70.1051 38.9611 70.1051C39.2694 70.1051 39.5478 70.062 39.7963 69.9759C40.0482 69.8864 40.2653 69.7538 40.4476 69.5781C40.6299 69.3991 40.7708 69.1771 40.8702 68.9119L42.0037 69.2301C41.8844 69.6146 41.6839 69.9527 41.4022 70.2443C41.1204 70.5327 40.7724 70.758 40.3581 70.9205C39.9438 71.0795 39.4782 71.1591 38.9611 71.1591ZM51.1664 63.3636V64.358H47.209V63.3636H51.1664ZM48.3624 61.5341H49.5357V68.8125C49.5357 69.1439 49.5837 69.3925 49.6799 69.5582C49.7793 69.7206 49.9052 69.83 50.0577 69.8864C50.2135 69.9394 50.3775 69.9659 50.5499 69.9659C50.6792 69.9659 50.7852 69.9593 50.8681 69.946C50.9509 69.9295 51.0172 69.9162 51.0669 69.9062L51.3056 70.9602C51.226 70.9901 51.115 71.0199 50.9725 71.0497C50.83 71.0829 50.6493 71.0994 50.4306 71.0994C50.0991 71.0994 49.7743 71.0282 49.4561 70.8857C49.1413 70.7431 48.8794 70.526 48.6706 70.2344C48.4651 69.9427 48.3624 69.5748 48.3624 69.1307V61.5341ZM56.051 71.1591C55.3152 71.1591 54.6805 70.9967 54.1468 70.6719C53.6165 70.3438 53.2072 69.8864 52.9189 69.2997C52.6338 68.7098 52.4913 68.0237 52.4913 67.2415C52.4913 66.4593 52.6338 65.7699 52.9189 65.1733C53.2072 64.5734 53.6083 64.1061 54.122 63.7713C54.639 63.4332 55.2422 63.2642 55.9316 63.2642C56.3294 63.2642 56.7221 63.3305 57.1099 63.4631C57.4977 63.5956 57.8507 63.8111 58.1689 64.1094C58.487 64.4044 58.7406 64.7955 58.9295 65.2827C59.1184 65.7699 59.2129 66.3698 59.2129 67.0824V67.5795H53.3265V66.5653H58.0197C58.0197 66.1345 57.9335 65.75 57.7612 65.4119C57.5922 65.0739 57.3502 64.8071 57.0353 64.6115C56.7238 64.416 56.3559 64.3182 55.9316 64.3182C55.4643 64.3182 55.06 64.4342 54.7186 64.6662C54.3805 64.8949 54.1203 65.1932 53.938 65.5611C53.7557 65.929 53.6646 66.3234 53.6646 66.7443V67.4205C53.6646 67.9972 53.764 68.486 53.9629 68.8871C54.1651 69.2848 54.4451 69.5881 54.8031 69.7969C55.161 70.0024 55.577 70.1051 56.051 70.1051C56.3592 70.1051 56.6376 70.062 56.8862 69.9759C57.1381 69.8864 57.3552 69.7538 57.5375 69.5781C57.7198 69.3991 57.8606 69.1771 57.96 68.9119L59.0936 69.2301C58.9743 69.6146 58.7737 69.9527 58.492 70.2443C58.2103 70.5327 57.8623 70.758 57.448 70.9205C57.0337 71.0795 56.568 71.1591 56.051 71.1591ZM64.1 71.1591C63.3841 71.1591 62.7676 70.9901 62.2505 70.652C61.7335 70.3139 61.3358 69.8482 61.0574 69.255C60.7789 68.6617 60.6397 67.9839 60.6397 67.2216C60.6397 66.446 60.7823 65.7616 61.0673 65.1683C61.3556 64.5717 61.7567 64.1061 62.2704 63.7713C62.7875 63.4332 63.3907 63.2642 64.0801 63.2642C64.617 63.2642 65.1009 63.3636 65.5318 63.5625C65.9627 63.7614 66.3156 64.0398 66.5907 64.3977C66.8658 64.7557 67.0365 65.1733 67.1028 65.6506H65.9295C65.84 65.3026 65.6412 64.9943 65.3329 64.7259C65.028 64.4541 64.617 64.3182 64.1 64.3182C63.6426 64.3182 63.2415 64.4375 62.8968 64.6761C62.5555 64.9115 62.2886 65.2446 62.0964 65.6754C61.9075 66.103 61.813 66.6051 61.813 67.1818C61.813 67.7718 61.9058 68.2855 62.0914 68.723C62.2804 69.1605 62.5455 69.5002 62.8869 69.7422C63.2316 69.9841 63.6359 70.1051 64.1 70.1051C64.4049 70.1051 64.6816 70.0521 64.9302 69.946C65.1788 69.84 65.3893 69.6875 65.5616 69.4886C65.734 69.2898 65.8566 69.0511 65.9295 68.7727H67.1028C67.0365 69.2235 66.8725 69.6295 66.6106 69.9908C66.3521 70.3487 66.0091 70.6338 65.5815 70.8459C65.1573 71.0547 64.6634 71.1591 64.1 71.1591ZM69.9913 66.4062V71H68.818V60.8182H69.9913V64.5568H70.0907C70.2697 64.1624 70.5382 63.8492 70.8961 63.6172C71.2574 63.3819 71.738 63.2642 72.3379 63.2642C72.8583 63.2642 73.314 63.3686 73.7051 63.5774C74.0962 63.7829 74.3994 64.0994 74.6149 64.527C74.8336 64.9512 74.943 65.4915 74.943 66.1477V71H73.7697V66.2273C73.7697 65.6207 73.6123 65.1518 73.2974 64.8203C72.9859 64.4856 72.5533 64.3182 71.9998 64.3182C71.6154 64.3182 71.2707 64.3994 70.9657 64.5618C70.6641 64.7242 70.4255 64.9612 70.2498 65.2727C70.0775 65.5843 69.9913 65.9621 69.9913 66.4062ZM81.027 71V63.3636H82.1605V64.5568H82.2599C82.419 64.1491 82.6759 63.8326 83.0305 63.6072C83.3852 63.3786 83.8111 63.2642 84.3082 63.2642C84.812 63.2642 85.2313 63.3786 85.5661 63.6072C85.9041 63.8326 86.1676 64.1491 86.3565 64.5568H86.4361C86.6316 64.1624 86.925 63.8492 87.3161 63.6172C87.7072 63.3819 88.1761 63.2642 88.723 63.2642C89.4058 63.2642 89.9643 63.478 90.3984 63.9055C90.8326 64.3298 91.0497 64.991 91.0497 65.8892V71H89.8764V65.8892C89.8764 65.3258 89.7223 64.9231 89.4141 64.6811C89.1058 64.4392 88.7429 64.3182 88.3253 64.3182C87.7884 64.3182 87.3724 64.4806 87.0774 64.8054C86.7824 65.1269 86.6349 65.5346 86.6349 66.0284V71H85.4418V65.7699C85.4418 65.3357 85.3009 64.986 85.0192 64.7209C84.7375 64.4524 84.3745 64.3182 83.9304 64.3182C83.6255 64.3182 83.3404 64.3994 83.0753 64.5618C82.8134 64.7242 82.6013 64.9496 82.4389 65.2379C82.2798 65.523 82.2003 65.8527 82.2003 66.2273V71H81.027ZM93.195 71V63.3636H94.3683V71H93.195ZM93.7915 62.0909C93.5629 62.0909 93.3656 62.013 93.1999 61.8572C93.0375 61.7015 92.9563 61.5142 92.9563 61.2955C92.9563 61.0767 93.0375 60.8894 93.1999 60.7337C93.3656 60.5779 93.5629 60.5 93.7915 60.5C94.0202 60.5 94.2158 60.5779 94.3782 60.7337C94.5439 60.8894 94.6268 61.0767 94.6268 61.2955C94.6268 61.5142 94.5439 61.7015 94.3782 61.8572C94.2158 62.013 94.0202 62.0909 93.7915 62.0909ZM97.6905 66.4062V71H96.5172V63.3636H97.6507V64.5568H97.7502C97.9292 64.169 98.2009 63.8575 98.5655 63.6222C98.9301 63.3835 99.4007 63.2642 99.9775 63.2642C100.494 63.2642 100.947 63.3703 101.335 63.5824C101.722 63.7912 102.024 64.1094 102.24 64.5369C102.455 64.9612 102.563 65.4981 102.563 66.1477V71H101.389V66.2273C101.389 65.6274 101.234 65.16 100.922 64.8253C100.61 64.4872 100.183 64.3182 99.6394 64.3182C99.2649 64.3182 98.9301 64.3994 98.6351 64.5618C98.3435 64.7242 98.1131 64.9612 97.9441 65.2727C97.775 65.5843 97.6905 65.9621 97.6905 66.4062ZM107.59 71.1591C106.954 71.1591 106.392 70.9983 105.905 70.6768C105.418 70.352 105.036 69.8946 104.761 69.3047C104.486 68.7114 104.349 68.0104 104.349 67.2017C104.349 66.3996 104.486 65.7036 104.761 65.1136C105.036 64.5237 105.419 64.0679 105.91 63.7464C106.4 63.425 106.967 63.2642 107.61 63.2642C108.107 63.2642 108.5 63.3471 108.788 63.5128C109.08 63.6752 109.302 63.8608 109.455 64.0696C109.61 64.2751 109.731 64.4441 109.817 64.5767H109.917V60.8182H111.09V71H109.957V69.8267H109.817C109.731 69.9659 109.609 70.1416 109.45 70.3537C109.29 70.5625 109.063 70.7498 108.768 70.9155C108.473 71.0779 108.081 71.1591 107.59 71.1591ZM107.749 70.1051C108.22 70.1051 108.618 69.9825 108.942 69.7372C109.267 69.4886 109.514 69.1456 109.683 68.7081C109.852 68.2673 109.937 67.7585 109.937 67.1818C109.937 66.6117 109.854 66.1129 109.688 65.6854C109.522 65.2545 109.277 64.9197 108.952 64.6811C108.628 64.4392 108.227 64.3182 107.749 64.3182C107.252 64.3182 106.838 64.4458 106.506 64.701C106.178 64.9529 105.931 65.2959 105.766 65.7301C105.603 66.161 105.522 66.6449 105.522 67.1818C105.522 67.7254 105.605 68.2192 105.771 68.6634C105.94 69.1042 106.188 69.4555 106.516 69.7173C106.848 69.9759 107.259 70.1051 107.749 70.1051ZM118.811 65.0739L117.757 65.3722C117.691 65.1965 117.593 65.0258 117.464 64.8601C117.338 64.6911 117.165 64.5518 116.947 64.4425C116.728 64.3331 116.448 64.2784 116.107 64.2784C115.639 64.2784 115.25 64.3861 114.938 64.6016C114.63 64.8137 114.476 65.0838 114.476 65.4119C114.476 65.7036 114.582 65.9339 114.794 66.103C115.006 66.272 115.338 66.4129 115.788 66.5256L116.922 66.804C117.605 66.9697 118.113 67.2232 118.448 67.5646C118.783 67.9027 118.95 68.3385 118.95 68.8722C118.95 69.3097 118.824 69.7008 118.572 70.0455C118.324 70.3902 117.976 70.6619 117.528 70.8608C117.081 71.0597 116.561 71.1591 115.967 71.1591C115.188 71.1591 114.544 70.9901 114.033 70.652C113.523 70.3139 113.2 69.8201 113.064 69.1705L114.178 68.892C114.284 69.303 114.484 69.6113 114.779 69.8168C115.077 70.0223 115.467 70.125 115.947 70.125C116.494 70.125 116.929 70.009 117.25 69.777C117.575 69.5417 117.737 69.2599 117.737 68.9318C117.737 68.6667 117.644 68.4446 117.459 68.2656C117.273 68.0833 116.988 67.9474 116.604 67.858L115.331 67.5597C114.632 67.3939 114.118 67.1371 113.79 66.7891C113.465 66.4377 113.303 65.9986 113.303 65.4716C113.303 65.0407 113.424 64.6596 113.665 64.3281C113.911 63.9967 114.244 63.7365 114.665 63.5476C115.089 63.3587 115.57 63.2642 116.107 63.2642C116.862 63.2642 117.455 63.4299 117.886 63.7614C118.321 64.0928 118.629 64.5303 118.811 65.0739ZM127.736 74.0227C127.17 74.0227 126.682 73.9498 126.275 73.804C125.867 73.6615 125.527 73.4725 125.256 73.2372C124.987 73.0052 124.773 72.7566 124.614 72.4915L125.549 71.8352C125.655 71.9744 125.789 72.1335 125.952 72.3125C126.114 72.4948 126.336 72.6522 126.618 72.7848C126.903 72.9207 127.276 72.9886 127.736 72.9886C128.353 72.9886 128.862 72.8395 129.263 72.5412C129.664 72.2429 129.864 71.7756 129.864 71.1392V69.5881H129.765C129.679 69.7273 129.556 69.8996 129.397 70.1051C129.241 70.3073 129.016 70.4879 128.721 70.647C128.429 70.8028 128.035 70.8807 127.537 70.8807C126.921 70.8807 126.367 70.7348 125.877 70.4432C125.39 70.1515 125.004 69.7273 124.719 69.1705C124.437 68.6136 124.296 67.9375 124.296 67.142C124.296 66.3598 124.434 65.6787 124.709 65.0987C124.984 64.5154 125.367 64.0646 125.857 63.7464C126.348 63.425 126.914 63.2642 127.557 63.2642C128.055 63.2642 128.449 63.3471 128.741 63.5128C129.036 63.6752 129.261 63.8608 129.417 64.0696C129.576 64.2751 129.698 64.4441 129.785 64.5767H129.904V63.3636H131.037V71.2188C131.037 71.875 130.888 72.4086 130.59 72.8196C130.295 73.2339 129.897 73.5372 129.397 73.7294C128.9 73.925 128.346 74.0227 127.736 74.0227ZM127.697 69.8267C128.167 69.8267 128.565 69.719 128.89 69.5036C129.215 69.2881 129.461 68.9782 129.631 68.5739C129.8 68.1695 129.884 67.6856 129.884 67.1222C129.884 66.572 129.801 66.0864 129.635 65.6655C129.47 65.2446 129.224 64.9148 128.9 64.6761C128.575 64.4375 128.174 64.3182 127.697 64.3182C127.199 64.3182 126.785 64.4441 126.454 64.696C126.126 64.9479 125.879 65.286 125.713 65.7102C125.55 66.1345 125.469 66.6051 125.469 67.1222C125.469 67.6525 125.552 68.1214 125.718 68.5291C125.887 68.9335 126.135 69.2517 126.464 69.4837C126.795 69.7124 127.206 69.8267 127.697 69.8267ZM135.432 71.179C134.948 71.179 134.509 71.0878 134.115 70.9055C133.72 70.7199 133.407 70.4531 133.175 70.1051C132.943 69.7538 132.827 69.3295 132.827 68.8324C132.827 68.3949 132.913 68.0402 133.086 67.7685C133.258 67.4934 133.488 67.2779 133.777 67.1222C134.065 66.9664 134.383 66.8504 134.731 66.7741C135.083 66.6946 135.436 66.6316 135.79 66.5852C136.254 66.5256 136.631 66.4808 136.919 66.451C137.211 66.4179 137.423 66.3632 137.555 66.2869C137.691 66.2107 137.759 66.0781 137.759 65.8892V65.8494C137.759 65.3589 137.625 64.9777 137.356 64.706C137.091 64.4342 136.689 64.2983 136.148 64.2983C135.588 64.2983 135.149 64.4209 134.831 64.6662C134.513 64.9115 134.289 65.1733 134.16 65.4517L133.046 65.054C133.245 64.59 133.51 64.2287 133.841 63.9702C134.176 63.7083 134.541 63.526 134.935 63.4233C135.333 63.3172 135.724 63.2642 136.108 63.2642C136.354 63.2642 136.635 63.294 136.954 63.3537C137.275 63.41 137.585 63.5277 137.883 63.7067C138.185 63.8857 138.435 64.1558 138.634 64.517C138.833 64.8783 138.932 65.3622 138.932 65.9688V71H137.759V69.9659H137.699C137.62 70.1316 137.487 70.3089 137.302 70.4979C137.116 70.6868 136.869 70.8475 136.561 70.9801C136.253 71.1127 135.876 71.179 135.432 71.179ZM135.611 70.125C136.075 70.125 136.466 70.0339 136.785 69.8516C137.106 69.6693 137.348 69.4339 137.51 69.1456C137.676 68.8572 137.759 68.554 137.759 68.2358V67.1619C137.709 67.2216 137.6 67.2763 137.431 67.326C137.265 67.3724 137.073 67.4138 136.854 67.4503C136.639 67.4834 136.428 67.5133 136.223 67.5398C136.021 67.563 135.857 67.5829 135.731 67.5994C135.426 67.6392 135.141 67.7038 134.876 67.7933C134.614 67.8795 134.402 68.0104 134.239 68.1861C134.08 68.3584 134.001 68.5937 134.001 68.892C134.001 69.2997 134.151 69.608 134.453 69.8168C134.758 70.0223 135.144 70.125 135.611 70.125ZM144.395 63.3636V64.358H140.438V63.3636H144.395ZM141.591 61.5341H142.764V68.8125C142.764 69.1439 142.812 69.3925 142.908 69.5582C143.008 69.7206 143.134 69.83 143.286 69.8864C143.442 69.9394 143.606 69.9659 143.778 69.9659C143.908 69.9659 144.014 69.9593 144.097 69.946C144.179 69.9295 144.246 69.9162 144.295 69.9062L144.534 70.9602C144.455 70.9901 144.344 71.0199 144.201 71.0497C144.058 71.0829 143.878 71.0994 143.659 71.0994C143.328 71.0994 143.003 71.0282 142.685 70.8857C142.37 70.7431 142.108 70.526 141.899 70.2344C141.694 69.9427 141.591 69.5748 141.591 69.1307V61.5341ZM147.497 66.4062V71H146.324V60.8182H147.497V64.5568H147.597C147.776 64.1624 148.044 63.8492 148.402 63.6172C148.763 63.3819 149.244 63.2642 149.844 63.2642C150.364 63.2642 150.82 63.3686 151.211 63.5774C151.602 63.7829 151.905 64.0994 152.121 64.527C152.339 64.9512 152.449 65.4915 152.449 66.1477V71H151.276V66.2273C151.276 65.6207 151.118 65.1518 150.803 64.8203C150.492 64.4856 150.059 64.3182 149.506 64.3182C149.121 64.3182 148.777 64.3994 148.472 64.5618C148.17 64.7242 147.931 64.9612 147.756 65.2727C147.583 65.5843 147.497 65.9621 147.497 66.4062ZM157.797 71.1591C157.061 71.1591 156.427 70.9967 155.893 70.6719C155.363 70.3438 154.953 69.8864 154.665 69.2997C154.38 68.7098 154.237 68.0237 154.237 67.2415C154.237 66.4593 154.38 65.7699 154.665 65.1733C154.953 64.5734 155.354 64.1061 155.868 63.7713C156.385 63.4332 156.988 63.2642 157.678 63.2642C158.075 63.2642 158.468 63.3305 158.856 63.4631C159.244 63.5956 159.597 63.8111 159.915 64.1094C160.233 64.4044 160.487 64.7955 160.676 65.2827C160.865 65.7699 160.959 66.3698 160.959 67.0824V67.5795H155.073V66.5653H159.766C159.766 66.1345 159.68 65.75 159.507 65.4119C159.338 65.0739 159.096 64.8071 158.781 64.6115C158.47 64.416 158.102 64.3182 157.678 64.3182C157.21 64.3182 156.806 64.4342 156.465 64.6662C156.127 64.8949 155.866 65.1932 155.684 65.5611C155.502 65.929 155.411 66.3234 155.411 66.7443V67.4205C155.411 67.9972 155.51 68.486 155.709 68.8871C155.911 69.2848 156.191 69.5881 156.549 69.7969C156.907 70.0024 157.323 70.1051 157.797 70.1051C158.105 70.1051 158.384 70.062 158.632 69.9759C158.884 69.8864 159.101 69.7538 159.284 69.5781C159.466 69.3991 159.607 69.1771 159.706 68.9119L160.84 69.2301C160.72 69.6146 160.52 69.9527 160.238 70.2443C159.956 70.5327 159.608 70.758 159.194 70.9205C158.78 71.0795 158.314 71.1591 157.797 71.1591ZM162.744 71V63.3636H163.877V64.517H163.957C164.096 64.1392 164.348 63.8326 164.713 63.5973C165.077 63.362 165.488 63.2443 165.945 63.2443C166.032 63.2443 166.139 63.246 166.269 63.2493C166.398 63.2526 166.496 63.2576 166.562 63.2642V64.4574C166.522 64.4474 166.431 64.4325 166.289 64.4126C166.149 64.3894 166.002 64.3778 165.846 64.3778C165.475 64.3778 165.143 64.4557 164.852 64.6115C164.563 64.764 164.335 64.9761 164.166 65.2479C164 65.5163 163.917 65.8229 163.917 66.1676V71H162.744ZM169.504 60.8182L169.404 68.1364H168.251L168.152 60.8182H169.504ZM168.828 71.0795C168.583 71.0795 168.372 70.9917 168.196 70.8161C168.021 70.6404 167.933 70.4299 167.933 70.1847C167.933 69.9394 168.021 69.7289 168.196 69.5533C168.372 69.3776 168.583 69.2898 168.828 69.2898C169.073 69.2898 169.283 69.3776 169.459 69.5533C169.635 69.7289 169.723 69.9394 169.723 70.1847C169.723 70.3471 169.681 70.4962 169.598 70.6321C169.519 70.768 169.411 70.8774 169.275 70.9602C169.143 71.0398 168.993 71.0795 168.828 71.0795Z" fill="white"/>
<defs>
<linearGradient id="paint0_linear_19_83" x1="5.33376" y1="34.8667" x2="5.33376" y2="45.5342" gradientUnits="userSpaceOnUse">
<stop stop-color="#EB5B00"/>
<stop offset="1" stop-color="#FFC16D"/>
</linearGradient>
<linearGradient id="paint1_linear_19_83" x1="42.6701" y1="34.8667" x2="42.6701" y2="45.5342" gradientUnits="userSpaceOnUse">
<stop stop-color="#EB5B00"/>
<stop offset="1" stop-color="#FFC16D"/>
</linearGradient>
<linearGradient id="paint2_linear_19_83" x1="27.5286" y1="0" x2="27.5286" y2="32.7204" gradientUnits="userSpaceOnUse">
<stop stop-color="#EB5B00"/>
<stop offset="1" stop-color="#FFC16D"/>
</linearGradient>
<linearGradient id="paint3_linear_19_83" x1="38.2383" y1="13.9126" x2="38.2383" y2="46.633" gradientUnits="userSpaceOnUse">
<stop stop-color="#EB5B00"/>
<stop offset="1" stop-color="#FFC16D"/>
</linearGradient>
</defs>
</svg>
