<svg width="233" height="40" viewBox="0 0 233 40" fill="none" xmlns="http://www.w3.org/2000/svg">
<circle cx="3.55584" cy="30.8002" r="3.55584" fill="url(#paint0_linear_20_148)"/>
<circle cx="28.4467" cy="30.8002" r="3.55584" fill="url(#paint1_linear_20_148)"/>
<rect x="14.5031" y="4" width="7.69865" height="21.8136" rx="3.84933" transform="rotate(30.2082 14.5031 4)" fill="url(#paint2_linear_20_148)"/>
<rect x="21.6428" y="13.2751" width="7.69865" height="21.8136" rx="3.84933" transform="rotate(30.2082 21.6428 13.2751)" fill="url(#paint3_linear_20_148)"/>
<path d="M45.1744 12.1836V8H64.8854V12.1836H57.5377V32H52.5221V12.1836H45.1744ZM72.9705 32.3516C71.1189 32.3516 69.5252 31.9766 68.1892 31.2266C66.8611 30.4687 65.8377 29.3984 65.1189 28.0156C64.4002 26.625 64.0408 24.9805 64.0408 23.082C64.0408 21.2305 64.4002 19.6055 65.1189 18.207C65.8377 16.8086 66.8494 15.7187 68.1541 14.9375C69.4666 14.1562 71.0056 13.7656 72.7713 13.7656C73.9588 13.7656 75.0642 13.957 76.0877 14.3398C77.1189 14.7148 78.0174 15.2812 78.783 16.0391C79.5564 16.7969 80.158 17.75 80.5877 18.8984C81.0174 20.0391 81.2322 21.375 81.2322 22.9062V24.2773H66.033V21.1836H76.533C76.533 20.4648 76.3767 19.8281 76.0642 19.2734C75.7517 18.7187 75.3182 18.2852 74.7635 17.9727C74.2166 17.6523 73.5799 17.4922 72.8533 17.4922C72.0955 17.4922 71.4236 17.668 70.8377 18.0195C70.2596 18.3633 69.8064 18.8281 69.4783 19.4141C69.1502 19.9922 68.9822 20.6367 68.9744 21.3477V24.2891C68.9744 25.1797 69.1385 25.9492 69.4666 26.5977C69.8025 27.2461 70.2752 27.7461 70.8846 28.0977C71.4939 28.4492 72.2166 28.625 73.0525 28.625C73.6072 28.625 74.115 28.5469 74.576 28.3906C75.0369 28.2344 75.4314 28 75.7596 27.6875C76.0877 27.375 76.3377 26.9922 76.5096 26.5391L81.1267 26.8438C80.8924 27.9531 80.4119 28.9219 79.6853 29.75C78.9666 30.5703 78.0369 31.2109 76.8963 31.6719C75.7635 32.125 74.4549 32.3516 72.9705 32.3516ZM91.9628 32.3516C90.1191 32.3516 88.5331 31.9609 87.205 31.1797C85.8847 30.3906 84.8691 29.2969 84.1581 27.8984C83.455 26.5 83.1035 24.8906 83.1035 23.0703C83.1035 21.2266 83.4589 19.6094 84.1699 18.2187C84.8886 16.8203 85.9081 15.7305 87.2285 14.9492C88.5488 14.1602 90.1191 13.7656 91.9394 13.7656C93.5097 13.7656 94.8847 14.0508 96.0644 14.6211C97.2441 15.1914 98.1777 15.9922 98.8652 17.0234C99.5527 18.0547 99.9316 19.2656 100.002 20.6562H95.291C95.1582 19.7578 94.8066 19.0352 94.2363 18.4883C93.6738 17.9336 92.9355 17.6562 92.0214 17.6562C91.248 17.6562 90.5722 17.8672 89.9941 18.2891C89.4238 18.7031 88.9785 19.3086 88.6581 20.1055C88.3378 20.9023 88.1777 21.8672 88.1777 23C88.1777 24.1484 88.3339 25.125 88.6464 25.9297C88.9667 26.7344 89.416 27.3477 89.9941 27.7695C90.5722 28.1914 91.248 28.4023 92.0214 28.4023C92.5917 28.4023 93.1035 28.2852 93.5566 28.0508C94.0175 27.8164 94.3964 27.4766 94.6933 27.0312C94.998 26.5781 95.1972 26.0352 95.291 25.4023H100.002C99.9238 26.7773 99.5488 27.9883 98.8769 29.0352C98.2128 30.0742 97.2949 30.8867 96.123 31.4727C94.9511 32.0586 93.5644 32.3516 91.9628 32.3516ZM107.53 21.5938V32H102.538V8H107.39V17.1758H107.601C108.007 16.1133 108.663 15.2812 109.569 14.6797C110.476 14.0703 111.612 13.7656 112.98 13.7656C114.23 13.7656 115.319 14.0391 116.249 14.5859C117.187 15.125 117.913 15.9023 118.429 16.918C118.952 17.9258 119.21 19.1328 119.202 20.5391V32H114.21V21.4297C114.218 20.3203 113.937 19.457 113.366 18.8398C112.804 18.2227 112.015 17.9141 110.999 17.9141C110.319 17.9141 109.718 18.0586 109.194 18.3477C108.679 18.6367 108.273 19.0586 107.976 19.6133C107.687 20.1602 107.538 20.8203 107.53 21.5938ZM135.584 14.9023C135.49 13.957 135.088 13.2227 134.377 12.6992C133.666 12.1758 132.701 11.9141 131.483 11.9141C130.655 11.9141 129.955 12.0312 129.385 12.2656C128.815 12.4922 128.377 12.8086 128.073 13.2148C127.776 13.6211 127.627 14.082 127.627 14.5977C127.612 15.0273 127.701 15.4023 127.897 15.7227C128.1 16.043 128.377 16.3203 128.729 16.5547C129.08 16.7812 129.487 16.9805 129.948 17.1523C130.408 17.3164 130.901 17.457 131.424 17.5742L133.58 18.0898C134.627 18.3242 135.588 18.6367 136.463 19.0273C137.338 19.418 138.096 19.8984 138.737 20.4687C139.377 21.0391 139.873 21.7109 140.225 22.4844C140.584 23.2578 140.768 24.1445 140.776 25.1445C140.768 26.6133 140.393 27.8867 139.651 28.9648C138.916 30.0352 137.854 30.8672 136.463 31.4609C135.08 32.0469 133.412 32.3398 131.459 32.3398C129.522 32.3398 127.834 32.043 126.397 31.4492C124.967 30.8555 123.85 29.9766 123.045 28.8125C122.248 27.6406 121.83 26.1914 121.791 24.4648H126.701C126.756 25.2695 126.987 25.9414 127.393 26.4805C127.807 27.0117 128.358 27.4141 129.045 27.6875C129.74 27.9531 130.526 28.0859 131.401 28.0859C132.26 28.0859 133.006 27.9609 133.639 27.7109C134.28 27.4609 134.776 27.1133 135.127 26.668C135.479 26.2227 135.655 25.7109 135.655 25.1328C135.655 24.5937 135.494 24.1406 135.174 23.7734C134.862 23.4062 134.401 23.0937 133.791 22.8359C133.19 22.5781 132.451 22.3437 131.576 22.1328L128.963 21.4766C126.94 20.9844 125.342 20.2148 124.17 19.168C122.998 18.1211 122.416 16.7109 122.424 14.9375C122.416 13.4844 122.803 12.2148 123.584 11.1289C124.373 10.043 125.455 9.19531 126.83 8.58594C128.205 7.97656 129.768 7.67187 131.518 7.67187C133.299 7.67187 134.854 7.97656 136.182 8.58594C137.518 9.19531 138.557 10.043 139.299 11.1289C140.041 12.2148 140.424 13.4727 140.448 14.9023H135.584ZM143.435 38.75V14H148.357V17.0234H148.58C148.798 16.5391 149.115 16.0469 149.529 15.5469C149.951 15.0391 150.497 14.6172 151.169 14.2813C151.849 13.9375 152.693 13.7656 153.701 13.7656C155.013 13.7656 156.224 14.1094 157.333 14.7969C158.443 15.4766 159.33 16.5039 159.994 17.8789C160.658 19.2461 160.99 20.9609 160.99 23.0234C160.99 25.0312 160.665 26.7266 160.017 28.1094C159.376 29.4844 158.501 30.5273 157.392 31.2383C156.29 31.9414 155.056 32.293 153.689 32.293C152.72 32.293 151.896 32.1328 151.216 31.8125C150.544 31.4922 149.994 31.0898 149.564 30.6055C149.134 30.1133 148.806 29.6172 148.58 29.1172H148.427V38.75H143.435ZM148.322 23C148.322 24.0703 148.47 25.0039 148.767 25.8008C149.064 26.5977 149.494 27.2187 150.056 27.6641C150.619 28.1016 151.302 28.3203 152.107 28.3203C152.919 28.3203 153.607 28.0977 154.169 27.6523C154.732 27.1992 155.158 26.5742 155.447 25.7773C155.744 24.9727 155.892 24.0469 155.892 23C155.892 21.9609 155.747 21.0469 155.458 20.2578C155.169 19.4687 154.744 18.8516 154.181 18.4062C153.619 17.9609 152.927 17.7383 152.107 17.7383C151.294 17.7383 150.607 17.9531 150.044 18.3828C149.49 18.8125 149.064 19.4219 148.767 20.2109C148.47 21 148.322 21.9297 148.322 23ZM168.65 21.5938V32H163.658V8H168.509V17.1758H168.72C169.127 16.1133 169.783 15.2812 170.689 14.6797C171.595 14.0703 172.732 13.7656 174.099 13.7656C175.349 13.7656 176.439 14.0391 177.369 14.5859C178.306 15.125 179.033 15.9023 179.548 16.918C180.072 17.9258 180.33 19.1328 180.322 20.5391V32H175.33V21.4297C175.337 20.3203 175.056 19.457 174.486 18.8398C173.923 18.2227 173.134 17.9141 172.119 17.9141C171.439 17.9141 170.837 18.0586 170.314 18.3477C169.798 18.6367 169.392 19.0586 169.095 19.6133C168.806 20.1602 168.658 20.8203 168.65 21.5938ZM191.794 32.3516C189.942 32.3516 188.348 31.9766 187.012 31.2266C185.684 30.4687 184.661 29.3984 183.942 28.0156C183.223 26.625 182.864 24.9805 182.864 23.082C182.864 21.2305 183.223 19.6055 183.942 18.207C184.661 16.8086 185.673 15.7187 186.977 14.9375C188.29 14.1562 189.829 13.7656 191.594 13.7656C192.782 13.7656 193.887 13.957 194.911 14.3398C195.942 14.7148 196.841 15.2812 197.606 16.0391C198.38 16.7969 198.981 17.75 199.411 18.8984C199.841 20.0391 200.055 21.375 200.055 22.9062V24.2773H184.856V21.1836H195.356C195.356 20.4648 195.2 19.8281 194.887 19.2734C194.575 18.7187 194.141 18.2852 193.587 17.9727C193.04 17.6523 192.403 17.4922 191.677 17.4922C190.919 17.4922 190.247 17.668 189.661 18.0195C189.083 18.3633 188.63 18.8281 188.302 19.4141C187.973 19.9922 187.805 20.6367 187.798 21.3477V24.2891C187.798 25.1797 187.962 25.9492 188.29 26.5977C188.626 27.2461 189.098 27.7461 189.708 28.0977C190.317 28.4492 191.04 28.625 191.876 28.625C192.43 28.625 192.938 28.5469 193.399 28.3906C193.86 28.2344 194.255 28 194.583 27.6875C194.911 27.375 195.161 26.9922 195.333 26.5391L199.95 26.8438C199.716 27.9531 199.235 28.9219 198.509 29.75C197.79 30.5703 196.86 31.2109 195.719 31.6719C194.587 32.125 193.278 32.3516 191.794 32.3516ZM202.653 32V14H207.493V17.1406H207.681C208.009 16.0234 208.559 15.1797 209.333 14.6094C210.106 14.0312 210.997 13.7422 212.005 13.7422C212.255 13.7422 212.524 13.7578 212.813 13.7891C213.102 13.8203 213.356 13.8633 213.575 13.918V18.3477C213.341 18.2773 213.017 18.2148 212.602 18.1602C212.188 18.1055 211.809 18.0781 211.466 18.0781C210.731 18.0781 210.075 18.2383 209.497 18.5586C208.927 18.8711 208.474 19.3086 208.138 19.8711C207.809 20.4336 207.645 21.082 207.645 21.8164V32H202.653ZM222.861 32.3516C221.01 32.3516 219.416 31.9766 218.08 31.2266C216.752 30.4687 215.729 29.3984 215.01 28.0156C214.291 26.625 213.932 24.9805 213.932 23.082C213.932 21.2305 214.291 19.6055 215.01 18.207C215.729 16.8086 216.74 15.7187 218.045 14.9375C219.357 14.1562 220.897 13.7656 222.662 13.7656C223.85 13.7656 224.955 13.957 225.979 14.3398C227.01 14.7148 227.908 15.2812 228.674 16.0391C229.447 16.7969 230.049 17.75 230.479 18.8984C230.908 20.0391 231.123 21.375 231.123 22.9062V24.2773H215.924V21.1836H226.424C226.424 20.4648 226.268 19.8281 225.955 19.2734C225.643 18.7187 225.209 18.2852 224.654 17.9727C224.107 17.6523 223.471 17.4922 222.744 17.4922C221.986 17.4922 221.315 17.668 220.729 18.0195C220.15 18.3633 219.697 18.8281 219.369 19.4141C219.041 19.9922 218.873 20.6367 218.865 21.3477V24.2891C218.865 25.1797 219.029 25.9492 219.357 26.5977C219.693 27.2461 220.166 27.7461 220.775 28.0977C221.385 28.4492 222.107 28.625 222.943 28.625C223.498 28.625 224.006 28.5469 224.467 28.3906C224.928 28.2344 225.322 28 225.65 27.6875C225.979 27.375 226.229 26.9922 226.4 26.5391L231.018 26.8438C230.783 27.9531 230.303 28.9219 229.576 29.75C228.857 30.5703 227.928 31.2109 226.787 31.6719C225.654 32.125 224.346 32.3516 222.861 32.3516Z" fill="#EB5B00"/>
<defs>
<linearGradient id="paint0_linear_20_148" x1="3.55584" y1="27.2444" x2="3.55584" y2="34.3561" gradientUnits="userSpaceOnUse">
<stop stop-color="#EB5B00"/>
<stop offset="1" stop-color="#FFC16D"/>
</linearGradient>
<linearGradient id="paint1_linear_20_148" x1="28.4467" y1="27.2444" x2="28.4467" y2="34.3561" gradientUnits="userSpaceOnUse">
<stop stop-color="#EB5B00"/>
<stop offset="1" stop-color="#FFC16D"/>
</linearGradient>
<linearGradient id="paint2_linear_20_148" x1="18.3524" y1="4" x2="18.3524" y2="25.8136" gradientUnits="userSpaceOnUse">
<stop stop-color="#EB5B00"/>
<stop offset="1" stop-color="#FFC16D"/>
</linearGradient>
<linearGradient id="paint3_linear_20_148" x1="25.4921" y1="13.2751" x2="25.4921" y2="35.0887" gradientUnits="userSpaceOnUse">
<stop stop-color="#EB5B00"/>
<stop offset="1" stop-color="#FFC16D"/>
</linearGradient>
</defs>
</svg>
